<svg xmlns="http://www.w3.org/2000/svg" viewBox="0 0 16.002 18.503">
  <defs>
    <style>
      .cls-1 {
        fill: #3b3b3b;
      }

      .cls-2 {
        fill: #d50000;
      }

      .cls-2, .cls-3 {
        stroke: #fff;
      }

      .cls-3 {
        fill: #fff;
      }

      .cls-4 {
        stroke: none;
      }

      .cls-5 {
        fill: none;
      }
    </style>
  </defs>
  <g id="alerta-de-sexo-por-idade" transform="translate(-166.417 -3552.445)">
    <g id="noun_male_female_203745" data-name="noun_male female_203745" transform="translate(123.53 3487.965)">
      <g id="Group_81" data-name="Group 81" transform="translate(43.707 65.636)">
        <path id="Path_40" data-name="Path 40" class="cls-1" d="M137.107,75.012v2.25l-3.055-3.055a5.608,5.608,0,0,0-4.76-8.571v2.383a3.224,3.224,0,1,1-3.224,3.224h-2.383a5.614,5.614,0,0,0,4.416,5.48h0v1.948h-1.734v2.382H128.1v1.93h2.382v-1.93h1.734V78.671h-1.734V76.723h0a5.573,5.573,0,0,0,1.841-.763l.048-.016,3.026,3.026h-2.25v1.76h5.719V75.012Z" transform="translate(-123.685 -65.636)"/>
      </g>
    </g>
    <g id="Group_79" data-name="Group 79" transform="translate(-4.555 2936.521)">
      <g id="Ellipse_4" data-name="Ellipse 4" class="cls-2" transform="translate(170.972 615.925)">
        <ellipse class="cls-4" cx="6.632" cy="6.632" rx="6.632" ry="6.632"/>
        <ellipse class="cls-5" cx="6.632" cy="6.632" rx="6.132" ry="6.132"/>
      </g>
      <g id="Rectangle_1" data-name="Rectangle 1" class="cls-3" transform="translate(173.208 621.521)">
        <rect class="cls-4" width="8.821" height="2.205"/>
        <rect class="cls-5" x="0.5" y="0.5" width="7.821" height="1.205"/>
      </g>
    </g>
  </g>
</svg>
