<svg xmlns="http://www.w3.org/2000/svg" viewBox="0 0 17.959 16.25">
  <defs>
    <style>
      .cls-1 {
        fill: #cecece;
        stroke: #cecece;
        stroke-width: 0.5px;
      }

      .cls-2 {
        fill: #3b3b3b;
      }

      .cls-3 {
        fill: #d50000;
      }
    </style>
  </defs>
  <g id="alta-medica" transform="translate(-167 -6501.75)">
    <g id="Group" transform="translate(156.347 6489.3)">
      <path id="Compound_Path" data-name="Compound Path" class="cls-1" d="M25.581,17.669a2.049,2.049,0,0,0-.526,4.026v.617a2.829,2.829,0,1,1-5.658,0V19.627a3.953,3.953,0,0,0,3.391-3.917V13.244a.544.544,0,0,0-.544-.544H20.485v1.088H21.7V15.71a2.865,2.865,0,0,1-5.712,0V13.788H17.2V12.7H15.444a.544.544,0,0,0-.544.544V15.71a3.953,3.953,0,0,0,3.409,3.917v2.684a3.917,3.917,0,0,0,7.834,0v-.617a2.049,2.049,0,0,0-.562-4.026Zm0,3.01a.961.961,0,1,1,.961-.961A.961.961,0,0,1,25.581,20.679Z" transform="translate(0 0)"/>
    </g>
    <path id="ic_work_24px" class="cls-2" d="M10.9,3.979H8.926V2.989A.986.986,0,0,0,7.937,2H5.958a.986.986,0,0,0-.989.989v.989H2.989A.982.982,0,0,0,2,4.968L2,10.41a.986.986,0,0,0,.989.989H10.9a.986.986,0,0,0,.989-.989V4.968A.986.986,0,0,0,10.9,3.979Zm-2.968,0H5.958V2.989H7.937Z" transform="translate(165 6506.601)"/>
    <g id="down-arrow" transform="translate(176.098 6515.12) rotate(-90)">
      <g id="Group_3" data-name="Group 3">
        <path id="Path_12" data-name="Path 12" class="cls-3" d="M40.033,4.912a.185.185,0,0,0-.171-.114H37.84V2.185A.185.185,0,0,0,37.656,2H34.7a.185.185,0,0,0-.185.185V4.8h-2.03a.184.184,0,0,0-.131.315L36.04,8.807a.185.185,0,0,0,.261,0l3.692-3.694A.184.184,0,0,0,40.033,4.912Z" transform="translate(-32.304)"/>
      </g>
    </g>
  </g>
</svg>
