<svg xmlns="http://www.w3.org/2000/svg" width="15" height="15" viewBox="0 0 15 15">
  <g id="anatomia-patologica" transform="translate(3084 7755)">
    <path id="anatomia-patologica-2" data-name="anatomia-patologica" d="M11.426,8.408A4.839,4.839,0,0,0,6.592,3.574H5.273V1.758H4.395V.879h.879V0H.879V.879h.879v.879H.879V7.969h.879V9.727H4.395V7.969h.879V6.211H6.592a2.2,2.2,0,0,1,0,4.395H0v.879H2.637v.879H2.2a2.2,2.2,0,0,0-2.2,2.2V15H7.91v-.439a2.187,2.187,0,0,0-.5-1.389,4.842,4.842,0,0,0,4.012-4.764ZM2.637.879h.879v.879H2.637Zm.879,7.969H2.637V7.09h.879ZM4.395,7.09H1.758V2.637H4.395Zm-.879,4.395h.879v1.758H3.516ZM.954,14.121A1.321,1.321,0,0,1,2.2,13.242H5.713a1.321,1.321,0,0,1,1.243.879Zm5.638-1.758h-2.2v-.879h2.2a3.076,3.076,0,0,0,0-6.152h-2.2V4.453h2.2a3.955,3.955,0,1,1,0,7.91Zm0,0" transform="translate(-3082.5 -7755)" fill="#1976d2"/>
    <rect id="Retângulo_3934" data-name="Retângulo 3934" width="15" height="15" transform="translate(-3084 -7755)" fill="none"/>
  </g>
</svg>
