<svg xmlns="http://www.w3.org/2000/svg" width="16" height="16" viewBox="0 0 16 16">
  <path id="ic_extension_24px" d="M15.214,8.143H14.143V5.286a1.433,1.433,0,0,0-1.429-1.429H9.857V2.786a1.786,1.786,0,1,0-3.571,0V3.857H3.429A1.427,1.427,0,0,0,2.007,5.286V8H3.071a1.929,1.929,0,0,1,0,3.857H2v2.714A1.433,1.433,0,0,0,3.429,16H6.143V14.929a1.929,1.929,0,1,1,3.857,0V16h2.714a1.433,1.433,0,0,0,1.429-1.429V11.714h1.071a1.786,1.786,0,1,0,0-3.571Z" transform="translate(-1.5 -0.5)" fill="none" stroke="#1b3851" stroke-width="1"/>
</svg>
