<svg xmlns="http://www.w3.org/2000/svg" width="15.001" height="15.001" viewBox="0 0 15.001 15.001">
  <g id="icone-associar-servicos" transform="translate(-13.5 -13.499)">
    <g id="Group_8445" data-name="Group 8445" transform="translate(13.5 13.5)">
      <path id="Path_5930" data-name="Path 5930" d="M26.3,15.688A7.22,7.22,0,0,0,21,13.5,7.5,7.5,0,1,0,28.5,21a7.237,7.237,0,0,0-2.2-5.312m-4.2,2.086a1.189,1.189,0,0,1,.873-.36,1.238,1.238,0,1,1,0,2.476,1.189,1.189,0,0,1-.873-.36.161.161,0,0,1-.031-.041l-2.64,1.346q.01.1.01.2t-.01.2l2.64,1.315a.033.033,0,0,0,.031-.021,1.172,1.172,0,0,1,.873-.37,1.194,1.194,0,0,1,.873.37,1.211,1.211,0,0,1,.36.873,1.189,1.189,0,0,1-.36.873,1.211,1.211,0,0,1-.873.36,1.189,1.189,0,0,1-.873-.36,1.207,1.207,0,0,1-.349-.873V23.26l-2.723-1.3a1.165,1.165,0,0,1-.812.308,1.223,1.223,0,0,1-.884-.36,1.24,1.24,0,0,1,0-1.747,1.223,1.223,0,0,1,.884-.36,1.137,1.137,0,0,1,.791.3l2.743-1.325v-.123a1.242,1.242,0,0,1,.35-.884Z" transform="translate(-13.5 -13.5)" fill="#3b3b3b"/>
    </g>
  </g>
</svg>
