<svg xmlns="http://www.w3.org/2000/svg" width="15" height="15" viewBox="0 0 15 15">
  <g id="banco-de-sangue" transform="translate(3084 7781)">
    <g id="banco-de-sangue-2" data-name="banco-de-sangue" transform="translate(-3083.378 -7780.886)">
      <path id="Caminho_5576" data-name="Caminho 5576" d="M162.9,274.48a.307.307,0,0,0-.307.307,2.325,2.325,0,0,1-2.322,2.322.307.307,0,1,0,0,.614,2.939,2.939,0,0,0,2.936-2.936A.307.307,0,0,0,162.9,274.48Zm0,0" transform="translate(-154.19 -265.416)" fill="#1976d2" stroke="#1976d2" stroke-width="0.2"/>
      <path id="Caminho_5577" data-name="Caminho 5577" d="M14.438,8.968a3.887,3.887,0,0,0-.284-3.558l-.017-.025L10.21.136A.346.346,0,0,0,9.933,0h0a.346.346,0,0,0-.277.136l-1.648,2.2L6.578.425A.342.342,0,0,0,6.3.292h0a.343.343,0,0,0-.277.133l-4.806,6.4a.285.285,0,0,0-.018.025A4.686,4.686,0,0,0,.5,9.463a5.084,5.084,0,0,0,.746,2.466,5.952,5.952,0,0,0,10.121-.006c.048-.08.094-.162.138-.244a4.806,4.806,0,0,0,2.936-2.711ZM6.3,14.095A5.233,5.233,0,0,1,1.833,11.6a4.456,4.456,0,0,1-.655-2.16,4.067,4.067,0,0,1,.6-2.252L6.3,1.169l4.52,6.041a4.032,4.032,0,0,1,.6,2.237,4.437,4.437,0,0,1-.65,2.152,5.233,5.233,0,0,1-4.473,2.5Zm5.567-3.278A4.857,4.857,0,0,0,12.1,9.465a4.652,4.652,0,0,0-.7-2.595l-.017-.025L8.426,2.891,9.932.883l3.641,4.866A3.274,3.274,0,0,1,13.8,8.734a4.092,4.092,0,0,1-1.934,2.082Zm0,0" transform="translate(-0.654)" fill="#1976d2" stroke="#1976d2" stroke-width="0.2"/>
    </g>
    <rect id="Retângulo_3933" data-name="Retângulo 3933" width="15" height="15" transform="translate(-3084 -7781)" fill="none"/>
  </g>
</svg>
