<svg xmlns="http://www.w3.org/2000/svg" width="15" height="15" viewBox="0 0 15 15">
  <g id="broncoscopia" transform="translate(3084 7538)">
    <path id="broncoscopia-2" data-name="broncoscopia" d="M14.453,41.106a5.559,5.559,0,0,0-3.122-2.853l-.054-.02a1.228,1.228,0,0,0-1.236.248,1.2,1.2,0,0,0-.367,1.193,6.483,6.483,0,0,1,.182,1.31l-2.03-1.407v-3.8a.325.325,0,1,0-.649,0v3.8l-2.03,1.407a6.483,6.483,0,0,1,.182-1.31,1.2,1.2,0,0,0-.367-1.193,1.228,1.228,0,0,0-1.236-.248l-.054.02A5.6,5.6,0,0,0,2,47.8a1.529,1.529,0,0,0,2.284-.37,6.5,6.5,0,0,1,1.3-1.526,1.337,1.337,0,0,0,.312-1.642,6.565,6.565,0,0,1-.73-2.5L7.5,40.142l2.337,1.619a6.532,6.532,0,0,1-.34,1.6,6.587,6.587,0,0,1-.389.9A1.337,1.337,0,0,0,9.419,45.9a6.5,6.5,0,0,1,1.3,1.526A1.529,1.529,0,0,0,13,47.8a5.585,5.585,0,0,0,1.453-6.69Zm-9.295,4.3a7.149,7.149,0,0,0-1.425,1.678h0a.874.874,0,0,1-.6.406.883.883,0,0,1-.71-.194,4.954,4.954,0,0,1,1.476-8.435l.048-.017a.587.587,0,0,1,.2-.034.575.575,0,0,1,.387.152.561.561,0,0,1,.172.557,7.136,7.136,0,0,0,.194,4.054,7.225,7.225,0,0,0,.428.986A.691.691,0,0,1,5.158,45.408Zm8.924-.291a4.937,4.937,0,0,1-1.5,2.181.883.883,0,0,1-.71.194.874.874,0,0,1-.6-.406,7.149,7.149,0,0,0-1.425-1.678.691.691,0,0,1-.161-.848,7.236,7.236,0,0,0,.428-.986A7.137,7.137,0,0,0,10.3,39.52a.561.561,0,0,1,.172-.557.573.573,0,0,1,.584-.117l.048.017a4.962,4.962,0,0,1,2.975,6.254Z" transform="translate(-3084 -7572.454)" fill="#1976d2"/>
    <rect id="Retângulo_3942" data-name="Retângulo 3942" width="15" height="15" transform="translate(-3084 -7538)" fill="none"/>
  </g>
</svg>
