<svg xmlns="http://www.w3.org/2000/svg" viewBox="0 0 18 18">
  <defs>
    <style>
      .cls-1 {
        fill: #00909f;
      }

      .cls-2 {
        fill: #fff;
      }
    </style>
  </defs>
  <g id="cadastro-incompleto" transform="translate(-168 -8283)">
    <circle id="Ellipse_35" data-name="Ellipse 35" class="cls-1" cx="9" cy="9" r="9" transform="translate(168 8283)"/>
    <path id="Path_3860" data-name="Path 3860" class="cls-2" d="M-1.518-3.527v-.588a2.184,2.184,0,0,1,.273-1.131,2.868,2.868,0,0,1,.971-.9,3.645,3.645,0,0,0,.8-.629.953.953,0,0,0,.243-.643.516.516,0,0,0-.26-.455,1.231,1.231,0,0,0-.677-.167,5.323,5.323,0,0,0-2.413.731l-.95-1.859a7.076,7.076,0,0,1,3.555-.971,3.828,3.828,0,0,1,2.393.67,2.182,2.182,0,0,1,.868,1.825A2.6,2.6,0,0,1,2.9-6.21,3.935,3.935,0,0,1,1.661-5.065a4.773,4.773,0,0,0-.9.68.766.766,0,0,0-.181.509v.349Zm-.294,2.393a1.264,1.264,0,0,1,.366-.971A1.523,1.523,0,0,1-.369-2.447,1.471,1.471,0,0,1,.68-2.1a1.266,1.266,0,0,1,.366.967,1.231,1.231,0,0,1-.379.964A1.49,1.49,0,0,1-.369.171a1.545,1.545,0,0,1-1.06-.338A1.223,1.223,0,0,1-1.812-1.135Z" transform="translate(177.2 8297)"/>
  </g>
</svg>
