<svg xmlns="http://www.w3.org/2000/svg" xmlns:xlink="http://www.w3.org/1999/xlink" viewBox="0 0 20 18.637">
  <defs>
    <style>
      .cls-1 {
        fill: #fff;
      }

      .cls-2 {
        clip-path: url(#clip-path);
      }

      .cls-3 {
        fill: none;
        stroke: #fff;
        stroke-width: 1.25px;
      }
    </style>
    <clipPath id="clip-path">
      <path id="Path_4585" data-name="Path 4585" class="cls-1" d="M0,20H18.637V10.028H8.434V0H0Z" transform="translate(20) rotate(90)"/>
    </clipPath>
  </defs>
  <g id="Group_5491" data-name="Group 5491" transform="translate(19008.402 16022.459)">
    <g id="Mask_Group_251" data-name="Mask Group 251" class="cls-2" transform="translate(-19008.402 -16022.459)">
      <path id="ic_favorite_24px" class="cls-3" d="M11.2,19.881,9.866,18.667C5.128,14.371,2,11.537,2,8.06A5.011,5.011,0,0,1,7.06,3,5.509,5.509,0,0,1,11.2,4.923,5.509,5.509,0,0,1,15.339,3,5.011,5.011,0,0,1,20.4,8.06c0,3.477-3.128,6.311-7.866,10.616Z" transform="translate(-1.17 -2.118)"/>
    </g>
    <path id="ic_swap_vert_24px" class="cls-1" d="M5.232,6.664V3.33H4.281V6.664H2.854l1.9,1.9,1.9-1.9ZM1.9,0,0,1.9H1.427V5.232h.951V1.9H3.805Z" transform="translate(-18997.99 -16006.151) rotate(-90)"/>
  </g>
</svg>
