<svg xmlns="http://www.w3.org/2000/svg" viewBox="0 0 16.027 14.885">
  <defs>
    <style>
      .cls-1 {
        fill: #3b3b3b;
      }

      .cls-2, .cls-4 {
        fill: #fff;
      }

      .cls-2 {
        stroke: #fff;
      }

      .cls-3 {
        fill: #ff1744;
      }

      .cls-5 {
        stroke: none;
      }

      .cls-6 {
        fill: none;
      }
    </style>
  </defs>
  <g id="cama-foi-solicitada" transform="translate(-193 -2176)">
    <g id="Group_55" data-name="Group 55" transform="translate(27 -133.437)">
      <g id="noun_Hospital_583380" transform="translate(166 2312.637)">
        <g id="Group_4" data-name="Group 4" transform="translate(0 0)">
          <path id="Path_13" data-name="Path 13" class="cls-1" d="M20,40V51.685h2.671V48.013H33.356v3.671h2.671V45.342H22.671V40Z" transform="translate(-20 -40)"/>
        </g>
        <rect id="Rectangle_10" data-name="Rectangle 10" class="cls-1" width="16" height="3" transform="translate(0 7.713)"/>
      </g>
      <g id="Rectangle_11" data-name="Rectangle 11" class="cls-2" transform="translate(169 2320)">
        <rect class="cls-5" width="11" height="1"/>
        <rect class="cls-6" x="0.5" y="0.5" width="10"/>
      </g>
    </g>
    <g id="Group_56" data-name="Group 56" transform="translate(27)">
      <path id="ic_announcement_24px" class="cls-3" d="M9.018,2H2.78A.779.779,0,0,0,2,2.78L2,9.8l1.56-1.56H9.018a.782.782,0,0,0,.78-.78V2.78A.782.782,0,0,0,9.018,2Z" transform="translate(169 2174)"/>
      <circle id="Ellipse_14" data-name="Ellipse 14" class="cls-4" cx="0.75" cy="0.75" r="0.75" transform="translate(172.2 2178.35)"/>
      <circle id="Ellipse_15" data-name="Ellipse 15" class="cls-4" cx="0.75" cy="0.75" r="0.75" transform="translate(174.2 2178.35)"/>
      <circle id="Ellipse_16" data-name="Ellipse 16" class="cls-4" cx="0.75" cy="0.75" r="0.75" transform="translate(176.2 2178.35)"/>
    </g>
  </g>
</svg>
