<svg xmlns="http://www.w3.org/2000/svg" viewBox="0 0 16.027 15.584">
  <defs>
    <style>
      .cls-1 {
        fill: #3b3b3b;
      }

      .cls-2 {
        fill: #fff;
        stroke: #fff;
      }

      .cls-3 {
        fill: #00c853;
      }

      .cls-4 {
        stroke: none;
      }

      .cls-5 {
        fill: none;
      }
    </style>
  </defs>
  <g id="cama-foi-atribuida" transform="translate(-194 -2308.3)">
    <g id="Group_57" data-name="Group 57" transform="translate(28 -0.437)">
      <g id="noun_Hospital_583380" transform="translate(166 2312.637)">
        <g id="Group_4" data-name="Group 4" transform="translate(0 0)">
          <path id="Path_13" data-name="Path 13" class="cls-1" d="M20,40V51.685h2.671V48.013H33.356v3.671h2.671V45.342H22.671V40Z" transform="translate(-20 -40)"/>
        </g>
        <rect id="Rectangle_10" data-name="Rectangle 10" class="cls-1" width="16" height="3" transform="translate(0 7.713)"/>
      </g>
      <g id="Rectangle_11" data-name="Rectangle 11" class="cls-2" transform="translate(169 2320)">
        <rect class="cls-4" width="11" height="1"/>
        <rect class="cls-5" x="0.5" y="0.5" width="10"/>
      </g>
    </g>
    <path id="ic_thumb_up_24px" class="cls-3" d="M1,9H2.6V4.2H1ZM9.8,4.6A.8.8,0,0,0,9,3.8H6.476l.38-1.828.012-.128a.6.6,0,0,0-.176-.424L6.268,1,3.636,3.636A.782.782,0,0,0,3.4,4.2v4a.8.8,0,0,0,.8.8H7.8a.8.8,0,0,0,.736-.488l1.208-2.82A.79.79,0,0,0,9.8,5.4V4.636l0,0Z" transform="translate(198 2307.3)"/>
  </g>
</svg>
