<svg xmlns="http://www.w3.org/2000/svg" width="14.73" height="14.7" viewBox="0 0 14.73 14.7">
  <g id="CME" transform="translate(-2.382 -2.412)">
    <path id="Caminho_5324" data-name="Caminho 5324" d="M3.036,8.553l3.672,3.674L4.525,14.411,3.212,13.1a.4.4,0,0,0-.58,0,.411.411,0,0,0,0,.581l3.2,3.208a.41.41,0,0,0,.58-.581L5.1,14.992l2.2-2.169L10.974,16.5a.41.41,0,1,0,.58-.581L10.168,14.53l5.57-5.576a.417.417,0,0,0,.107-.4L14.582,5.52l2.3-2.307a.4.4,0,0,0,0-.581.409.409,0,0,0-.58,0L14,4.924,10.968,3.66a.471.471,0,0,0-.4.107L5,9.358,3.615,7.972a.41.41,0,1,0-.58.581ZM11,4.531l2.79,1.2,1.2,2.792-.809.81L13.1,8.251a.41.41,0,0,0-.58.581L13.6,9.916l-.946.947L11.572,9.778a.4.4,0,0,0-.58,0,.411.411,0,0,0,0,.581l1.084,1.085-.946.947-1.084-1.085a.41.41,0,0,0-.58.581l1.084,1.085-.946.947L5.6,9.939Z" transform="translate(0)" fill="#1b3851" stroke="#1b3851" stroke-width="0.2"/>
  </g>
</svg>
