<svg xmlns="http://www.w3.org/2000/svg" width="16.063" height="16" viewBox="0 0 16.063 16">
  <path id="code-tables" d="M15.5,10.235a5.688,5.688,0,0,0,.054-.735,5.688,5.688,0,0,0-.054-.735l1.627-1.238a.371.371,0,0,0,.093-.48l-1.542-2.6a.393.393,0,0,0-.47-.165l-1.92.75a5.673,5.673,0,0,0-1.3-.735l-.293-1.988A.373.373,0,0,0,11.314,2H8.23a.373.373,0,0,0-.378.315L7.559,4.3a5.966,5.966,0,0,0-1.3.735l-1.92-.75a.381.381,0,0,0-.47.165L2.324,7.048a.363.363,0,0,0,.093.48L4.044,8.765A5.788,5.788,0,0,0,3.99,9.5a5.788,5.788,0,0,0,.054.735L2.417,11.472a.371.371,0,0,0-.093.48l1.542,2.6a.393.393,0,0,0,.47.165l1.92-.75a5.673,5.673,0,0,0,1.3.735l.293,1.987A.373.373,0,0,0,8.23,17h3.084a.373.373,0,0,0,.378-.315l.293-1.987a5.966,5.966,0,0,0,1.3-.735l1.92.75a.381.381,0,0,0,.47-.165l1.542-2.6a.371.371,0,0,0-.093-.48Zm-5.729,1.89a2.626,2.626,0,1,1,2.7-2.625A2.666,2.666,0,0,1,9.772,12.125Z" transform="translate(-1.737 -1.5)" fill="none" stroke="#1c3952" stroke-width="1"/>
</svg>
