<svg xmlns="http://www.w3.org/2000/svg" viewBox="0 0 16.732 12.321">
  <defs>
    <style>
      .cls-1 {
        fill: #00c853;
      }

      .cls-2 {
        fill: #3b3b3b;
      }
    </style>
  </defs>
  <g id="com-probabilidade-de-admitir-internado" transform="translate(-167 -3276)">
    <g id="down-arrow" transform="translate(170.657 3276)">
      <g id="Group_3" data-name="Group 3" transform="translate(0 0)">
        <path id="Path_12" data-name="Path 12" class="cls-1" d="M37.513,4.535a.129.129,0,0,0-.115-.1H36.035V2.161A.146.146,0,0,0,35.911,2h-1.99a.146.146,0,0,0-.124.161V4.436H32.428a.129.129,0,0,0-.115.1.2.2,0,0,0,.027.175l2.481,3.215a.106.106,0,0,0,.176,0L37.486,4.71A.2.2,0,0,0,37.513,4.535Z" transform="translate(-32.304 -2)"/>
      </g>
    </g>
    <g id="noun_Hospital_583380" transform="translate(167 3277.637)">
      <g id="Group_4" data-name="Group 4" transform="translate(0 0)">
        <path id="Path_13" data-name="Path 13" class="cls-2" d="M20,40V50.685h2.671V48.013H33.356v2.671h2.671V45.342H22.671V40Z" transform="translate(-20 -40)"/>
      </g>
    </g>
    <path id="Path_39" data-name="Path 39" class="cls-2" d="M-5.186-8.3a2.068,2.068,0,0,0,.076.661q.076.2.227.2t.225-.2A2.116,2.116,0,0,0-4.584-8.3a2.121,2.121,0,0,0-.074-.661q-.074-.2-.225-.2t-.229.207A2.126,2.126,0,0,0-5.186-8.3Zm1.8-.016A2.083,2.083,0,0,1-3.775-6.96,1.372,1.372,0,0,1-4.9-6.48a1.321,1.321,0,0,1-1.086-.5,2.074,2.074,0,0,1-.4-1.341,2.064,2.064,0,0,1,.39-1.349,1.343,1.343,0,0,1,1.1-.472,1.37,1.37,0,0,1,1.108.49A2.008,2.008,0,0,1-3.381-8.317Zm2.9-1.737L-3.707-4.229H-4.891l3.231-5.825ZM-.755-5.982a2.068,2.068,0,0,0,.076.661q.076.2.227.2.171,0,.237-.233A2.416,2.416,0,0,0-.15-5.982a2.416,2.416,0,0,0-.066-.631q-.066-.233-.237-.233-.155,0-.229.207A2.126,2.126,0,0,0-.755-5.982ZM1.05-6a2.068,2.068,0,0,1-.4,1.353,1.373,1.373,0,0,1-1.122.48,1.321,1.321,0,0,1-1.086-.5A2.067,2.067,0,0,1-1.954-6a2.064,2.064,0,0,1,.39-1.349,1.343,1.343,0,0,1,1.1-.472,1.37,1.37,0,0,1,1.108.49A2.008,2.008,0,0,1,1.05-6Z" transform="translate(182.682 3286.138)"/>
  </g>
</svg>
