<svg xmlns="http://www.w3.org/2000/svg" width="15" height="15" viewBox="0 0 15 15">
  <path id="icone-configurar-excecao" d="M15.5,10.235a5.688,5.688,0,0,0,.054-.735,5.688,5.688,0,0,0-.054-.735l1.627-1.238a.371.371,0,0,0,.093-.48l-1.542-2.6a.393.393,0,0,0-.47-.165l-1.92.75a5.673,5.673,0,0,0-1.3-.735L11.7,2.309A.373.373,0,0,0,11.314,2H8.23a.373.373,0,0,0-.378.315L7.559,4.3a5.966,5.966,0,0,0-1.3.735l-1.92-.75a.381.381,0,0,0-.47.165l-1.545,2.6a.363.363,0,0,0,.093.48L4.044,8.765A5.788,5.788,0,0,0,3.99,9.5a5.788,5.788,0,0,0,.054.735L2.417,11.472a.371.371,0,0,0-.093.48l1.542,2.6a.393.393,0,0,0,.47.165l1.92-.75a5.673,5.673,0,0,0,1.3.735l.293,1.987A.373.373,0,0,0,8.23,17h3.084a.373.373,0,0,0,.378-.315l.293-1.987a5.966,5.966,0,0,0,1.3-.735l1.92.75a.381.381,0,0,0,.47-.165l1.542-2.6a.371.371,0,0,0-.093-.48Zm-5.729,1.89a2.626,2.626,0,1,1,2.7-2.625,2.666,2.666,0,0,1-2.7,2.625Z" transform="translate(-2.271 -2)" fill="#3b3b3b"/>
</svg>
