<svg xmlns="http://www.w3.org/2000/svg" width="13" height="15" viewBox="0 0 13 15">
  <g id="icone-copiar-agenda-do-recurso" transform="translate(-273 -513)">
    <path id="ic_content_copy_24px" d="M11.579,1H3.368A1.37,1.37,0,0,0,2,2.364v9.545H3.368V2.364h8.211Zm2.053,2.727H6.105A1.37,1.37,0,0,0,4.737,5.091v9.545A1.37,1.37,0,0,0,6.105,16h7.526A1.37,1.37,0,0,0,15,14.636V5.091a1.37,1.37,0,0,0-1.368-1.364Zm0,10.909H6.105V5.091h7.526Z" transform="translate(271 512)" fill="#3b3b3b"/>
    <rect id="Rectangle_2376" data-name="Rectangle 2376" width="9" height="10" transform="translate(276 517)" fill="#3b3b3b"/>
  </g>
</svg>
