<svg xmlns="http://www.w3.org/2000/svg" width="18.661" height="16.222" viewBox="0 0 18.661 16.222">
  <g id="descarte-de-diluente" transform="translate(-60.006 -444.996)">
    <path id="Path_5720" data-name="Path 5720" d="M4306.633,15997a4.622,4.622,0,0,1-4.275-2.83,4.554,4.554,0,0,1,1-5l6.871-6.824a4.649,4.649,0,0,1,6.542,0,4.568,4.568,0,0,1,1.172,4.52h-1.06a3.577,3.577,0,0,0-1.419-4.285,3.644,3.644,0,0,0-4.522.469l-6.871,6.826a3.57,3.57,0,0,0,0,5.078,3.644,3.644,0,0,0,5.119,0l.875-.871v1.414l-.165.162a4.621,4.621,0,0,1-3.271,1.342Z" transform="translate(-4242 -15536.002)" fill="#004564"/>
    <path id="Path_4366" data-name="Path 4366" d="M12.893,13.27a.468.468,0,0,1-.331-.137l-2.88-2.788a.469.469,0,0,1,.663-.663l2.879,2.787a.469.469,0,0,1-.331.8Z" transform="translate(55.312 440.325)" fill="#1c3952"/>
    <path id="Path_4367" data-name="Path 4367" d="M22.107,5.591a.468.468,0,0,1-.331-.137,1.451,1.451,0,0,0-2.049,0,.469.469,0,1,1-.663-.663,2.389,2.389,0,0,1,3.375,0,.469.469,0,0,1-.331.8Z" transform="translate(50.695 442.826)" fill="#1c3952"/>
    <path id="Path_12" data-name="Path 12" d="M8.7,3.243a.208.208,0,0,0-.2-.127H6.229V.206A.207.207,0,0,0,6.022,0H2.7a.207.207,0,0,0-.208.206v2.91H.209a.208.208,0,0,0-.192.127.2.2,0,0,0,.045.224L4.2,7.58a.209.209,0,0,0,.294,0L8.651,3.467a.2.2,0,0,0,.05-.224Z" transform="translate(70.485 460.706) rotate(-90)" fill="none" stroke="#004564" stroke-width="1"/>
  </g>
</svg>
