<svg xmlns="http://www.w3.org/2000/svg" width="15.199" height="15.199" viewBox="0 0 15.199 15.199">
  <g id="detalhes" transform="translate(-20.9 -20.9)">
    <path id="Path_5453" data-name="Path 5453" d="M28.5,21A7.5,7.5,0,1,0,36,28.5,7.5,7.5,0,0,0,28.5,21Zm0,14.224A6.724,6.724,0,1,1,35.224,28.5,6.724,6.724,0,0,1,28.5,35.224Z" fill="#1c3952" stroke="#1c3952" stroke-width="0.2"/>
    <path id="Path_5454" data-name="Path 5454" d="M47.259,45,47,45.272V49.9l.259.272h1.034l.259-.272V45.272L48.293,45Z" transform="translate(-19.276 -17.793)" fill="#1c3952" stroke="#1c3952" stroke-width="0.2"/>
    <path id="Path_5455" data-name="Path 5455" d="M47.259,35,47,35.259v1.034l.259.259h1.034l.259-.259V35.259L48.293,35Z" transform="translate(-19.276 -10.379)" fill="#1c3952" stroke="#1c3952" stroke-width="0.2"/>
  </g>
</svg>
