<svg xmlns="http://www.w3.org/2000/svg" width="15" height="17.518" viewBox="0 0 15 17.518">
  <g id="Diluição" transform="translate(-52 -298)">
    <g id="Agrupar_6996" data-name="Agrupar 6996" transform="translate(52 294)">
      <g id="Agrupar_6995" data-name="Agrupar 6995">
        <g id="noun_dropper_serum_1596581" data-name="noun_dropper serum_1596581">
          <path id="Caminho_5322" data-name="Caminho 5322" d="M17.875,24.518h11.25A1.875,1.875,0,0,0,31,22.643V16.656a.469.469,0,0,0-.137-.331l-4.081-2.144v-.212h-.062a.469.469,0,0,0,.469-.469V11.688a.938.938,0,0,0-.937-.937h-.875V8.875a1.875,1.875,0,0,0-3.75,0V10.75H20.75a.938.938,0,0,0-.937.938V13.5a.469.469,0,0,0,.469.469h-.062v.212l-4.081,2.144a.469.469,0,0,0-.137.331v5.986A1.875,1.875,0,0,0,17.875,24.518ZM22.563,8.875a.938.938,0,0,1,1.875,0V10.75H22.563ZM20.75,11.688h5.5v1.344h-5.5ZM16.938,16.85l4.081-2.144a.469.469,0,0,0,.137-.331v-.406h4.688v.406a.469.469,0,0,0,.137.331l4.081,2.144v5.792a.938.938,0,0,1-.937.938H17.875a.938.938,0,0,1-.937-.937Z" transform="translate(-16 -3)" fill="#1c3952"/>
          <path id="Caminho_5323" data-name="Caminho 5323" d="M22.513,35.156h9.241a.493.493,0,0,0,.513-.469V31.469A.493.493,0,0,0,31.755,31H29.7v.938h1.54v2.281H23.027V31.938h6.88V31H22.513a.493.493,0,0,0-.513.469v3.219A.493.493,0,0,0,22.513,35.156Z" transform="translate(-19.634 -15.875)" fill="#1c3952"/>
        </g>
      </g>
    </g>
  </g>
</svg>
