<svg xmlns="http://www.w3.org/2000/svg" width="15.003" height="15" viewBox="0 0 15.003 15">
  <g id="ecocardiograma" transform="translate(3084 7673)">
    <g id="ecocardiograma-2" data-name="ecocardiograma" transform="translate(-3084 -7680.803)">
      <path id="Caminho_5604" data-name="Caminho 5604" d="M16.311,14.187a4.273,4.273,0,0,1-.223,1.361c-.693,3.135-6.684,6.927-6.939,7.088a.492.492,0,0,1-.26.075.47.47,0,0,1-.261-.075A33.248,33.248,0,0,1,5.16,20.063a.486.486,0,0,1,.631-.74,33.536,33.536,0,0,0,3.1,2.326c1.8-1.173,5.772-4.158,6.258-6.359a3.469,3.469,0,0,0,.185-1.1,3.432,3.432,0,0,0-1.776-3.005,3.5,3.5,0,0,0-4.3.816.5.5,0,0,1-.75,0,3.5,3.5,0,0,0-4.3-.817,3.43,3.43,0,0,0-1.779,3,3.387,3.387,0,0,0,.173,1.055A3.8,3.8,0,0,0,3,16.2H5.836l.975-2.24a.485.485,0,0,1,.918.082l.717,3.033.928-1.522a.484.484,0,0,1,.415-.233H11.55a.486.486,0,0,1,0,.973H10.061l-1.4,2.3a.485.485,0,0,1-.413.234.5.5,0,0,1-.076-.006.487.487,0,0,1-.4-.367l-.656-2.763L6.6,16.882a.484.484,0,0,1-.446.292L1.8,17.2a.486.486,0,0,1,0-.972l.111-.025a4.224,4.224,0,0,1-.234-.7,4.1,4.1,0,0,1-.209-1.313A4.4,4.4,0,0,1,3.75,10.33a4.5,4.5,0,0,1,5.14.648,4.494,4.494,0,0,1,5.138-.648A4.405,4.405,0,0,1,16.311,14.187Z" transform="translate(-1.308 -1)" fill="#1976d2"/>
    </g>
    <rect id="Retângulo_3937" data-name="Retângulo 3937" width="15" height="15" transform="translate(-3084 -7673)" fill="none"/>
  </g>
</svg>
