<svg xmlns="http://www.w3.org/2000/svg" viewBox="0 0 20 20">
  <defs>
    <style>
      .cls-1 {
        fill: #fff;
      }
    </style>
  </defs>
  <g id="noun_Chain_165034" transform="translate(20 -0.001) rotate(90)">
    <path id="Path_4375" data-name="Path 4375" class="cls-1" d="M18.71,7.52c-4.543,4.543-4.359,4.435-5.044,4.838a5.233,5.233,0,0,0,.057-1.443c.012-.011.024-.021.036-.033l4.156-4.156A3.28,3.28,0,0,0,17.928,2.1l-.013-.013a3.279,3.279,0,0,0-4.64,0L9.119,6.242a3.278,3.278,0,0,0,1.906,5.572,2.48,2.48,0,0,1-.432,1.071A4.405,4.405,0,0,1,8.324,5.447L12.48,1.291a4.4,4.4,0,0,1,6.2-.029l.03.029A4.4,4.4,0,0,1,18.71,7.52Zm-7.033.8A4.371,4.371,0,0,0,9.408,7.116a2.463,2.463,0,0,0-.433,1.071,3.277,3.277,0,0,1,1.906,5.572L6.726,17.915a3.281,3.281,0,0,1-4.64-4.64L6.242,9.119c.011-.011.023-.02.033-.03a6.157,6.157,0,0,1,.058-1.445c-.687.4-.507.3-5.042,4.836A4.4,4.4,0,0,0,7.52,18.71l4.156-4.156A4.41,4.41,0,0,0,11.676,8.325Z"/>
  </g>
</svg>
