<svg xmlns="http://www.w3.org/2000/svg" width="15" height="15" viewBox="0 0 15 15">
  <g id="elegibilidade" transform="translate(14.999 0) rotate(90)">
    <path id="Path_4375" data-name="Path 4375" d="M14.032,5.639c-3.407,3.407-3.269,3.326-3.783,3.628a3.925,3.925,0,0,0,.043-1.082l.027-.025,3.117-3.117a2.46,2.46,0,0,0,.01-3.469l-.01-.01a2.459,2.459,0,0,0-3.48,0L6.839,4.681A2.458,2.458,0,0,0,8.268,8.86a1.86,1.86,0,0,1-.324.8,3.3,3.3,0,0,1-1.7-5.578L9.359.968a3.3,3.3,0,0,1,4.65-.022l.022.022a3.3,3.3,0,0,1,0,4.671Zm-5.274.6a3.278,3.278,0,0,0-1.7-.9,1.847,1.847,0,0,0-.325.8A2.458,2.458,0,0,1,8.16,10.318L5.044,13.435a2.461,2.461,0,1,1-3.48-3.48L4.681,6.839l.025-.022A4.617,4.617,0,0,1,4.75,5.732c-.515.3-.38.225-3.781,3.627A3.3,3.3,0,1,0,5.64,14.031l3.117-3.117a3.307,3.307,0,0,0,0-4.671Z" transform="translate(0 0)" fill="#3b3b3b"/>
  </g>
</svg>
