<svg xmlns="http://www.w3.org/2000/svg" viewBox="0 0 18.285 18.285">
  <defs>
    <style>
      .cls-1 {
        fill: #fbc02d;
      }
    </style>
  </defs>
  <g id="em-descontaminacao" transform="translate(-2.148 -1.75)">
    <g id="Group_140" data-name="Group 140" transform="translate(2.148 1.75)">
      <path id="Path_3821" data-name="Path 3821" class="cls-1" d="M11.291,1.75a9.142,9.142,0,1,0,9.142,9.142A9.143,9.143,0,0,0,11.291,1.75Zm4.472,15.685-2.908-5.043a2.161,2.161,0,0,1-3.109.023L6.907,17.5a7.928,7.928,0,0,1-3.515-6H9.216a2.143,2.143,0,0,1-.1-.606,2.171,2.171,0,0,1,1.659-2.1L7.871,3.748A7.833,7.833,0,0,1,14.615,3.7L11.778,8.78a2.172,2.172,0,0,1,1.685,2.112,2.142,2.142,0,0,1-.1.606h5.824A7.928,7.928,0,0,1,15.763,17.435Zm0,0" transform="translate(-2.148 -1.75)"/>
      <path id="Path_3822" data-name="Path 3822" class="cls-1" d="M34.025,32.414a1.213,1.213,0,0,0-1.212,1.212,1.2,1.2,0,0,0,.168.606h.011l-.005.01a1.21,1.21,0,1,0,1.038-1.828Zm0,0" transform="translate(-24.882 -24.484)"/>
    </g>
  </g>
</svg>
