<svg xmlns="http://www.w3.org/2000/svg" viewBox="0 0 16.297 16.294">
  <defs>
    <style>
      .cls-1 {
        fill: #3b3b3b;
      }
    </style>
  </defs>
  <g id="em-manutencao" transform="translate(-1.996 -2)">
    <g id="Group_123" data-name="Group 123" transform="translate(1.996 2)">
      <g id="Group_121" data-name="Group 121" transform="translate(0.002 9.736)">
        <path id="Path_3819" data-name="Path 3819" class="cls-1" d="M7.728,30.85a.341.341,0,0,0-.3-.17H4.038a.341.341,0,0,0-.3.17l-1.7,2.94a.354.354,0,0,0,0,.339l1.7,2.94a.341.341,0,0,0,.3.17H7.432a.341.341,0,0,0,.3-.17l1.7-2.94a.354.354,0,0,0,0-.339ZM5.735,35.836a1.876,1.876,0,1,1,1.877-1.877A1.876,1.876,0,0,1,5.735,35.836Z" transform="translate(-2.002 -30.68)"/>
      </g>
      <g id="Group_122" data-name="Group 122" transform="translate(0 0)">
        <path id="Path_3820" data-name="Path 3820" class="cls-1" d="M17.293,12.466a3.4,3.4,0,0,0-3.24-.9L8.722,6.237A3.408,3.408,0,0,0,5.416,2a3.576,3.576,0,0,0-.76.085.342.342,0,0,0-.166.574L5.555,3.724a1.295,1.295,0,0,1,0,1.833,1.327,1.327,0,0,1-1.836,0L2.652,4.5a.335.335,0,0,0-.333-.088.342.342,0,0,0-.238.251A3.4,3.4,0,0,0,5.416,8.823a3.461,3.461,0,0,0,.814-.106l5.346,5.346a3.451,3.451,0,0,0,.87,3.219,3.424,3.424,0,0,0,3.188.927.34.34,0,0,0,.166-.57l-1.063-1.063a1.3,1.3,0,0,1,0-1.84,1.33,1.33,0,0,1,1.836,0L17.636,15.8a.335.335,0,0,0,.333.088.347.347,0,0,0,.238-.255A3.389,3.389,0,0,0,17.293,12.466Z" transform="translate(-1.996 -2)"/>
      </g>
    </g>
  </g>
</svg>
