<svg xmlns="http://www.w3.org/2000/svg" width="15" height="15" viewBox="0 0 15 15">
  <g id="endoscopia" transform="translate(3084 7619)">
    <g id="endoscopia-2" data-name="endoscopia" transform="translate(-4942 -498)">
      <g id="endoscopia-3" data-name="endoscopia" transform="translate(1857.983 -7202.2)">
        <g id="Caminho_5701" data-name="Caminho 5701" transform="translate(0.017)" fill="none" stroke-linejoin="round">
          <path d="M15,85.991V92.23a.628.628,0,0,1-.94.544l-2.6-1.5V91.7a2.326,2.326,0,0,1-2.325,2.325H2.325A2.326,2.326,0,0,1,0,91.7V86.525A2.326,2.326,0,0,1,2.325,84.2H9.139a2.326,2.326,0,0,1,2.325,2.325v.427l2.6-1.5A.622.622,0,0,1,15,85.991Z" stroke="none"/>
          <path d="M 2.325409889221191 85 C 1.484299659729004 85 0.8000001907348633 85.68430328369141 0.8000001907348633 86.52542114257813 L 0.8000001907348633 91.7015380859375 C 0.8000001907348633 92.54265594482422 1.484299659729004 93.22695922851563 2.325409889221191 93.22695922851563 L 9.135780334472656 93.22695922851563 C 9.976890563964844 93.22695922851563 10.66119003295898 92.54265594482422 10.66119003295898 91.7015380859375 L 10.66119003295898 91.27455139160156 C 10.66119003295898 90.98879241943359 10.8136100769043 90.7247314453125 11.06105995178223 90.58180999755859 C 11.18485546112061 90.51029968261719 11.32301330566406 90.47454833984375 11.46119213104248 90.47454833984375 C 11.59920310974121 90.47454833984375 11.73723602294922 90.51023101806641 11.86091995239258 90.58158111572266 L 14.19999980926514 91.93084716796875 L 14.19999980926514 86.29788970947266 L 11.86398983001709 87.64537811279297 C 11.74028587341309 87.71674346923828 11.60228443145752 87.75241088867188 11.46425819396973 87.75241088867188 C 11.32609748840332 87.75241088867188 11.18791007995605 87.71665191650391 11.06412982940674 87.64514923095703 C 10.81667995452881 87.50222778320313 10.6642599105835 87.23816680908203 10.6642599105835 86.95240783691406 L 10.6642599105835 86.52542114257813 C 10.6642599105835 85.68430328369141 9.979959487915039 85 9.138850212097168 85 L 2.325409889221191 85 M 2.325409889221191 84.19999694824219 L 9.138850212097168 84.19999694824219 C 10.42290019989014 84.19999694824219 11.46426010131836 85.24135589599609 11.46426010131836 86.52542114257813 L 11.46426010131836 86.95240783691406 L 14.06307983398438 85.45332336425781 C 14.16412258148193 85.39344787597656 14.27160358428955 85.36620330810547 14.37630367279053 85.36620330810547 C 14.70131301879883 85.36620330810547 15 85.62846374511719 15 85.99091339111328 L 15 92.22989654541016 C 15 92.59600067138672 14.69903469085693 92.85768890380859 14.37130928039551 92.85768890380859 C 14.26730251312256 92.85768890380859 14.16064548492432 92.83135986328125 14.0600004196167 92.77363586425781 L 11.46119022369385 91.27455139160156 L 11.46119022369385 91.7015380859375 C 11.46119022369385 92.98560333251953 10.41981983184814 94.02696228027344 9.135780334472656 94.02696228027344 L 2.325409889221191 94.02696228027344 C 1.041370391845703 94.02696228027344 0 92.98560333251953 0 91.7015380859375 L 0 86.52542114257813 C 0 85.24135589599609 1.041370391845703 84.19999694824219 2.325409889221191 84.19999694824219 Z" stroke="none" fill="#1976d2"/>
        </g>
      </g>
      <line id="Linha_1164" data-name="Linha 1164" x2="2" transform="translate(1861 -7111)" fill="none" stroke="#1976d2" stroke-linecap="round" stroke-width="0.8"/>
      <path id="Caminho_5984" data-name="Caminho 5984" d="M445.825,163.142a.482.482,0,1,0,.142.342A.486.486,0,0,0,445.825,163.142Z" transform="translate(1415.5 -7279.5)" fill="#1976d2"/>
    </g>
    <rect id="Retângulo_3939" data-name="Retângulo 3939" width="15" height="15" transform="translate(-3084 -7619)" fill="none"/>
  </g>
</svg>
