<svg xmlns="http://www.w3.org/2000/svg" width="15" height="15" viewBox="0 0 15 15">
  <g id="Engenharia" transform="translate(-2.271 -2)" fill="none">
    <path d="M15.5,10.235a5.688,5.688,0,0,0,.054-.735,5.688,5.688,0,0,0-.054-.735l1.627-1.238a.371.371,0,0,0,.093-.48l-1.542-2.6a.393.393,0,0,0-.47-.165l-1.92.75a5.673,5.673,0,0,0-1.3-.735l-.293-1.988A.373.373,0,0,0,11.314,2H8.23a.373.373,0,0,0-.378.315L7.559,4.3a5.966,5.966,0,0,0-1.3.735l-1.92-.75a.381.381,0,0,0-.47.165L2.324,7.048a.363.363,0,0,0,.093.48L4.044,8.765A5.788,5.788,0,0,0,3.99,9.5a5.788,5.788,0,0,0,.054.735L2.417,11.472a.371.371,0,0,0-.093.48l1.542,2.6a.393.393,0,0,0,.47.165l1.92-.75a5.673,5.673,0,0,0,1.3.735l.293,1.987A.373.373,0,0,0,8.23,17h3.084a.373.373,0,0,0,.378-.315l.293-1.987a5.966,5.966,0,0,0,1.3-.735l1.92.75a.381.381,0,0,0,.47-.165l1.542-2.6a.371.371,0,0,0-.093-.48Zm-5.729,1.89a2.626,2.626,0,1,1,2.7-2.625A2.666,2.666,0,0,1,9.772,12.125Z" stroke="none"/>
    <path d="M 10.78243637084961 16 L 10.99594593048096 14.55165958404541 L 11.07994556427002 13.9818696975708 L 11.61494541168213 13.76858997344971 C 11.97462558746338 13.62520027160645 12.32920551300049 13.4243803024292 12.69894599914551 13.15462970733643 L 13.14170551300049 12.83162975311279 L 13.65218544006348 13.03104972839355 L 15.08404350280762 13.5904016494751 L 16.07293319702148 11.92630577087402 L 14.89578533172607 11.03090953826904 L 14.43567562103271 10.68093013763428 L 14.50935554504395 10.1075496673584 C 14.54146575927734 9.857640266418457 14.55516529083252 9.675939559936523 14.55516529083252 9.5 C 14.55516529083252 9.324060440063477 14.54146575927734 9.142359733581543 14.50935554504395 8.892450332641602 L 14.43567562103271 8.319069862365723 L 14.89578533172607 7.969089984893799 L 16.07293510437012 7.0736985206604 L 15.08404350280762 5.409598827362061 L 13.65218544006348 5.968949794769287 L 13.13434600830078 6.171239852905273 L 12.68921566009521 5.838180065155029 C 12.34562587738037 5.581089973449707 11.99422550201416 5.382609844207764 11.61494541168213 5.231410026550293 L 11.07994556427002 5.018129825592041 L 10.99594593048096 4.448339939117432 L 10.78243637084961 3 L 8.762312889099121 3 L 8.548795700073242 4.448349952697754 L 8.464795112609863 5.018129825592041 L 7.929795742034912 5.231410026550293 C 7.570115566253662 5.374800205230713 7.215535640716553 5.575620174407959 6.845795631408691 5.845369815826416 L 6.403035640716553 6.168369770050049 L 5.892555713653564 5.968949794769287 L 4.460698127746582 5.409598827362061 L 3.471808433532715 7.073694229125977 L 4.648955821990967 7.969089984893799 L 5.109065532684326 8.319069862365723 L 5.035385608673096 8.892450332641602 C 5.004135608673096 9.135700225830078 4.989575386047363 9.328749656677246 4.989575386047363 9.5 C 4.989575386047363 9.671250343322754 5.004135608673096 9.864299774169922 5.035385608673096 10.1075496673584 L 5.109065532684326 10.68093013763428 L 4.648955821990967 11.03090953826904 L 3.47180962562561 11.92630767822266 L 4.460698127746582 13.5904016494751 L 5.892555713653564 13.03104972839355 L 6.410395622253418 12.82876014709473 L 6.855525493621826 13.16182041168213 C 7.199115753173828 13.41891002655029 7.550515651702881 13.61738967895508 7.929795742034912 13.76858997344971 L 8.464795112609863 13.9818696975708 L 8.548795700073242 14.55165004730225 L 8.762312889099121 16 L 10.78243637084961 16 M 9.77237606048584 5.875 C 11.81180572509766 5.875 13.4710054397583 7.50117015838623 13.4710054397583 9.5 C 13.4710054397583 11.49882984161377 11.81180572509766 13.125 9.77237606048584 13.125 C 7.732935428619385 13.125 6.07373571395874 11.49882984161377 6.07373571395874 9.5 C 6.07373571395874 7.50117015838623 7.732935428619385 5.875 9.77237606048584 5.875 M 11.31445598602295 17 L 8.230295181274414 17 C 8.037535667419434 17 7.87561559677124 16.86499977111816 7.852485656738281 16.68499946594238 L 7.55948543548584 14.69750022888184 C 7.089155673980713 14.51000022888184 6.657365798950195 14.26249980926514 6.256425380706787 13.96249961853027 L 4.336535453796387 14.71249961853027 C 4.293437004089355 14.72774505615234 4.247878074645996 14.73523998260498 4.202329635620117 14.73523998260498 C 4.068615913391113 14.73523998260498 3.935217142105103 14.67057514190674 3.86620569229126 14.54749965667725 L 2.324125528335571 11.95250034332275 C 2.231605529785156 11.78750038146973 2.270155668258667 11.58500003814697 2.416655540466309 11.47249984741211 L 4.043545722961426 10.23499965667725 C 4.01270580291748 9.994999885559082 3.989575624465942 9.747500419616699 3.989575624465942 9.5 C 3.989575624465942 9.252499580383301 4.01270580291748 9.005000114440918 4.043545722961426 8.765000343322754 L 2.416645526885986 7.527500152587891 C 2.270155668258667 7.414999961853027 2.22389554977417 7.212500095367432 2.324125528335571 7.047500133514404 L 3.86620569229126 4.452499866485596 C 3.934731483459473 4.330290794372559 4.062475204467773 4.261568546295166 4.19618034362793 4.261568546295166 C 4.242996215820313 4.261568546295166 4.290544509887695 4.269994735717773 4.336535453796387 4.287499904632568 L 6.256425380706787 5.037499904632568 C 6.657365798950195 4.744999885559082 7.089155673980713 4.489999771118164 7.55948543548584 4.302499771118164 L 7.852485656738281 2.315000057220459 C 7.87561559677124 2.134999990463257 8.037535667419434 2 8.23028564453125 2 L 11.31445598602295 2 C 11.50721549987793 2 11.6691255569458 2.134999990463257 11.69226551055908 2.315000057220459 L 11.98525524139404 4.302499771118164 C 12.45558547973633 4.489999771118164 12.887375831604 4.737500190734863 13.28831577301025 5.037499904632568 L 15.2082052230835 4.287499904632568 C 15.25130653381348 4.272254467010498 15.29686641693115 4.26476001739502 15.34241580963135 4.26476001739502 C 15.47613048553467 4.26476001739502 15.60952377319336 4.329424858093262 15.67853546142578 4.452499866485596 L 17.22061538696289 7.047500133514404 C 17.31313514709473 7.212500095367432 17.27458572387695 7.414999961853027 17.12809562683105 7.527500152587891 L 15.50119590759277 8.765000343322754 C 15.53203582763672 9.005000114440918 15.55516529083252 9.244999885559082 15.55516529083252 9.5 C 15.55516529083252 9.755000114440918 15.53203582763672 9.994999885559082 15.50119590759277 10.23499965667725 L 17.12809562683105 11.47249984741211 C 17.27458572387695 11.58500003814697 17.31314468383789 11.78750038146973 17.22061538696289 11.95250034332275 L 15.67853546142578 14.54749965667725 C 15.61000919342041 14.66970920562744 15.48226642608643 14.73843193054199 15.34856128692627 14.73843097686768 C 15.30174541473389 14.73843097686768 15.2541971206665 14.73000526428223 15.2082052230835 14.71249961853027 L 13.28831577301025 13.96249961853027 C 12.887375831604 14.25500011444092 12.45558547973633 14.51000022888184 11.98525524139404 14.69750022888184 L 11.69226551055908 16.68499946594238 C 11.6691255569458 16.86499977111816 11.50721549987793 17 11.31445598602295 17 Z M 9.77237606048584 6.875 C 8.284265518188477 6.875 7.07373571395874 8.052499771118164 7.07373571395874 9.5 C 7.07373571395874 10.94750022888184 8.284265518188477 12.125 9.77237606048584 12.125 C 11.26047515869141 12.125 12.4710054397583 10.94750022888184 12.4710054397583 9.5 C 12.4710054397583 8.052499771118164 11.26047515869141 6.875 9.77237606048584 6.875 Z" stroke="none" fill="#1b3851"/>
  </g>
</svg>
