<svg xmlns="http://www.w3.org/2000/svg" viewBox="0 0 20 16.426">
  <defs>
    <style>
      .cls-1 {
        fill: #fff;
      }
    </style>
  </defs>
  <g id="Group_5487" data-name="Group 5487" transform="translate(-621.199 -4194.6)">
    <path id="Path_1506" data-name="Path 1506" class="cls-1" d="M638.134,4211.025H623.249a1.991,1.991,0,0,1-2.049-2.049v-12.328a1.991,1.991,0,0,1,2.049-2.049h12.836a1.991,1.991,0,0,1,2.049,2.049v1.541a.508.508,0,1,1-1.016,0v-1.541a.863.863,0,0,0-.492-.885,1.355,1.355,0,0,0-.541-.131H623.249a.863.863,0,0,0-.885.492,1.356,1.356,0,0,0-.131.541v12.328h0a1.274,1.274,0,0,0,.148.557.88.88,0,0,0,.869.459h14.885a1.276,1.276,0,0,0,.557-.147.88.88,0,0,0,.459-.869v-2.574a.508.508,0,1,1,1.016,0v2.574A1.976,1.976,0,0,1,638.134,4211.025Z" transform="translate(0)"/>
    <path id="Path_1507" data-name="Path 1507" class="cls-1" d="M639.675,4211.263a.51.51,0,0,1-.508-.508v-3.082a.864.864,0,0,0-.492-.885,1.359,1.359,0,0,0-.541-.131H623.249a1.991,1.991,0,0,1-2.049-2.049.508.508,0,1,1,1.016,0,.863.863,0,0,0,.492.885,1.354,1.354,0,0,0,.541.131h14.885a1.99,1.99,0,0,1,2.049,2.049v3.082A.51.51,0,0,1,639.675,4211.263Z" transform="translate(0 -7.943)"/>
    <path id="Path_1508" data-name="Path 1508" class="cls-1" d="M708.664,4246.207h-5.656a.511.511,0,0,1-.508-.508v-3.59a.511.511,0,0,1,.508-.508h5.656a.511.511,0,0,1,.508.508v3.59A.491.491,0,0,1,708.664,4246.207Zm-5.131-1.016h4.623v-2.574h-4.623Z" transform="translate(-67.973 -39.296)"/>
  </g>
</svg>
