<svg xmlns="http://www.w3.org/2000/svg" width="15.15" height="15" viewBox="0 0 15.15 15">
  <g id="fisioterapia" transform="translate(3084.075 7564)">
    <g id="fisioterapia-2" data-name="fisioterapia" transform="translate(-3083.51 -7561)">
      <path id="Caminho_5584" data-name="Caminho 5584" d="M10.4,7.034V9.677a.571.571,0,0,0,.49.623h1.078a1.711,1.711,0,0,0,1.448-1.88V8.227h.121A1.7,1.7,0,0,0,15,6.361V3.732a1.752,1.752,0,0,0-1.459-1.911h-.132A1.681,1.681,0,0,0,11.972,0H10.893a.571.571,0,0,0-.49.623V3.265H4.549V.623A.728.728,0,0,0,4.412.181.423.423,0,0,0,4.076,0H3A1.682,1.682,0,0,0,1.561,1.821H1.429C.636,1.821,0,2.692,0,3.732V6.361A2.189,2.189,0,0,0,.418,7.685a1.271,1.271,0,0,0,1.011.542H1.58v.192a2.2,2.2,0,0,0,.41,1.328A1.277,1.277,0,0,0,3,10.3H4.076a.422.422,0,0,0,.336-.182.728.728,0,0,0,.137-.441V7.034Zm3.639-3.3V6.361a.565.565,0,0,1-.5.61H12.462V3.077h1.079a.613.613,0,0,1,.5.655ZM11.361,1.256h.611a.572.572,0,0,1,.49.624V8.419a.572.572,0,0,1-.49.624h-.611ZM1.429,6.971A.41.41,0,0,1,1.095,6.8a.71.71,0,0,1-.137-.436V3.732c0-.347.207-.655.471-.655H2.538V7.034ZM3.592,9.043H3a.417.417,0,0,1-.331-.184.718.718,0,0,1-.129-.44V1.88a.718.718,0,0,1,.129-.44A.417.417,0,0,1,3,1.256h.594Zm7.769-4.522V5.778H3.592V4.521Z" transform="translate(-0.49 -0.933)" fill="#1976d2" stroke="#fff" stroke-width="0.15"/>
    </g>
    <rect id="Retângulo_3941" data-name="Retângulo 3941" width="15" height="15" transform="translate(-3084 -7564)" fill="none"/>
  </g>
</svg>
