<svg xmlns="http://www.w3.org/2000/svg" viewBox="0 0 19.918 15.5">
  <defs>
    <style>
      .cls-1 {
        fill: #3caad5;
        stroke: #3caad5;
        stroke-width: 0.5px;
      }
    </style>
  </defs>
  <path id="Path_4266" data-name="Path 4266" class="cls-1" d="M19.093,15.391H17.758V13.722a.787.787,0,0,0-.255-.609.861.861,0,0,0-.609-.255H7c-.02,0-.039,0-.039-.02L5.84,11.9a.938.938,0,0,0-.55-.2H1.344a.8.8,0,0,0-.589.236,1.037,1.037,0,0,0-.255.648V25.856a.838.838,0,0,0,.844.844H16.992a.84.84,0,0,0,.825-.668l2.081-9.6a.544.544,0,0,0,.02-.177A.826.826,0,0,0,19.093,15.391ZM1.285,22.813V12.584c0-.02,0-.039.02-.039a.069.069,0,0,1,.039-.02H5.31c.02,0,.039,0,.039.02l1.119.942a.938.938,0,0,0,.55.2h9.9c.02,0,.039,0,.039.02.02.02.02.02.02.039v1.669H3.563a.861.861,0,0,0-.825.668Zm15.766,3.063a.063.063,0,0,1-.059.059H1.423l2.062-9.679a.063.063,0,0,1,.059-.059h15.53c.039,0,.059.02.059.079Z" transform="translate(-0.25 -11.449)"/>
</svg>
