<svg xmlns="http://www.w3.org/2000/svg" xmlns:xlink="http://www.w3.org/1999/xlink" viewBox="0 0 15.639 12.932">
  <defs>
    <style>
      .cls-1, .cls-3, .cls-4 {
        fill: none;
      }

      .cls-2 {
        clip-path: url(#clip-path);
      }

      .cls-3, .cls-4 {
        stroke: #1c3952;
      }

      .cls-3 {
        stroke-width: 1.15px;
      }
    </style>
    <clipPath id="clip-path">
      <path id="ic_folder_24px" class="cls-1" d="M.765,5.767V7.29H7.193L8.91,8.41l5.953.63.009,9.655H16.4V5.785Z" transform="translate(-0.765 -5.767)"/>
    </clipPath>
  </defs>
  <g id="fusao" transform="translate(-8433.412 -112.397)">
    <g id="Mask_Group_280" data-name="Mask Group 280" class="cls-2" transform="translate(8433.412 112.397)">
      <path id="ic_folder_24px-2" data-name="ic_folder_24px" class="cls-3" d="M6.824,4H3.209a1.191,1.191,0,0,0-1.2,1.179l10.84,8.255a1.2,1.2,0,0,0,1.205-1.179v-5.9A1.2,1.2,0,0,0,12.85,5.179H8.03Z" transform="translate(1.01 -3.409)"/>
    </g>
    <path id="ic_folder_24px-3" data-name="ic_folder_24px" class="cls-3" d="M6.829,4H3.207a1.193,1.193,0,0,0-1.2,1.181L2,12.269a1.2,1.2,0,0,0,1.207,1.181h9.657a1.2,1.2,0,0,0,1.207-1.181V6.363a1.2,1.2,0,0,0-1.207-1.181H8.036Z" transform="translate(8431.989 111.303)"/>
    <line id="Line_1" data-name="Line 1" class="cls-4" x2="3.692" transform="translate(8440.419 121.117)"/>
    <line id="Line_2" data-name="Line 2" class="cls-4" x2="3.692" transform="translate(8440.419 121.117)"/>
    <line id="Line_3" data-name="Line 3" class="cls-4" x2="3.69" transform="translate(8442.265 119.27) rotate(90)"/>
  </g>
</svg>
