<svg xmlns="http://www.w3.org/2000/svg" width="15" height="10.5" viewBox="0 0 15 10.5">
  <path id="gerenciar-assistentes" d="M12.875,10.25A1.875,1.875,0,1,0,11,8.375,1.869,1.869,0,0,0,12.875,10.25ZM7.25,9.5A2.25,2.25,0,1,0,5,7.25,2.241,2.241,0,0,0,7.25,9.5Zm5.625,2.25c-1.372,0-4.125.69-4.125,2.063V15.5H17V13.813C17,12.44,14.247,11.75,12.875,11.75ZM7.25,11C5.5,11,2,11.878,2,13.625V15.5H7.25V13.813a2.956,2.956,0,0,1,1.777-2.6A9.212,9.212,0,0,0,7.25,11Z" transform="translate(-2 -5)" fill="#3b3b3b"/>
</svg>
