<svg xmlns="http://www.w3.org/2000/svg" viewBox="0 0 19.975 13.075">
  <defs>
    <style>
      .cls-1 {
        fill: none;
        stroke: #d50000;
      }
    </style>
  </defs>
  <path id="ic_group_24px" class="cls-1" d="M13.938,10.175A2.588,2.588,0,1,0,11.35,7.588,2.577,2.577,0,0,0,13.938,10.175Zm-6.9,0A2.588,2.588,0,1,0,4.45,7.588,2.577,2.577,0,0,0,7.038,10.175Zm0,1.725C5.028,11.9,1,12.909,1,14.919v2.156H13.075V14.919C13.075,12.909,9.047,11.9,7.038,11.9Zm6.9,0c-.25,0-.535.017-.837.043a3.64,3.64,0,0,1,1.7,2.976v2.156h5.175V14.919C19.975,12.909,15.947,11.9,13.938,11.9Z" transform="translate(-0.5 -4.5)"/>
</svg>
