<svg xmlns="http://www.w3.org/2000/svg" viewBox="0 0 27.529 21.607">
  <defs>
    <style>
      .cls-1 {
        fill: none;
        stroke: #fff;
      }
    </style>
  </defs>
  <path id="ic_import_contacts_24px" class="cls-1" d="M25.118,5.1A14.235,14.235,0,0,0,20.9,4.5a11.215,11.215,0,0,0-6.632,1.809A11.215,11.215,0,0,0,7.632,4.5,11.215,11.215,0,0,0,1,6.309V23.975a.648.648,0,0,0,.6.6c.121,0,.181-.06.3-.06a14.718,14.718,0,0,1,5.728-1.326A11.215,11.215,0,0,1,14.265,25,14.525,14.525,0,0,1,20.9,23.191a12.274,12.274,0,0,1,5.728,1.266.544.544,0,0,0,.3.06.648.648,0,0,0,.6-.6V6.309A8.225,8.225,0,0,0,25.118,5.1Zm0,16.279a14.013,14.013,0,0,0-4.221-.6,14.525,14.525,0,0,0-6.632,1.809V8.721A14.525,14.525,0,0,1,20.9,6.912a14.013,14.013,0,0,1,4.221.6Z" transform="translate(-0.5 -4)"/>
</svg>
