<svg xmlns="http://www.w3.org/2000/svg" viewBox="0 0 20.199 15.649">
  <defs>
    <style>
      .cls-1 {
        fill: #fff;
        stroke: #fff;
        stroke-width: 0.2px;
      }
    </style>
  </defs>
  <g id="noun_1792106_cc" transform="translate(-0.4 -11.6)">
    <path id="Path_4266" data-name="Path 4266" class="cls-1" d="M19.65,15.5H18.275V13.783a.811.811,0,0,0-.263-.627.887.887,0,0,0-.627-.263H7.193c-.02,0-.04,0-.04-.02L6,11.9a.966.966,0,0,0-.566-.2H1.37a.823.823,0,0,0-.607.243A1.068,1.068,0,0,0,.5,12.61V26.28a.863.863,0,0,0,.87.87H17.486a.866.866,0,0,0,.849-.688l2.143-9.888a.56.56,0,0,0,.02-.182A.851.851,0,0,0,19.65,15.5ZM1.309,23.145V12.61c0-.02,0-.04.02-.04a.071.071,0,0,1,.04-.02H5.454c.02,0,.04,0,.04.02l1.153.971a.966.966,0,0,0,.566.2H17.405c.02,0,.04,0,.04.02.02.02.02.02.02.04v1.719H3.655a.887.887,0,0,0-.849.688ZM17.547,26.3a.065.065,0,0,1-.061.061H1.45l2.123-9.969a.065.065,0,0,1,.061-.061h16c.04,0,.061.02.061.081Z" transform="translate(0 0)"/>
  </g>
</svg>
