<svg xmlns="http://www.w3.org/2000/svg" viewBox="0 0 25.017 29.82">
  <defs>
    <style>
      .cls-1 {
        fill: none;
        stroke: #fff;
      }
    </style>
  </defs>
  <path id="ic_contacts_24px" class="cls-1" d="M23.615,0H4.4V2.4H23.615ZM4.4,28.82H23.615v-2.4H4.4ZM23.615,4.8H4.4A2.409,2.409,0,0,0,2,7.205v14.41a2.409,2.409,0,0,0,2.4,2.4H23.615a2.409,2.409,0,0,0,2.4-2.4V7.205A2.409,2.409,0,0,0,23.615,4.8Zm-9.607,3.3a2.7,2.7,0,1,1-2.7,2.7A2.706,2.706,0,0,1,14.008,8.106Zm6,12.309H8v-1.8c0-2.005,4-3,6-3s6,1,6,3Z" transform="translate(-1.5 0.5)"/>
</svg>
