<svg xmlns="http://www.w3.org/2000/svg" width="15" height="15" viewBox="0 0 15 15"><defs><style>.a{fill:none;stroke:#fff;}.b{fill:#fff;}</style></defs><g transform="translate(-17.121 -17.119)"><g transform="translate(17.62 17.62)"><path class="a" d="M24.62,31.62a7,7,0,1,1,7-7A7.005,7.005,0,0,1,24.62,31.62Z" transform="translate(-17.62 -17.62)"/><path class="b" d="M47.952,61.241a.674.674,0,0,1-.483-.193.708.708,0,0,1-.169-.459.659.659,0,0,1,.193-.459.671.671,0,0,1,.917,0,.659.659,0,0,1,.193.459.618.618,0,0,1-.193.459A.571.571,0,0,1,47.952,61.241Z" transform="translate(-40.952 -50.548)"/><path class="b" d="M47.952,38.66a.6.6,0,0,1-.652-.545V35.245a.662.662,0,0,1,1.3,0v2.869A.6.6,0,0,1,47.952,38.66Z" transform="translate(-40.952 -31.393)"/></g></g></svg>