<svg xmlns="http://www.w3.org/2000/svg" width="16" height="16" viewBox="0 0 16 16">
  <g id="icone-inativar-bloqueio" transform="translate(-1.4 -2.7)">
    <path id="Path_4613" data-name="Path 4613" d="M9.4,3.2a7.5,7.5,0,1,0,7.5,7.5A7.5,7.5,0,0,0,9.4,3.2ZM2.832,10.7A6.573,6.573,0,0,1,9.4,4.132a6.48,6.48,0,0,1,4.295,1.611L4.442,14.995A6.561,6.561,0,0,1,2.832,10.7ZM9.4,17.253a6.48,6.48,0,0,1-4.295-1.611l9.253-9.253A6.558,6.558,0,0,1,9.4,17.253Z" fill="#3b3b3b" stroke="#3b3b3b" stroke-width="1"/>
  </g>
</svg>
