<svg xmlns="http://www.w3.org/2000/svg" width="14.9" height="15.001" viewBox="0 0 14.9 15.001">
  <g id="icone-intervalo" transform="translate(-2102.007 13256)">
    <path id="ic_alarm_24px" d="M16.9,4.735,13.47,1.86,12.509,3l3.426,2.875ZM6.38,3,5.426,1.86,2,4.728l.961,1.14Z" transform="translate(2100.007 -13257.86)" fill="#3b3b3b"/>
    <path id="visualizar-historico-1" d="M7.618,1a6.618,6.618,0,1,0,6.618,6.618A6.618,6.618,0,0,0,7.618,1ZM8.09,7.618a.473.473,0,0,1-.473.473H3.836a.473.473,0,1,1,0-.945H7.145V3.836a.473.473,0,1,1,.945,0Z" transform="translate(2101.895 -13255.235)" fill="#3b3b3b"/>
  </g>
</svg>
