<svg xmlns="http://www.w3.org/2000/svg" viewBox="0 0 17.57 18.593">
  <defs>
    <style>
      .cls-1 {
        fill: #ff1744;
      }

      .cls-2, .cls-5 {
        fill: #fff;
      }

      .cls-3 {
        fill: #3b3b3b;
      }

      .cls-4, .cls-5 {
        stroke: none;
      }
    </style>
  </defs>
  <g id="itens-com-status-a-confirmar" transform="translate(-193.43 -7201.407)">
    <g id="Group_214" data-name="Group 214" transform="translate(28)">
      <g id="Group_176" data-name="Group 176" transform="translate(1 841)">
        <rect id="Rectangle_16" data-name="Rectangle 16" class="cls-1" width="14" height="14" transform="translate(168 6365)"/>
      </g>
      <path id="Path_3842" data-name="Path 3842" class="cls-2" d="M3.91-6.815a3.347,3.347,0,0,1-.988,2.587,3.985,3.985,0,0,1-2.806.913H-.643V0h-2.7V-9.994H.116a4.228,4.228,0,0,1,2.844.827A2.95,2.95,0,0,1,3.91-6.815Zm-4.553,1.3H-.15a1.345,1.345,0,0,0,.967-.342A1.241,1.241,0,0,0,1.176-6.8q0-1.012-1.121-1.012h-.7Z" transform="translate(176.5 7218)"/>
    </g>
    <g id="noun_Medical_Report_1067184" data-name="noun_Medical Report_1067184" transform="translate(192.18 7198.212) rotate(7)">
      <g id="Path_3859" data-name="Path 3859" class="cls-3">
        <path class="cls-4" d="M 5.177971363067627 19.0026741027832 C 5.177944660186768 19.0026741027832 5.177935123443604 19.0026741027832 5.177908420562744 19.0026741027832 L 5.17042875289917 19.00261306762695 L 5.17042875289917 19.00261306762695 L 5.131848335266113 19.00261306762695 L 5.118248462677002 19.00261306762695 L 5.104658603668213 19.00187301635742 C 4.663978576660156 18.97787284851074 4.296698570251465 18.64365386962891 4.231338500976563 18.20717430114746 C 4.008188724517822 16.63947296142578 4.277458667755127 15.07271385192871 5.009528636932373 13.67269325256348 L 6.541933536529541 10.72303009033203 C 6.321091175079346 10.97649002075195 5.999560356140137 11.12763500213623 5.65263843536377 11.12978363037109 L 5.58659839630127 11.12979316711426 L 5.56458854675293 11.12979316711426 L 5.542668342590332 11.12786388397217 C 5.143058300018311 11.09261322021484 4.790378570556641 10.86101341247559 4.599218368530273 10.50832366943359 C 4.40861701965332 10.15665531158447 4.406553745269775 9.736125946044922 4.59353494644165 9.382694244384766 L 6.515008449554443 5.67366361618042 C 6.748888492584229 5.22455358505249 7.142928600311279 4.894403457641602 7.625028610229492 4.743103504180908 C 7.808258533477783 4.685593605041504 7.998528480529785 4.656433582305908 8.190548896789551 4.656433582305908 C 8.494518280029297 4.656433582305908 8.797508239746094 4.730973243713379 9.066768646240234 4.871993541717529 L 9.476740837097168 5.085256576538086 L 9.814388275146484 4.436483383178711 C 10.18881893157959 3.716973304748535 10.9252986907959 3.269993305206299 11.73642826080322 3.269993305206299 L 11.888108253479 3.269993305206299 L 11.91071891784668 3.269993305206299 L 11.9332389831543 3.272033452987671 C 12.6558780670166 3.337523460388184 13.29459857940674 3.756993293762207 13.64181804656982 4.394103527069092 C 13.98904895782471 5.031203269958496 13.99536895751953 5.795323371887207 13.65874862670898 6.438113212585449 L 8.852028846740723 15.67604351043701 C 8.126978874206543 17.07207298278809 7.002498626708984 18.18753433227539 5.600308418273926 18.90149307250977 C 5.469562530517578 18.96780204772949 5.323754787445068 19.0026741027832 5.177971363067627 19.0026741027832 Z"/>
        <path class="cls-5" d="M 5.177910804748535 18.50267791748047 C 5.245816707611084 18.50267791748047 5.312803745269775 18.48667526245117 5.373438358306885 18.45592308044434 C 6.674388408660889 17.79351425170898 7.735608577728271 16.74082374572754 8.408478736877441 15.44525337219238 L 13.2158088684082 6.206153392791748 C 13.47428894042969 5.712583541870117 13.46940898895264 5.122583389282227 13.20278835296631 4.633373260498047 C 12.9361686706543 4.144163608551025 12.44298839569092 3.82028341293335 11.888108253479 3.769993305206299 C 11.83735847473145 3.769993305206299 11.78862857818604 3.769993305206299 11.73787879943848 3.769993305206299 C 11.73742294311523 3.76999306678772 11.73687934875488 3.769992828369141 11.73642444610596 3.769992828369141 C 11.11483573913574 3.769992828369141 10.54489803314209 4.115847587585449 10.25791835784912 4.667313575744629 L 9.689488410949707 5.759523391723633 L 8.834798812866211 5.314923286437988 C 8.634175300598145 5.209853172302246 8.41290283203125 5.156437873840332 8.190546035766602 5.156437873840332 C 8.050765991210938 5.156437873840332 7.910584926605225 5.177531242370605 7.7747483253479 5.220163345336914 C 7.422838687896729 5.33060359954834 7.129328727722168 5.576523303985596 6.958968639373779 5.903663635253906 L 5.036438465118408 9.614733695983887 C 4.927228450775146 9.819743156433105 4.928118705749512 10.06585311889648 5.038808345794678 10.27007293701172 C 5.14948844909668 10.47428321838379 5.355218410491943 10.60938358306885 5.58659839630127 10.62979316711426 L 5.649538516998291 10.62979316711426 C 5.906208515167236 10.62820339202881 6.140808582305908 10.48432350158691 6.258568286895752 10.25625324249268 L 8.191248893737793 6.543153285980225 L 9.045938491821289 6.987743377685547 L 5.452608585357666 13.90438365936279 C 4.773518562316895 15.20308303833008 4.519308567047119 16.68222427368164 4.725828647613525 18.13313293457031 C 4.756358623504639 18.33703422546387 4.925988674163818 18.49140357971191 5.131848335266113 18.50261306762695 L 5.17042875289917 18.50261306762695 C 5.172922611236572 18.50265693664551 5.175418853759766 18.50267791748047 5.177910804748535 18.50267791748047 M 5.177968502044678 19.5026741027832 L 5.17042875289917 19.50261306762695 L 5.17042875289917 19.50261306762695 L 5.131848335266113 19.50261306762695 L 5.104638576507568 19.50261306762695 L 5.077478408813477 19.50113296508789 C 4.400988578796387 19.46429252624512 3.837178468704224 18.95124435424805 3.736848592758179 18.28121376037598 L 3.736318588256836 18.27763366699219 L 3.735808610916138 18.2740535736084 C 3.498328447341919 16.60563278198242 3.785558462142944 14.93439388275146 4.56644868850708 13.44101333618164 L 5.508952140808105 11.6268253326416 L 5.49872875213623 11.62592315673828 C 4.931548595428467 11.57589340209961 4.430948734283447 11.24716377258301 4.159638404846191 10.74657344818115 C 3.889378309249878 10.24794864654541 3.886181592941284 9.651767730712891 4.150745868682861 9.150444030761719 L 6.071048736572266 5.443673610687256 C 6.367208480834961 4.874953269958496 6.8655686378479 4.457403182983398 7.475318431854248 4.266043186187744 C 7.707078456878662 4.193313598632813 7.947718620300293 4.156433582305908 8.190548896789551 4.156433582305908 C 8.561919212341309 4.156433582305908 8.932167053222656 4.2444167137146 9.263895034790039 4.411178588867188 L 9.370858192443848 4.205653190612793 C 9.83168888092041 3.320123434066772 10.73812866210938 2.769993305206299 11.73642826080322 2.769993305206299 L 11.888108253479 2.769993305206299 L 11.93332862854004 2.769993305206299 L 11.97836875915527 2.774073362350464 C 12.86759853363037 2.854663372039795 13.65357875823975 3.370833396911621 14.08084869384766 4.154823303222656 C 14.50812816619873 4.938823223114014 14.51591873168945 5.879103183746338 14.1016788482666 6.670083522796631 L 9.295578956604004 15.90683364868164 C 8.522348403930664 17.39564323425293 7.322868347167969 18.58549308776855 5.827178478240967 19.34705352783203 C 5.625958442687988 19.4491138458252 5.401958465576172 19.5026741027832 5.177968502044678 19.5026741027832 Z"/>
      </g>
    </g>
  </g>
</svg>
