<svg xmlns="http://www.w3.org/2000/svg" width="15" height="15.2" viewBox="0 0 15 15.2">
  <g id="laboratorio" transform="translate(3084 7646.1)">
    <g id="laboratorio-2" data-name="laboratorio" transform="translate(-3082.478 -7644.551)">
      <path id="Uni찾o_5" data-name="Uni찾o 5" d="M0,10.884a4.143,4.143,0,0,1,2.669-3.8V3.173H2.283a.29.29,0,0,1-.3-.281V1.6a.29.29,0,0,1,.3-.28H4.857c-.02-.009-.031-.02-.031-.033V.281A.289.289,0,0,1,5.123,0H9.246a.29.29,0,0,1,.3.281V1.57a.29.29,0,0,1-.3.28H8.86V5.763a4.073,4.073,0,0,1,2.6,4.6,4,4,0,0,1-3.781,3.173A4.461,4.461,0,0,1,4.359,15,4.247,4.247,0,0,1,0,10.884ZM3.264,7.276a.282.282,0,0,1-.2.263A3.591,3.591,0,0,0,.594,10.884,3.67,3.67,0,0,0,4.359,14.44a3.711,3.711,0,0,0,3.7-2.948A3.314,3.314,0,0,0,7.024,8.383a4.109,4.109,0,0,0-1.4-.842.281.281,0,0,1-.2-.265v-4.1H3.264Zm2.758-.191a4.072,4.072,0,0,1,2.6,4.6,3.984,3.984,0,0,1-.558,1.349,3.513,3.513,0,0,0,.4-6.817.282.282,0,0,1-.2-.265V1.85H6.7V2.892a.288.288,0,0,1-.3.281H6.022ZM2.58,2.611H6.111V1.884H2.58ZM6.408,1.322h.029l0-.035h2.51V.562H5.419v.728H6.44c-.053,0-.245.016-.477.033Z" transform="translate(0.004 -1.449)" fill="#1976d2" stroke="#1976d2" stroke-width="0.2"/>
      <path id="Caminho_5702" data-name="Caminho 5702" d="M.3,10.471A5.223,5.223,0,0,1,2.9,9.758c1.492,0,1.775,1.115,2.611,1.156a2.648,2.648,0,0,0,1.439-.346" transform="translate(0.133 -0.988)" fill="none" stroke="#1976d2" stroke-linecap="round" stroke-linejoin="round" stroke-width="0.8"/>
      <path id="Caminho_5983" data-name="Caminho 5983" d="M5.694,10.992a2.648,2.648,0,0,0,1.439-.346" transform="translate(2.841 -2.89)" fill="none" stroke="#1976d2" stroke-linecap="round" stroke-linejoin="round" stroke-width="0.8"/>
    </g>
    <rect id="Ret창ngulo_3938" data-name="Ret창ngulo 3938" width="15" height="15" transform="translate(-3084 -7646)" fill="none"/>
  </g>
</svg>
