<svg xmlns="http://www.w3.org/2000/svg" viewBox="0 0 13.768 13.939">
  <defs>
    <style>
      .cls-1 {
        fill: #3b3b3b;
      }

      .cls-2, .cls-4, .cls-6 {
        fill: none;
      }

      .cls-2, .cls-4 {
        stroke: #d50000;
      }

      .cls-2 {
        stroke-width: 2px;
      }

      .cls-3 {
        fill: #2196f3;
        stroke: #fff;
      }

      .cls-5 {
        stroke: none;
      }
    </style>
  </defs>
  <g id="leito-indisponivel-vidro" transform="translate(-170.232 -9099)">
    <g id="Group_250" data-name="Group 250" transform="translate(0 132)">
      <g id="Group_245" data-name="Group 245" transform="translate(0 140)">
        <g id="Group_242" data-name="Group 242" transform="translate(0 271)">
          <g id="Group_230" data-name="Group 230" transform="translate(2 2330)">
            <g id="Group_145" data-name="Group 145" transform="translate(1 1824)">
              <g id="noun_Hospital_583380" transform="translate(167.232 4408.504)">
                <g id="Group_4" data-name="Group 4" transform="translate(0 0)">
                  <path id="Path_13" data-name="Path 13" class="cls-1" d="M20,40v7.435h1.859V45.577h7.435v1.859h1.859V43.718H21.859V40Z" transform="translate(-20 -40)"/>
                </g>
              </g>
            </g>
          </g>
        </g>
      </g>
    </g>
    <g id="Rectangle_17" data-name="Rectangle 17" class="cls-2" transform="translate(175 9099)">
      <rect class="cls-5" width="9" height="9"/>
      <rect class="cls-6" x="1" y="1" width="7" height="7"/>
    </g>
    <g id="Group_252" data-name="Group 252" transform="translate(173.3 9103.066)">
      <g id="noun_Shower_670632" transform="translate(0 0)">
        <path id="Path_3815" data-name="Path 3815" class="cls-3" d="M1.5-49.293C.439-47.505,0-46.687,0-45.885a1.544,1.544,0,0,0,1.5,1.636,1.529,1.529,0,0,0,1.454-1.636C2.954-46.687,2.545-47.475,1.5-49.293Z" transform="translate(0 49.293)"/>
      </g>
    </g>
    <line id="Line_6" data-name="Line 6" class="cls-4" x2="1" y2="1" transform="translate(178.3 9103.9)"/>
    <line id="Line_7" data-name="Line 7" class="cls-4" x2="3" y2="3" transform="translate(178.3 9101.9)"/>
  </g>
</svg>
