<svg xmlns="http://www.w3.org/2000/svg" viewBox="0 0 14.018 15.419">
  <defs>
    <style>
      .cls-1 {
        fill: #3b3b3b;
      }

      .cls-2 {
        fill: #d50000;
        stroke: #d50000;
        stroke-width: 0.3px;
      }
    </style>
  </defs>
  <g id="leito-indisponivel-contorle-praga" transform="translate(-170.232 -9231.521)">
    <g id="Group_256" data-name="Group 256" transform="translate(0 134)">
      <g id="Group_250" data-name="Group 250" transform="translate(0 132)">
        <g id="Group_245" data-name="Group 245" transform="translate(0 140)">
          <g id="Group_242" data-name="Group 242" transform="translate(0 271)">
            <g id="Group_230" data-name="Group 230" transform="translate(2 2330)">
              <g id="Group_145" data-name="Group 145" transform="translate(1 1824)">
                <g id="noun_Hospital_583380" transform="translate(167.232 4408.504)">
                  <g id="Group_4" data-name="Group 4" transform="translate(0 0)">
                    <path id="Path_13" data-name="Path 13" class="cls-1" d="M20,40v7.435h1.859V45.577h7.435v1.859h1.859V43.718H21.859V40Z" transform="translate(-20 -40)"/>
                  </g>
                </g>
              </g>
            </g>
          </g>
        </g>
      </g>
    </g>
    <g id="noun_Insect_1642099" transform="translate(167.006 9168.738)">
      <g id="Group_279" data-name="Group 279" transform="translate(7.138 62.934)">
        <g id="Group_258" data-name="Group 258" transform="translate(1.757 2.873)">
          <g id="Group_257" data-name="Group 257">
            <path id="Path_3863" data-name="Path 3863" class="cls-2" d="M243.263,308.916v3.035a5.032,5.032,0,0,1-.023.638c.006-.041.012-.083.016-.124a2.728,2.728,0,0,1-.186.686l.047-.113a2.789,2.789,0,0,1-.359.616l.074-.095a2.856,2.856,0,0,1-.5.5l.095-.074a2.813,2.813,0,0,1-.616.36l.113-.047a2.816,2.816,0,0,1-.7.191l.124-.016a2.815,2.815,0,0,1-.716,0l.124.016a2.739,2.739,0,0,1-.7-.191l.113.047a2.869,2.869,0,0,1-.616-.36l.1.074a2.817,2.817,0,0,1-.5-.5l.074.095a2.836,2.836,0,0,1-.359-.616l.047.113a2.792,2.792,0,0,1-.186-.686c.006.041.012.083.016.124a4.455,4.455,0,0,1-.023-.573v-2.991a1.431,1.431,0,0,1,0-.174c-.006.041-.012.083-.016.124a.481.481,0,0,1,.029-.107c-.015.038-.032.075-.047.113a.547.547,0,0,1,.062-.108l-.074.095a.58.58,0,0,1,.088-.089l-.095.074a.56.56,0,0,1,.108-.065l-.113.047a.491.491,0,0,1,.123-.034l-.124.016a1.433,1.433,0,0,1,.174,0h3.88c.178,0,.358,0,.537,0a.462.462,0,0,1,.069,0l-.124-.016a.554.554,0,0,1,.122.034l-.113-.047a.56.56,0,0,1,.108.065l-.095-.074a.521.521,0,0,1,.087.089l-.074-.095a.549.549,0,0,1,.062.108c-.015-.038-.032-.075-.047-.113a.5.5,0,0,1,.029.107c-.006-.041-.012-.083-.016-.124a.441.441,0,0,1,.006.066.487.487,0,0,0,.137.332.469.469,0,0,0,.8-.332.961.961,0,0,0-.269-.653.971.971,0,0,0-.645-.286c-.041,0-.083,0-.124,0h-4.424a.965.965,0,0,0-.768.376.976.976,0,0,0-.2.61v2.9c0,.2-.007.4.009.6a3.221,3.221,0,0,0,.66,1.723,3.281,3.281,0,0,0,1.476,1.075,3.217,3.217,0,0,0,4.213-2.372A4.553,4.553,0,0,0,244.2,312v-3.081a.469.469,0,0,0-.938,0Z" transform="translate(-237.772 -307.975)"/>
          </g>
        </g>
        <g id="Group_260" data-name="Group 260" transform="translate(2.64 1.011)">
          <g id="Group_259" data-name="Group 259">
            <path id="Path_3864" data-name="Path 3864" class="cls-2" d="M317.314,151.016h-3.748l.469.469a2.129,2.129,0,0,1,.018-.245c-.006.041-.012.083-.016.124a1.884,1.884,0,0,1,.128-.471l-.047.113a1.91,1.91,0,0,1,.246-.423l-.074.1a1.9,1.9,0,0,1,.333-.332l-.095.074a1.9,1.9,0,0,1,.408-.239l-.113.047a1.923,1.923,0,0,1,.482-.133l-.124.016a2.011,2.011,0,0,1,.517,0l-.124-.016a1.946,1.946,0,0,1,.482.133l-.113-.047a1.949,1.949,0,0,1,.408.239l-.095-.074a1.939,1.939,0,0,1,.333.332l-.074-.1a1.909,1.909,0,0,1,.246.423l-.047-.113a1.988,1.988,0,0,1,.128.471c-.006-.041-.012-.083-.016-.124a2.143,2.143,0,0,1,.018.245.487.487,0,0,0,.137.332.469.469,0,0,0,.8-.332,2.33,2.33,0,0,0-.419-1.329,2.528,2.528,0,0,0-.549-.558,2.3,2.3,0,0,0-.6-.314,2.355,2.355,0,0,0-2.548.681,2.487,2.487,0,0,0-.428.735,2.287,2.287,0,0,0-.138.783.476.476,0,0,0,.469.469h3.748a.468.468,0,1,0,0-.937Z" transform="translate(-313.098 -149.154)"/>
          </g>
        </g>
        <g id="Group_262" data-name="Group 262" transform="translate(0 6.568)">
          <g id="Group_261" data-name="Group 261">
            <path id="Path_3865" data-name="Path 3865" class="cls-2" d="M90.2,623H88.434a.469.469,0,1,0,0,.938H90.2a.469.469,0,1,0,0-.938Z" transform="translate(-87.964 -623)"/>
          </g>
        </g>
        <g id="Group_264" data-name="Group 264" transform="translate(0 4.398)">
          <g id="Group_263" data-name="Group 263">
            <path id="Path_3866" data-name="Path 3866" class="cls-2" d="M88.434,438.938H90.2a.469.469,0,1,0,0-.938H88.434a.469.469,0,1,0,0,.938Z" transform="translate(-87.964 -438)"/>
          </g>
        </g>
        <g id="Group_266" data-name="Group 266" transform="translate(7.259 4.398)">
          <g id="Group_265" data-name="Group 265" transform="translate(0)">
            <path id="Path_3867" data-name="Path 3867" class="cls-2" d="M707.434,438.938h1.759a.469.469,0,0,0,0-.938h-1.759a.469.469,0,1,0,0,.938Z" transform="translate(-706.964 -438)"/>
          </g>
        </g>
        <g id="Group_268" data-name="Group 268" transform="translate(7.259 6.568)">
          <g id="Group_267" data-name="Group 267" transform="translate(0)">
            <path id="Path_3868" data-name="Path 3868" class="cls-2" d="M709.193,623h-1.759a.469.469,0,1,0,0,.938h1.759a.469.469,0,0,0,0-.938Z" transform="translate(-706.964 -623)"/>
          </g>
        </g>
        <g id="Group_270" data-name="Group 270" transform="translate(0.935 8.373)">
          <g id="Group_269" data-name="Group 269">
            <path id="Path_3869" data-name="Path 3869" class="cls-2" d="M169.135,777.07q-.568.5-1.137,1.011l-.161.143a.475.475,0,0,0-.137.332.469.469,0,0,0,.8.332q.568-.5,1.137-1.011l.161-.143a.475.475,0,0,0,.137-.332.469.469,0,0,0-.8-.332Z" transform="translate(-167.7 -776.937)"/>
          </g>
        </g>
        <g id="Group_272" data-name="Group 272" transform="translate(6.793 8.369)">
          <g id="Group_271" data-name="Group 271" transform="translate(0)">
            <path id="Path_3870" data-name="Path 3870" class="cls-2" d="M667.4,777.4q.568.5,1.138,1.011l.161.143a.5.5,0,0,0,.332.137.482.482,0,0,0,.332-.137.47.47,0,0,0,0-.664q-.568-.5-1.137-1.011l-.161-.143a.5.5,0,0,0-.332-.137.482.482,0,0,0-.332.137.47.47,0,0,0-.137.332.475.475,0,0,0,.137.332Z" transform="translate(-667.267 -776.6)"/>
          </g>
        </g>
        <g id="Group_274" data-name="Group 274" transform="translate(4.502 2.873)">
          <g id="Group_273" data-name="Group 273">
            <path id="Path_3871" data-name="Path 3871" class="cls-2" d="M472.85,312.526v-3.588c0-.165,0-.332,0-.5v-.007a.469.469,0,1,0-.938,0v3.588c0,.165,0,.332,0,.5v.007a.469.469,0,0,0,.938,0Z" transform="translate(-471.911 -307.964)"/>
          </g>
        </g>
        <g id="Group_276" data-name="Group 276" transform="translate(2.576 0.004)">
          <g id="Group_275" data-name="Group 275">
            <path id="Path_3872" data-name="Path 3872" class="cls-2" d="M307.683,63.985l.745,1.041.106.148a.5.5,0,0,0,.28.216.485.485,0,0,0,.361-.047.474.474,0,0,0,.216-.28.462.462,0,0,0-.047-.361L308.6,63.66l-.105-.148a.5.5,0,0,0-.28-.216.485.485,0,0,0-.361.047.474.474,0,0,0-.216.28.458.458,0,0,0,.047.361Z" transform="translate(-307.62 -63.281)"/>
          </g>
        </g>
        <g id="Group_278" data-name="Group 278" transform="translate(5.603 0)">
          <g id="Group_277" data-name="Group 277" transform="translate(0)">
            <path id="Path_3873" data-name="Path 3873" class="cls-2" d="M566.669,63.168l-.745,1.041-.106.148a.469.469,0,0,0,.169.641.469.469,0,0,0,.361.047.538.538,0,0,0,.28-.216l.745-1.041.105-.148a.469.469,0,0,0-.53-.688.538.538,0,0,0-.28.216Z" transform="translate(-565.756 -62.934)"/>
          </g>
        </g>
      </g>
    </g>
  </g>
</svg>
