<svg xmlns="http://www.w3.org/2000/svg" viewBox="0 0 14.325 16.496">
  <defs>
    <style>
      .cls-1 {
        fill: #3b3b3b;
      }

      .cls-2 {
        fill: #00909f;
        stroke: #00909f;
      }

      .cls-2, .cls-3 {
        stroke-width: 0.5px;
      }

      .cls-3 {
        fill: #d50000;
        stroke: #d50000;
      }
    </style>
  </defs>
  <g id="leito-indidponivel-odor" transform="translate(-195.232 -9767.443)">
    <g id="Group_303" data-name="Group 303" transform="translate(26 134)">
      <g id="Group_289" data-name="Group 289" transform="translate(1 3410)">
        <g id="Group_145" data-name="Group 145" transform="translate(1 1824)">
          <g id="noun_Hospital_583380" transform="translate(167.232 4408.504)">
            <g id="Group_4" data-name="Group 4" transform="translate(0 0)">
              <path id="Path_13" data-name="Path 13" class="cls-1" d="M20,40v7.435h1.859V45.577h7.435v1.859h1.859V43.718H21.859V40Z" transform="translate(-20 -40)"/>
            </g>
          </g>
        </g>
      </g>
    </g>
    <g id="Group_304" data-name="Group 304" transform="translate(26)">
      <g id="noun_Air_860823" transform="translate(165.069 9662.489)">
        <g id="Group_302" data-name="Group 302" transform="translate(9.825 108.016)">
          <path id="Path_3878" data-name="Path 3878" class="cls-2" d="M98.393,372.394c.955.51,1.592.779,2.281.052a.281.281,0,0,1,.371-.027.254.254,0,0,1,.027.35c-1.007,1.051-2.068.487-2.918.057-.955-.51-1.592-.779-2.281-.052a.281.281,0,0,1-.371.027.256.256,0,0,1-.027-.35C96.482,371.4,97.544,371.937,98.393,372.394Z" transform="translate(-95.415 -368.103)"/>
          <path id="Path_3879" data-name="Path 3879" class="cls-2" d="M98.261,240.112c.955.51,1.592.779,2.281.052a.281.281,0,0,1,.371-.027.254.254,0,0,1,.027.35c-1.007,1.051-2.068.486-2.918.057-.955-.51-1.592-.779-2.281-.052a.281.281,0,0,1-.371.027.256.256,0,0,1-.027-.35C96.35,239.118,97.411,239.682,98.261,240.112Z" transform="translate(-95.285 -237.704)"/>
          <path id="Path_3880" data-name="Path 3880" class="cls-2" d="M98.129,108.566c.955.51,1.592.779,2.281.052a.281.281,0,0,1,.371-.027.254.254,0,0,1,.027.35c-1.007,1.051-2.068.486-2.918.057-.955-.51-1.592-.779-2.281-.052a.281.281,0,0,1-.371.027.257.257,0,0,1-.027-.35C96.218,107.573,97.28,108.11,98.129,108.566Z" transform="translate(-95.155 -108.016)"/>
        </g>
      </g>
      <path id="ic_query_builder_24px" class="cls-3" d="M7.393,2a5.4,5.4,0,1,0,5.4,5.4A5.4,5.4,0,0,0,7.393,2ZM7.4,11.718A4.318,4.318,0,0,1,3.08,7.4,4.675,4.675,0,0,1,3.5,5.547,4.208,4.208,0,0,1,7.4,3.08a4.319,4.319,0,0,1,0,8.638Zm-4.3-5.7,8.049,4.308.582-1.254L4.087,5.018Z" transform="translate(170.509 9765.693)"/>
    </g>
  </g>
</svg>
