<svg xmlns="http://www.w3.org/2000/svg" viewBox="0 0 13.004 15.35">
  <defs>
    <style>
      .cls-1 {
        fill: #3b3b3b;
      }

      .cls-2 {
        fill: #d50000;
      }
    </style>
  </defs>
  <g id="leito-indidponivel-camareira" transform="translate(-169.232 -9634.59)">
    <g id="Group_289" data-name="Group 289" transform="translate(1 3410)">
      <g id="Group_145" data-name="Group 145" transform="translate(1 1824)">
        <g id="noun_Hospital_583380" transform="translate(167.232 4408.504)">
          <g id="Group_4" data-name="Group 4" transform="translate(0 0)">
            <path id="Path_13" data-name="Path 13" class="cls-1" d="M20,40v7.435h1.859V45.577h7.435v1.859h1.859V43.718H21.859V40Z" transform="translate(-20 -40)"/>
          </g>
        </g>
      </g>
    </g>
    <g id="noun_sweep_582265" transform="translate(169.657 9631.59)">
      <g id="Group_292" data-name="Group 292" transform="translate(1 3)">
        <g id="Group_291" data-name="Group 291">
          <path id="Path_3874" data-name="Path 3874" class="cls-2" d="M590.928,447.717a1.67,1.67,0,0,0-.72-1.473l.72-3.244h-.858l-1.254,2.926a2.857,2.857,0,0,0-.461.076,2.953,2.953,0,0,0-1.235.865l3.809.952C590.93,447.783,590.928,447.752,590.928,447.717Z" transform="translate(-580.208 -443)"/>
          <path id="Path_3875" data-name="Path 3875" class="cls-2" d="M590.01,453.9l-4.1-1.026a4.3,4.3,0,0,0-.405.743l4.537,1.135C590.024,454.488,590.016,454.2,590.01,453.9Z" transform="translate(-579.282 -448.641)"/>
          <path id="Path_3876" data-name="Path 3876" class="cls-2" d="M581.288,457.888a5.042,5.042,0,0,1-.684,1.9,17.946,17.946,0,0,0,5.4.67,8.661,8.661,0,0,1-.8-3.73l-4.716-1.179c-.021.064-.044.125-.063.192-.61,2.135-3.431,2.144-3.431,2.144a6.525,6.525,0,0,0,2.548,1.547A5.144,5.144,0,0,0,581.288,457.888Z" transform="translate(-574.427 -450.169)"/>
          <circle id="Ellipse_36" data-name="Ellipse 36" class="cls-2" cx="0.858" cy="0.858" r="0.858" transform="translate(0 3.859)"/>
          <circle id="Ellipse_37" data-name="Ellipse 37" class="cls-2" cx="0.643" cy="0.643" r="0.643" transform="translate(0.858 6.432)"/>
          <circle id="Ellipse_38" data-name="Ellipse 38" class="cls-2" cx="0.643" cy="0.643" r="0.643" transform="translate(2.144 4.717)"/>
        </g>
      </g>
    </g>
  </g>
</svg>
