<svg xmlns="http://www.w3.org/2000/svg" width="15" height="14.996" viewBox="0 0 15 14.996">
  <g id="medicamentos-e-notas" transform="translate(0.001 0)">
    <path id="Path_4365" data-name="Path 4365" d="M4.3,15A4.3,4.3,0,0,1,1.26,7.652L7.652,1.261a4.3,4.3,0,0,1,6.086,6.088l-6.39,6.39A4.29,4.29,0,0,1,4.3,15ZM10.695.937a3.342,3.342,0,0,0-2.38.986L1.923,8.315a3.366,3.366,0,0,0,4.761,4.76l6.391-6.392A3.366,3.366,0,0,0,10.695.937Z" transform="translate(0 0)" fill="#3b3b3b"/>
    <path id="Path_4366" data-name="Path 4366" d="M15.127,15.6a.467.467,0,0,1-.331-.137L9.682,10.345a.469.469,0,1,1,.663-.663L15.458,14.8a.469.469,0,0,1-.331.8Z" transform="translate(-5.071 -5.071)" fill="#3b3b3b"/>
    <path id="Path_4367" data-name="Path 4367" d="M22.106,5.591a.467.467,0,0,1-.331-.137,1.45,1.45,0,0,0-2.049,0,.469.469,0,0,1-.663-.663,2.388,2.388,0,0,1,3.374,0,.469.469,0,0,1-.331.8Z" transform="translate(-10.055 -2.175)" fill="#3b3b3b"/>
  </g>
</svg>
