<svg xmlns="http://www.w3.org/2000/svg" width="15.3" height="15" viewBox="0 0 15.3 15">
  <g id="medicina-nuclear" transform="translate(3084.15 7592)">
    <g id="medicina-nuclear-2" data-name="medicina-nuclear" transform="translate(-3084 -7617.028)">
      <path id="Caminho_5613" data-name="Caminho 5613" d="M12.72,30.223c-.282-.114-.584-.217-.9-.31.082-.334.147-.659.194-.972.245-1.629-.026-2.772-.764-3.218a1.394,1.394,0,0,0-.733-.2,4.911,4.911,0,0,0-3.036,1.794c-.239-.246-.479-.471-.718-.674-1.225-1.037-2.306-1.363-3.044-.917a2.073,2.073,0,0,0-.834,1.693A.248.248,0,0,0,3.1,27.7a.242.242,0,0,0,.26-.227,1.673,1.673,0,0,1,.6-1.3c.546-.33,1.458-.012,2.5.872.228.193.457.408.685.643A16.115,16.115,0,0,0,5.794,29.43a14.762,14.762,0,0,0-2.179.366,9.49,9.49,0,0,1-.239-1.364.242.242,0,0,0-.262-.225.248.248,0,0,0-.215.274,9.994,9.994,0,0,0,.253,1.441c-.306.09-.6.191-.872.3C.81,30.815,0,31.632,0,32.524s.81,1.709,2.28,2.3c.282.114.584.217.9.31-.082.334-.147.659-.194.972-.245,1.629.026,2.772.764,3.218a1.394,1.394,0,0,0,.733.2,4.857,4.857,0,0,0,3-1.755c.232.237.464.455.7.651a3.887,3.887,0,0,0,2.313,1.112,1.388,1.388,0,0,0,.73-.195c.738-.446,1.009-1.589.764-3.218-.047-.313-.112-.638-.194-.971a8.929,8.929,0,0,0,1.347-.5.256.256,0,0,0,.119-.332.235.235,0,0,0-.317-.125,8.48,8.48,0,0,1-1.278.474,16.605,16.605,0,0,0-.765-2.1,16.677,16.677,0,0,0,.8-2.17c1.777.521,2.829,1.343,2.829,2.132a1.645,1.645,0,0,1-.78,1.193.258.258,0,0,0-.058.349.233.233,0,0,0,.334.06,2.059,2.059,0,0,0,.983-1.6c0-.892-.81-1.709-2.28-2.3Zm-2.2-4.194a.939.939,0,0,1,.493.128c.546.33.739,1.317.53,2.706-.045.3-.107.607-.185.925a14.837,14.837,0,0,0-2.187-.362A16.047,16.047,0,0,0,7.816,27.68q.127-.131.254-.254a4.127,4.127,0,0,1,2.447-1.4Zm-3.035,2.01a15.068,15.068,0,0,1,1.063,1.34Q8.03,29.35,7.5,29.35c-.365,0-.726.011-1.08.032a15.369,15.369,0,0,1,1.063-1.342Zm0,9.011a15.039,15.039,0,0,1-1.1-1.386c.367.023.742.034,1.12.034s.725-.011,1.081-.032a15.278,15.278,0,0,1-1.1,1.384ZM7.5,35.2c-.514,0-1.008-.021-1.478-.06-.264-.4-.52-.828-.763-1.269S4.8,33,4.6,32.56c.207-.457.437-.916.689-1.373s.5-.871.772-1.28c.459-.037.939-.057,1.44-.057s.956.019,1.4.054c.269.41.529.842.777,1.291s.48.912.686,1.366c-.2.432-.418.867-.656,1.3s-.5.869-.77,1.278C8.471,35.178,7.989,35.2,7.5,35.2Zm-2.094-.122a13.721,13.721,0,0,1-1.634-.294,15.609,15.609,0,0,1,.572-1.63q.234.486.5.969T5.406,35.076Zm.038-5.107q-.293.467-.57.969t-.532,1.034a15.842,15.842,0,0,1-.6-1.7A13.724,13.724,0,0,1,5.444,29.969ZM.479,32.524c0-.784,1.042-1.6,2.8-2.124a16.837,16.837,0,0,0,.792,2.16,16.6,16.6,0,0,0-.763,2.1C1.531,34.136.479,33.313.479,32.524Zm4,6.5a.939.939,0,0,1-.493-.128c-.546-.33-.739-1.317-.53-2.706.045-.3.107-.607.185-.925a14.758,14.758,0,0,0,2.112.355,16.035,16.035,0,0,0,1.389,1.793q-.108.11-.216.215A4.127,4.127,0,0,1,4.483,39.019Zm7.028-2.827c.209,1.39.016,2.376-.53,2.706s-1.458.012-2.5-.872c-.22-.186-.441-.393-.661-.618a16.044,16.044,0,0,0,1.39-1.79,14.985,14.985,0,0,0,2.119-.351C11.4,35.585,11.466,35.895,11.511,36.193ZM11.2,34.784a14.09,14.09,0,0,1-1.638.292q.291-.465.567-.965.264-.479.5-.961a15.608,15.608,0,0,1,.574,1.634Zm-.572-2.812q-.247-.514-.529-1.028t-.577-.981a13.8,13.8,0,0,1,1.709.3A15.691,15.691,0,0,1,10.625,31.972Z" transform="translate(0 0)" fill="#1976d2" stroke="#1976d2" stroke-width="0.3"/>
    </g>
    <rect id="Retângulo_3940" data-name="Retângulo 3940" width="15" height="15" transform="translate(-3084 -7592)" fill="none"/>
  </g>
</svg>
