<svg id="medicamentos-notas" xmlns="http://www.w3.org/2000/svg" viewBox="0 0 15 15">
  <defs>
    <style>
      .cls-1 {
        fill: #1c3952;
      }
    </style>
  </defs>
  <g id="Group_5430" data-name="Group 5430" transform="translate(0)">
    <path id="Path_4365" data-name="Path 4365" class="cls-1" d="M4.3,15A4.3,4.3,0,0,1,1.261,7.654L7.654,1.261a4.3,4.3,0,0,1,6.087,6.088L7.348,13.742A4.29,4.29,0,0,1,4.3,15ZM10.7.938a3.343,3.343,0,0,0-2.381.986L1.924,8.317a3.367,3.367,0,0,0,4.762,4.761l6.392-6.393A3.367,3.367,0,0,0,10.7.938Z" transform="translate(0)"/>
    <path id="Path_4366" data-name="Path 4366" class="cls-1" d="M15.128,15.6a.468.468,0,0,1-.331-.137L9.682,10.345a.469.469,0,0,1,.663-.663L15.46,14.8a.469.469,0,0,1-.331.8Z" transform="translate(-5.07 -5.07)"/>
    <path id="Path_4367" data-name="Path 4367" class="cls-1" d="M22.107,5.591a.468.468,0,0,1-.331-.137,1.451,1.451,0,0,0-2.049,0,.469.469,0,1,1-.663-.663,2.389,2.389,0,0,1,3.375,0,.469.469,0,0,1-.331.8Z" transform="translate(-10.053 -2.174)"/>
  </g>
</svg>
