<svg id="noun_Pill_581292" xmlns="http://www.w3.org/2000/svg" viewBox="0 0 20 20">
  <defs>
    <style>
      .cls-1 {
        fill: #fff;
      }
    </style>
  </defs>
  <g id="Group_5430" data-name="Group 5430" transform="translate(0)">
    <path id="Path_4365" data-name="Path 4365" class="cls-1" d="M5.74,20a5.737,5.737,0,0,1-4.059-9.795l8.524-8.524A5.739,5.739,0,0,1,18.322,9.8L9.8,18.322A5.721,5.721,0,0,1,5.74,20ZM14.263,1.25a4.457,4.457,0,0,0-3.174,1.315L2.565,11.089a4.489,4.489,0,0,0,6.349,6.348l8.523-8.524A4.489,4.489,0,0,0,14.263,1.25Z" transform="translate(0 0)"/>
    <path id="Path_4366" data-name="Path 4366" class="cls-1" d="M16.989,17.614a.623.623,0,0,1-.442-.183L9.728,10.612a.625.625,0,0,1,.884-.884l6.819,6.819a.625.625,0,0,1-.442,1.067Z" transform="translate(-3.578 -3.578)"/>
    <path id="Path_4367" data-name="Path 4367" class="cls-1" d="M23.167,6.091a.623.623,0,0,1-.442-.183,1.934,1.934,0,0,0-2.732,0,.625.625,0,1,1-.884-.884,3.185,3.185,0,0,1,4.5,0,.625.625,0,0,1-.442,1.067Z" transform="translate(-7.095 -1.535)"/>
  </g>
</svg>
