<svg xmlns="http://www.w3.org/2000/svg" width="16" height="16" viewBox="0 0 16 16">
  <g id="menu-principal" transform="translate(-59.5 -319.5)">
    <g id="Group_6850" data-name="Group 6850" transform="translate(0 -132.5)">
      <path id="ic_account_box_24px" d="M3,4.667V16.333A1.666,1.666,0,0,0,4.667,18H16.333A1.672,1.672,0,0,0,18,16.333V4.667A1.672,1.672,0,0,0,16.333,3H4.667A1.666,1.666,0,0,0,3,4.667Z" transform="translate(57 449.5)" fill="none" stroke="#1c3952" stroke-width="1"/>
    </g>
    <line id="Line_894" data-name="Line 894" y1="14" transform="translate(66 320.5)" fill="none" stroke="#1c3952" stroke-linecap="round" stroke-width="1.15"/>
    <line id="Line_895" data-name="Line 895" x2="1" transform="translate(62.5 324.903)" fill="none" stroke="#1c3952" stroke-linecap="round" stroke-width="1.15"/>
    <line id="Line_896" data-name="Line 896" x2="1" transform="translate(62.5 326.903)" fill="none" stroke="#1c3952" stroke-linecap="round" stroke-width="1.15"/>
    <line id="Line_897" data-name="Line 897" x2="1" transform="translate(62.5 328.903)" fill="none" stroke="#1c3952" stroke-linecap="round" stroke-width="1.15"/>
    <line id="Line_898" data-name="Line 898" x2="1" transform="translate(62.5 330.903)" fill="none" stroke="#1c3952" stroke-linecap="round" stroke-width="1.15"/>
    <line id="Line_899" data-name="Line 899" x2="1" transform="translate(62.5 332.903)" fill="none" stroke="#1c3952" stroke-linecap="round" stroke-width="1.15"/>
  </g>
</svg>
