<svg xmlns="http://www.w3.org/2000/svg" width="16" height="16" viewBox="0 0 16 16">
  <g id="menu-paciente" transform="translate(-59.5 -387)">
    <path id="ic_account_box_24px" d="M3,4.667V16.333A1.666,1.666,0,0,0,4.667,18H16.333A1.672,1.672,0,0,0,18,16.333V4.667A1.672,1.672,0,0,0,16.333,3H4.667A1.666,1.666,0,0,0,3,4.667ZM13,8a2.5,2.5,0,1,1-2.5-2.5A2.5,2.5,0,0,1,13,8ZM5.5,14.667c0-1.667,3.333-2.583,5-2.583s5,.917,5,2.583V15.5H5.5Z" transform="translate(57 384.5)" fill="none" stroke="#1c3952" stroke-width="1"/>
  </g>
</svg>
