<svg xmlns="http://www.w3.org/2000/svg" viewBox="0 0 15 15">
  <defs>
    <style>
      .cls-1 {
        fill: #1c3952;
      }
    </style>
  </defs>
  <path id="lota-de-impressao" class="cls-1" d="M26.936,29.209V27.059h2.476a1.075,1.075,0,0,0,1.078-1.071V19.548a1.075,1.075,0,0,0-1.078-1.071H26.936V16.351a1.075,1.075,0,0,0-1.078-1.071H20.1a1.075,1.075,0,0,0-1.078,1.071v2.126H16.568a1.075,1.075,0,0,0-1.078,1.071v6.439a1.075,1.075,0,0,0,1.078,1.071H19.02v2.149A1.075,1.075,0,0,0,20.1,30.28h5.76A1.075,1.075,0,0,0,26.936,29.209ZM20.1,16.351h5.76v2.126H20.1ZM17.937,22.59v1.071H19.02v2.326H16.568V19.548H29.414v6.439H26.936V23.661h1.082V22.59H17.937ZM20.1,23.661h5.76v5.545H20.1Z" transform="translate(-15.49 -15.28)"/>
</svg>
