<svg xmlns="http://www.w3.org/2000/svg" viewBox="0 0 17.557 16.413">
  <defs>
    <style>
      .cls-1 {
        fill: #3b3b3b;
      }

      .cls-2 {
        fill: #d50000;
        stroke: #d50000;
        stroke-width: 0.5px;
      }

      .cls-3 {
        fill: #fbc02d;
      }
    </style>
  </defs>
  <g id="nao-elegivel-ao-home-care" transform="translate(-197 -7881.328)">
    <g id="Group_198" data-name="Group 198" transform="translate(30)">
      <g id="Group_196" data-name="Group 196">
        <path id="ic_home_24px" class="cls-1" d="M6.949,13.516V9.8H9.423v3.711h3.093V8.567h1.856L8.186,3,2,8.567H3.856v4.949Z" transform="translate(165 7878.328)"/>
        <path id="ic_query_builder_24px" class="cls-2" d="M7.393,2a5.4,5.4,0,1,0,5.4,5.4A5.4,5.4,0,0,0,7.393,2ZM7.4,11.718A4.318,4.318,0,0,1,3.08,7.4,4.675,4.675,0,0,1,3.5,5.547,4.208,4.208,0,0,1,7.4,3.08a4.319,4.319,0,0,1,0,8.638Zm-4.3-5.7,8.049,4.308.582-1.254L4.087,5.018Z" transform="translate(171.509 7884.693)"/>
        <g id="noun_Sheriff_Team_476522" data-name="noun_Sheriff Team_476522" transform="translate(124.66 7837.429)">
          <path id="Path_3855" data-name="Path 3855" class="cls-3" d="M58.069,56.436a.568.568,0,0,0-.261.066l-.267-.487c-.211-.385-.424-.769-.634-1.155a.1.1,0,0,1,0-.081c.114-.214.232-.426.349-.638.172-.312.345-.624.517-.936l.027-.051a.569.569,0,0,0,.267.069.574.574,0,1,0-.571-.613H55.745a.111.111,0,0,1-.116-.051q-.506-.833-1.016-1.662a.575.575,0,1,0-.607,0q-.5.815-1,1.632a.149.149,0,0,1-.145.08c-.581,0-1.162,0-1.743,0a.578.578,0,1,0-.3.544c.067.121.135.242.2.363q.347.629.691,1.261a.11.11,0,0,1,0,.089c-.141.261-.285.521-.428.781l-.47.854a.573.573,0,1,0,.312.531c.524,0,1.049,0,1.573-.005.189,0,.326.029.394.218a.362.362,0,0,0,.038.057l.872,1.42a.574.574,0,1,0,.636,0c.331-.541.663-1.082.991-1.625a.128.128,0,0,1,.129-.071H57.5a.574.574,0,1,0,.572-.6Z" transform="translate(0 0)"/>
        </g>
      </g>
      <path id="ic_query_builder_24px-2" data-name="ic_query_builder_24px" class="cls-2" d="M2.549,5.691,11.4,10.483l.582-1.254L3.536,4.7Z" transform="translate(171.509 7884.693)"/>
    </g>
  </g>
</svg>
