<svg xmlns="http://www.w3.org/2000/svg" viewBox="0 0 17 16.727">
  <defs>
    <style>
      .cls-1 {
        fill: #00909f;
      }

      .cls-2, .cls-5 {
        fill: #fff;
      }

      .cls-3 {
        fill: #fbc02d;
      }

      .cls-4, .cls-5 {
        stroke: none;
      }
    </style>
  </defs>
  <g id="paciente-no-programa" transform="translate(-197 -8011.273)">
    <g id="Group_215" data-name="Group 215" transform="translate(31 808)">
      <g id="Group_176" data-name="Group 176" transform="translate(1 841)">
        <rect id="Rectangle_16" data-name="Rectangle 16" class="cls-1" width="14" height="14" transform="translate(168 6365)"/>
      </g>
      <path id="Path_3842" data-name="Path 3842" class="cls-2" d="M3.91-6.815a3.347,3.347,0,0,1-.988,2.587,3.985,3.985,0,0,1-2.806.913H-.643V0h-2.7V-9.994H.116a4.228,4.228,0,0,1,2.844.827A2.95,2.95,0,0,1,3.91-6.815Zm-4.553,1.3H-.15a1.345,1.345,0,0,0,.967-.342A1.241,1.241,0,0,0,1.176-6.8q0-1.012-1.121-1.012h-.7Z" transform="translate(176.5 7218)"/>
    </g>
    <g id="ic_supervisor_account_24px" class="cls-3" transform="translate(187 8005.273)">
      <path class="cls-4" d="M 17.5854434967041 14.13867473602295 L 17.0854434967041 14.13867473602295 L 11.00000381469727 14.13867473602295 L 10.50000381469727 14.13867473602295 L 10.50000381469727 13.63867473602295 L 10.50000381469727 12.3939151763916 C 10.50000381469727 10.8516149520874 13.09679412841797 10.37255477905273 14.04272365570068 10.37255477905273 C 14.9886531829834 10.37255477905273 17.5854434967041 10.8516149520874 17.5854434967041 12.3939151763916 L 17.5854434967041 13.63867473602295 L 17.5854434967041 14.13867473602295 Z M 14.04272365570068 10.26611518859863 C 13.00440406799316 10.26611518859863 12.15966320037842 9.421375274658203 12.15966320037842 8.383054733276367 C 12.15966320037842 7.344735145568848 13.00440406799316 6.49999475479126 14.04272365570068 6.49999475479126 C 15.07799339294434 6.49999475479126 15.92025375366211 7.344735145568848 15.92025375366211 8.383054733276367 C 15.92025375366211 9.421375274658203 15.07799339294434 10.26611518859863 14.04272365570068 10.26611518859863 Z"/>
      <path class="cls-5" d="M 14.04272365570068 6.999996185302734 C 13.27927398681641 6.999996185302734 12.65966320037842 7.619606018066406 12.65966320037842 8.383055686950684 C 12.65966320037842 9.146506309509277 13.27927398681641 9.766116142272949 14.04272365570068 9.766116142272949 C 14.80617332458496 9.766116142272949 15.42025375366211 9.146506309509277 15.42025375366211 8.383055686950684 C 15.42025375366211 7.619606018066406 14.80617332458496 6.999996185302734 14.04272365570068 6.999996185302734 M 14.04272365570068 10.87255573272705 C 13.03032398223877 10.87255573272705 11.00000381469727 11.38152599334717 11.00000381469727 12.39391613006592 L 11.00000381469727 13.6386661529541 L 17.0854434967041 13.6386661529541 L 17.0854434967041 12.39391613006592 C 17.0854434967041 11.38152599334717 15.0551233291626 10.87255573272705 14.04272365570068 10.87255573272705 M 14.04272365570068 5.999996185302734 C 15.35369396209717 5.999996185302734 16.42025375366211 7.069035530090332 16.42025375366211 8.383055686950684 C 16.42025375366211 9.063404083251953 16.13431549072266 9.678097724914551 15.676589012146 10.11272048950195 C 15.90014839172363 10.17407894134521 16.1163330078125 10.24555397033691 16.31530380249023 10.32518577575684 C 17.85547256469727 10.94159603118896 18.0854434967041 11.88589572906494 18.0854434967041 12.39391613006592 L 18.0854434967041 13.6386661529541 L 18.0854434967041 14.6386661529541 L 17.0854434967041 14.6386661529541 L 11.00000381469727 14.6386661529541 L 10.00000381469727 14.6386661529541 L 10.00000381469727 13.6386661529541 L 10.00000381469727 12.39391613006592 C 10.00000381469727 11.88589572906494 10.22997283935547 10.94159603118896 11.77014350891113 10.32518577575684 C 11.96823501586914 10.24590682983398 12.1834077835083 10.17470550537109 12.40591335296631 10.11352920532227 C 11.9466495513916 9.678863525390625 11.65966415405273 9.06380558013916 11.65966415405273 8.383055686950684 C 11.65966415405273 7.069035530090332 12.72870349884033 5.999996185302734 14.04272365570068 5.999996185302734 Z"/>
    </g>
  </g>
</svg>
