<svg xmlns="http://www.w3.org/2000/svg" viewBox="0 0 17.557 17.413">
  <defs>
    <style>
      .cls-1 {
        fill: #3b3b3b;
      }

      .cls-2 {
        fill: #d50000;
        stroke: #d50000;
        stroke-width: 0.5px;
      }
    </style>
  </defs>
  <g id="paciente-nao-aderente-ao-home-care" transform="translate(-192 -7744.328)">
    <path id="ic_home_24px" class="cls-1" d="M6.949,13.516V9.8H9.423v3.711h3.093V8.567h1.856L8.186,3,2,8.567H3.856v4.949Z" transform="translate(190 7741.328)"/>
    <path id="ic_query_builder_24px" class="cls-2" d="M7.393,2a5.4,5.4,0,1,0,5.4,5.4A5.4,5.4,0,0,0,7.393,2ZM7.4,11.718A4.318,4.318,0,0,1,3.08,7.4,4.675,4.675,0,0,1,3.5,5.547,4.208,4.208,0,0,1,7.4,3.08a4.319,4.319,0,0,1,0,8.638Zm-4.3-5.7,8.049,4.308.582-1.254L4.087,5.018Z" transform="translate(196.509 7748.693)"/>
  </g>
</svg>
