<svg xmlns="http://www.w3.org/2000/svg" viewBox="0 0 18.948 17.569">
  <defs>
    <style>
      .cls-1 {
        fill: #d50000;
      }

      .cls-2 {
        fill: #2196f3;
      }

      .cls-3, .cls-6 {
        fill: #fff;
      }

      .cls-4 {
        fill: #3b3b3b;
      }

      .cls-5, .cls-6 {
        stroke: none;
      }
    </style>
  </defs>
  <g id="paciente-interno-em-local-de-emergencia" transform="translate(-167 -10309.931)">
    <circle id="Ellipse_39" data-name="Ellipse 39" class="cls-1" cx="4.75" cy="4.75" r="4.75" transform="translate(167 10311)"/>
    <circle id="Ellipse_40" data-name="Ellipse 40" class="cls-2" cx="4.75" cy="4.75" r="4.75" transform="translate(175 10318)"/>
    <path id="ic_supervisor_account_24px" class="cls-3" d="M13.578,9.343a1.172,1.172,0,1,0-1.172-1.172A1.168,1.168,0,0,0,13.578,9.343Zm0,.937c-.858,0-2.578.431-2.578,1.289v1.054h5.155V11.569C16.155,10.712,14.435,10.281,13.578,10.281Z" transform="translate(157.987 10305.376)"/>
    <path id="Path_3883" data-name="Path 3883" class="cls-3" d="M-3.375-.7V-5h.91V-.7Zm5.8,0H1.268L-.6-3.952H-.627q.056.86.056,1.228V-.7h-.813V-5H-.236L1.629-1.781h.021q-.044-.837-.044-1.183V-5h.819Z" transform="translate(180.37 10325.746)"/>
    <g id="ic_swap_horiz_24px" class="cls-4" transform="translate(171.7 10307.35)">
      <path class="cls-5" d="M 5.680150508880615 13.85891151428223 L 4.826150894165039 13.00277233123779 L 2.646000623703003 10.81715202331543 L 2.29378080368042 10.4640417098999 L 2.646000623703003 10.11093235015869 L 4.826150894165039 7.92532205581665 L 5.680150508880615 7.069191932678223 L 5.680150508880615 8.27843189239502 L 5.680150508880615 9.417641639709473 L 9.01045036315918 9.417641639709473 L 9.51045036315918 9.417641639709473 L 9.51045036315918 9.917641639709473 L 9.51045036315918 11.01045227050781 L 9.51045036315918 11.51045227050781 L 9.01045036315918 11.51045227050781 L 5.680150508880615 11.51045227050781 L 5.680150508880615 12.64966201782227 L 5.680150508880615 13.85891151428223 Z M 10.15513038635254 10.58047199249268 L 10.15513038635254 9.371232032775879 L 10.15513038635254 8.232022285461426 L 6.824830532073975 8.232022285461426 L 6.324830532073975 8.232022285461426 L 6.324830532073975 7.732021808624268 L 6.324830532073975 6.639212131500244 L 6.324830532073975 6.139212131500244 L 6.824830532073975 6.139212131500244 L 10.15513038635254 6.139212131500244 L 10.15513038635254 5.000001907348633 L 10.15513038635254 3.790751934051514 L 11.00913047790527 4.646892070770264 L 13.18928050994873 6.832511901855469 L 13.54150104522705 7.185621738433838 L 13.18928050994873 7.538732051849365 L 11.00913047790527 9.724342346191406 L 10.15513038635254 10.58047199249268 Z"/>
      <path class="cls-6" d="M 10.65513038635254 5.000001907348633 L 10.65513038635254 6.639211654663086 L 6.824831008911133 6.639211654663086 L 6.824831008911133 7.732022285461426 L 10.65513038635254 7.732022285461426 L 10.65513038635254 9.371232032775879 L 12.835280418396 7.185622215270996 L 10.65513038635254 5.000001907348633 M 5.180150985717773 8.27843189239502 L 3.000000953674316 10.46404266357422 L 5.180150985717773 12.64966201782227 L 5.180150985717773 11.01045227050781 L 9.01045036315918 11.01045227050781 L 9.01045036315918 9.917642593383789 L 5.180150985717773 9.917642593383789 L 5.180150985717773 8.27843189239502 M 9.655130386352539 2.581501960754395 L 11.36312103271484 4.293782234191895 L 13.54327011108398 6.479401588439941 L 14.24773025512695 7.185622215270996 L 13.54327011108398 7.891841888427734 L 11.36312103271484 10.07745170593262 L 10.01045036315918 11.43351173400879 L 10.01045036315918 12.01045227050781 L 9.01045036315918 12.01045227050781 L 6.180150985717773 12.01045227050781 L 6.180150985717773 12.64966201782227 L 6.180150985717773 15.0681619644165 L 4.472160339355469 13.35588264465332 L 2.292010307312012 11.17026138305664 L 1.587551116943359 10.46404266357422 L 2.292010307312012 9.757822036743164 L 4.472160339355469 7.572212219238281 L 5.824831008911133 6.216152191162109 L 5.824831008911133 5.639211654663086 L 6.824831008911133 5.639211654663086 L 9.655130386352539 5.639211654663086 L 9.655130386352539 5.000001907348633 L 9.655130386352539 2.581501960754395 Z M 9.655130386352539 8.732022285461426 L 6.824831008911133 8.732022285461426 L 6.180150985717773 8.732022285461426 L 6.180150985717773 8.917641639709473 L 9.01045036315918 8.917641639709473 L 9.655130386352539 8.917641639709473 L 9.655130386352539 8.732022285461426 Z"/>
    </g>
  </g>
</svg>
