<svg xmlns="http://www.w3.org/2000/svg" viewBox="0 0 21 21">
  <defs>
    <style>
      .cls-1 {
        fill: #d50000;
      }

      .cls-2, .cls-5 {
        fill: #fff;
      }

      .cls-3 {
        fill: #3b3b3b;
      }

      .cls-4, .cls-5 {
        stroke: none;
      }
    </style>
  </defs>
  <g id="paciente-com-prontuario-duplicado" transform="translate(-192.24 -3836)">
    <path id="ic_assignment_24px" class="cls-1" d="M16.757,2.657H13.163a2.6,2.6,0,0,0-4.849,0H4.72A1.694,1.694,0,0,0,3,4.314v11.6a1.694,1.694,0,0,0,1.72,1.657H16.757a1.694,1.694,0,0,0,1.72-1.657V4.314A1.694,1.694,0,0,0,16.757,2.657Zm-6.019,0a.847.847,0,0,1,.86.828.86.86,0,0,1-1.72,0A.847.847,0,0,1,10.738,2.657Zm1.72,11.6H6.439V12.6h6.019ZM6.439,10.942v0Zm0-3.314v0Z" transform="translate(194.763 3835)"/>
    <g id="ic_assignment_24px-2" data-name="ic_assignment_24px" class="cls-2" transform="translate(190.24 3838.191)">
      <path class="cls-4" d="M 16.95543098449707 18.30850028991699 L 4.744431495666504 18.30850028991699 C 3.506851673126221 18.30850028991699 2.500001668930054 17.33017158508301 2.500001668930054 16.12765121459961 L 2.500001668930054 4.361701011657715 C 2.500001668930054 3.159181118011475 3.506851673126221 2.180850982666016 4.744431495666504 2.180850982666016 L 8.066353797912598 2.180850982666016 C 8.592843055725098 1.162799477577209 9.670400619506836 0.500001072883606 10.84993171691895 0.500001072883606 C 12.0294713973999 0.500001072883606 13.10702228546143 1.162799477577209 13.63350200653076 2.180850982666016 L 16.95543098449707 2.180850982666016 C 18.19301223754883 2.180850982666016 19.19986152648926 3.159181118011475 19.19986152648926 4.361701011657715 L 19.19986152648926 16.12765121459961 C 19.19986152648926 17.33017158508301 18.19301223754883 18.30850028991699 16.95543098449707 18.30850028991699 Z"/>
      <path class="cls-5" d="M 10.84993171691895 1.000001907348633 C 9.716052055358887 1.000001907348633 8.756621360778809 1.705961227416992 8.390281677246094 2.680850982666016 L 4.74443244934082 2.680850982666016 C 3.784992218017578 2.680850982666016 3.000001907348633 3.437231063842773 3.000001907348633 4.361701011657715 L 3.000001907348633 16.12765121459961 C 3.000001907348633 17.05212020874023 3.784992218017578 17.80850028991699 4.74443244934082 17.80850028991699 L 16.9554328918457 17.80850028991699 C 17.91487121582031 17.80850028991699 18.69986152648926 17.05212020874023 18.69986152648926 16.12765121459961 L 18.69986152648926 4.361701011657715 C 18.69986152648926 3.437231063842773 17.91487121582031 2.680850982666016 16.9554328918457 2.680850982666016 L 13.30957126617432 2.680850982666016 C 12.94324207305908 1.705961227416992 11.983811378479 1.000001907348633 10.84993171691895 1.000001907348633 M 10.84993171691895 1.9073486328125e-06 C 12.1095552444458 1.9073486328125e-06 13.26935577392578 0.6533660888671875 13.92215156555176 1.680850982666016 L 16.9554328918457 1.680850982666016 C 18.46871185302734 1.680850982666016 19.69986152648926 2.883471488952637 19.69986152648926 4.361701011657715 L 19.69986152648926 16.12765121459961 C 19.69986152648926 17.60588073730469 18.46871185302734 18.80850028991699 16.9554328918457 18.80850028991699 L 4.74443244934082 18.80850028991699 C 3.231151580810547 18.80850028991699 2.000001907348633 17.60588073730469 2.000001907348633 16.12765121459961 L 2.000001907348633 4.361701011657715 C 2.000001907348633 2.883471488952637 3.231151580810547 1.680850982666016 4.74443244934082 1.680850982666016 L 7.777703285217285 1.680850982666016 C 8.430506706237793 0.6533718109130859 9.590316772460938 1.9073486328125e-06 10.84993171691895 1.9073486328125e-06 Z"/>
    </g>
    <path id="ic_assignment_24px-3" data-name="ic_assignment_24px" class="cls-3" d="M16.955,2.681H13.31a2.64,2.64,0,0,0-4.919,0H4.744A1.719,1.719,0,0,0,3,4.362V16.128a1.719,1.719,0,0,0,1.744,1.681H16.955A1.719,1.719,0,0,0,18.7,16.128V4.362A1.719,1.719,0,0,0,16.955,2.681Zm-6.106,0a.859.859,0,0,1,.872.84.873.873,0,0,1-1.744,0A.859.859,0,0,1,10.85,2.681Zm1.744,11.766H6.489V12.766h6.106Zm2.617-3.362H6.489V9.4h8.722Zm0-3.362H6.489V6.043h8.722Z" transform="translate(190.24 3838.191)"/>
  </g>
</svg>
