<svg xmlns="http://www.w3.org/2000/svg" viewBox="0 0 19.845 19.572">
  <defs>
    <style>
      .cls-1 {
        fill: #3b3b3b;
      }

      .cls-2 {
        fill: #d50000;
      }

      .cls-3 {
        fill: #00909f;
      }

      .cls-4, .cls-5 {
        stroke: none;
      }

      .cls-5 {
        fill: #fff;
      }
    </style>
  </defs>
  <g id="paciente-no-programa-de-transplante" transform="translate(-165.588 -7337.932)">
    <g id="noun_Organ_Donation_811139" data-name="noun_Organ Donation_811139" transform="translate(165.882 7330.085)">
      <g id="Group_182" data-name="Group 182" transform="translate(1.295 20.341)">
        <path id="Path_3845" data-name="Path 3845" class="cls-1" d="M15.358,48.63l-3.925,0a2.129,2.129,0,0,1-.449.776,1.6,1.6,0,0,1-2.023.043L7,47.523l.344-.423L9.3,49.023A.916.916,0,0,0,10.591,49a.893.893,0,0,0,.217-.383.934.934,0,0,0,.015-.457.9.9,0,0,0-.254-.44L7.13,44.3a3.644,3.644,0,0,0-.574-.437,1.976,1.976,0,0,0-.807-.2H.911v3.532l2.543-.007,4.112,3.136a1.8,1.8,0,0,0,1.017.417h6.754a1.068,1.068,0,0,0,1.029-1.131A1.052,1.052,0,0,0,15.358,48.63Z" transform="translate(-0.911 -43.66)"/>
      </g>
      <g id="Group_184" data-name="Group 184" transform="translate(8.338 13.372)">
        <g id="Group_183" data-name="Group 183" transform="translate(0 0)">
          <path id="Path_3846" data-name="Path 3846" class="cls-2" d="M71.8,25.356a2.062,2.062,0,0,1,.668.442c.007.006.012.014.019.021l.045-.029a2.7,2.7,0,0,0,.293-.242,5.6,5.6,0,0,0,1.382-2.359L73.477,23A4.854,4.854,0,0,1,72.3,25,2.154,2.154,0,0,1,71.8,25.356Z" transform="translate(-66.352 -21.291)"/>
          <path id="Path_3847" data-name="Path 3847" class="cls-2" d="M54.914,19.992a5.147,5.147,0,0,0-1.137-.251,17.994,17.994,0,0,0,1.619-.974l-.427-.621a15.955,15.955,0,0,1-2.087,1.2c-.174.079-.336.149-.49.214a3.419,3.419,0,0,1,.461,3.115.245.245,0,0,1-.466-.155c.006-.017.555-1.725-.4-2.684s-2.809-.261-2.828-.254a.245.245,0,1,1-.176-.458,4.334,4.334,0,0,1,2.407-.175,3.348,3.348,0,0,0,.75-.886c.831-1.416-1.34-4.476-4.208-2.359-4.671,3.448,1.138,13.052,6.412,9.551a2.484,2.484,0,0,0,.506-3.668,3.043,3.043,0,0,0-.35-.337,2.4,2.4,0,0,1,.479.121A2.926,2.926,0,0,1,56.809,23.3l.619-.272A4.775,4.775,0,0,0,54.914,19.992Z" transform="translate(-46.216 -14.978)"/>
        </g>
      </g>
    </g>
    <g id="ic_swap_horiz_24px" class="cls-3" transform="translate(164 7335.35)">
      <path class="cls-4" d="M 5.680150508880615 13.85891151428223 L 4.826150894165039 13.00277233123779 L 2.646000623703003 10.81715202331543 L 2.29378080368042 10.4640417098999 L 2.646000623703003 10.11093235015869 L 4.826150894165039 7.92532205581665 L 5.680150508880615 7.069191932678223 L 5.680150508880615 8.27843189239502 L 5.680150508880615 9.417641639709473 L 9.01045036315918 9.417641639709473 L 9.51045036315918 9.417641639709473 L 9.51045036315918 9.917641639709473 L 9.51045036315918 11.01045227050781 L 9.51045036315918 11.51045227050781 L 9.01045036315918 11.51045227050781 L 5.680150508880615 11.51045227050781 L 5.680150508880615 12.64966201782227 L 5.680150508880615 13.85891151428223 Z M 10.15513038635254 10.58047199249268 L 10.15513038635254 9.371232032775879 L 10.15513038635254 8.232022285461426 L 6.824830532073975 8.232022285461426 L 6.324830532073975 8.232022285461426 L 6.324830532073975 7.732021808624268 L 6.324830532073975 6.639212131500244 L 6.324830532073975 6.139212131500244 L 6.824830532073975 6.139212131500244 L 10.15513038635254 6.139212131500244 L 10.15513038635254 5.000001907348633 L 10.15513038635254 3.790751934051514 L 11.00913047790527 4.646892070770264 L 13.18928050994873 6.832511901855469 L 13.54150104522705 7.185621738433838 L 13.18928050994873 7.538732051849365 L 11.00913047790527 9.724342346191406 L 10.15513038635254 10.58047199249268 Z"/>
      <path class="cls-5" d="M 10.65513038635254 5.000001907348633 L 10.65513038635254 6.639211654663086 L 6.824831008911133 6.639211654663086 L 6.824831008911133 7.732022285461426 L 10.65513038635254 7.732022285461426 L 10.65513038635254 9.371232032775879 L 12.835280418396 7.185622215270996 L 10.65513038635254 5.000001907348633 M 5.180150985717773 8.27843189239502 L 3.000000953674316 10.46404266357422 L 5.180150985717773 12.64966201782227 L 5.180150985717773 11.01045227050781 L 9.01045036315918 11.01045227050781 L 9.01045036315918 9.917642593383789 L 5.180150985717773 9.917642593383789 L 5.180150985717773 8.27843189239502 M 9.655130386352539 2.581501960754395 L 11.36312103271484 4.293782234191895 L 13.54327011108398 6.479401588439941 L 14.24773025512695 7.185622215270996 L 13.54327011108398 7.891841888427734 L 11.36312103271484 10.07745170593262 L 10.01045036315918 11.43351173400879 L 10.01045036315918 12.01045227050781 L 9.01045036315918 12.01045227050781 L 6.180150985717773 12.01045227050781 L 6.180150985717773 12.64966201782227 L 6.180150985717773 15.0681619644165 L 4.472160339355469 13.35588264465332 L 2.292010307312012 11.17026138305664 L 1.587551116943359 10.46404266357422 L 2.292010307312012 9.757822036743164 L 4.472160339355469 7.572212219238281 L 5.824831008911133 6.216152191162109 L 5.824831008911133 5.639211654663086 L 6.824831008911133 5.639211654663086 L 9.655130386352539 5.639211654663086 L 9.655130386352539 5.000001907348633 L 9.655130386352539 2.581501960754395 Z M 9.655130386352539 8.732022285461426 L 6.824831008911133 8.732022285461426 L 6.180150985717773 8.732022285461426 L 6.180150985717773 8.917641639709473 L 9.01045036315918 8.917641639709473 L 9.655130386352539 8.917641639709473 L 9.655130386352539 8.732022285461426 Z"/>
    </g>
  </g>
</svg>
