<svg xmlns="http://www.w3.org/2000/svg" xmlns:xlink="http://www.w3.org/1999/xlink" viewBox="0 0 14.769 19.75">
  <defs>
    <style>
      .cls-1 {
        fill: #d6d6d6;
      }

      .cls-1, .cls-3 {
        stroke: #3b3b3b;
        stroke-width: 2px;
      }

      .cls-2 {
        fill: #3b3b3b;
      }

      .cls-3 {
        fill: #fff;
      }

      .cls-4 {
        stroke: none;
      }

      .cls-5, .cls-6 {
        fill: none;
      }

      .cls-5 {
        clip-path: url(#clip);
      }

      .cls-6 {
        clip-path: url(#clip-2);
      }
    </style>
    <clipPath id="clip">
      <use xlink:href="#fill"/>
    </clipPath>
    <clipPath id="clip-2">
      <use xlink:href="#fill-2"/>
    </clipPath>
  </defs>
  <g id="paciente-falecido" transform="translate(-195.369 -866.771)">
    <g id="Group_22" data-name="Group 22" transform="translate(24.369 379.559)">
      <path id="ic_assignment_turned_in_24px" class="cls-1" d="M15.173,1.6C11.4-1.2,9.5-1.946,5.6,1.6,4.575,2.606,4,3.314,4,4.192V15.365a1.6,1.6,0,0,0,1.6,1.6h9.577a1.6,1.6,0,0,0,1.6-1.6V4.192A3.677,3.677,0,0,0,15.173,1.6Z" transform="translate(168 489)"/>
    </g>
    <path id="Path_19" data-name="Path 19" class="cls-2" d="M-2.477-1.037V0h-.848V-2.855H-2.3q1.279,0,1.279.845a.841.841,0,0,1-.532.769L-.635,0H-1.6l-.665-1.04Zm0-.581h.159q.444,0,.444-.358,0-.3-.436-.3h-.167ZM0,0V-2.855H.854V0Zm4.16-1.95a.914.914,0,0,1-.31.74,1.331,1.331,0,0,1-.881.261H2.732V0H1.884V-2.855H2.971a1.419,1.419,0,0,1,.893.237A.809.809,0,0,1,4.162-1.946Zm-1.43.372h.155a.447.447,0,0,0,.3-.1.338.338,0,0,0,.113-.27q0-.289-.352-.289H2.732Z" transform="translate(202.471 880.069)"/>
    <g id="Group_23" data-name="Group 23" transform="translate(28)">
      <g id="Rectangle_2" data-name="Rectangle 2" class="cls-3" transform="translate(174 870.589)">
        <rect id="fill" class="cls-4" width="1" height="5"/>
        <path class="cls-5" d="M0,1h1M1,0v5M1,4h-1M0,5v-5"/>
      </g>
      <g id="Rectangle_3" data-name="Rectangle 3" class="cls-3" transform="translate(173 871.681)">
        <rect id="fill-2" class="cls-4" width="3" height="1"/>
        <path class="cls-6" d="M0,0h3M2,0v1M3,1h-3M1,1v-1"/>
      </g>
    </g>
  </g>
</svg>
