<svg xmlns="http://www.w3.org/2000/svg" viewBox="0 0 20 19">
  <defs>
    <style>
      .cls-1 {
        fill: #d5d5d5;
      }

      .cls-2 {
        fill: #3b3b3b;
      }
    </style>
  </defs>
  <g id="paciente-tem-outro-nome" transform="translate(-14 -1.644)">
    <g id="Group_7661" data-name="Group 7661" transform="translate(14 1.644)">
      <path id="Path_5559" data-name="Path 5559" class="cls-1" d="M3.864,21.457,1.741,20.294c.012-.012,0-.015-.023-.013L.678,19.711A1.308,1.308,0,0,1,0,18.564V17.253a6.83,6.83,0,0,0,.747-1.192h0c.048-.1.1-.2.143-.3l.019-.043c.048-.109.094-.221.138-.339l.008-.023c.039-.1.075-.211.109-.321l.027-.09c.036-.121.07-.245.1-.372a1.074,1.074,0,0,0,.494-.9V12.231a1.072,1.072,0,0,0-.357-.8V9.41a3.917,3.917,0,0,1,2.5-.766c3.415,0,3.572,2.87,3.572,2.87v1.792a.974.974,0,0,1,.357.687v1.239a.931.931,0,0,1-.426.78,5.151,5.151,0,0,1-1.343,2.318v1.132a1.129,1.129,0,0,0,.586.991L9.068,21.96a2.487,2.487,0,0,1,1.289,2.181v1h-5V23.983A2.879,2.879,0,0,0,3.864,21.457Z" transform="translate(9.643 -6.144)"/>
      <path id="Path_5558" data-name="Path 5558" class="cls-2" d="M28.13,16.981l-3.411-1.712A1.307,1.307,0,0,1,24,14.1V12.757a5.117,5.117,0,0,0,.323-.417,7.886,7.886,0,0,0,1.06-2.145,1.074,1.074,0,0,0,.76-1.023V7.738a1.071,1.071,0,0,0-.357-.795V4.87s.424-3.226-3.928-3.226S17.928,4.87,17.928,4.87V6.943a1.071,1.071,0,0,0-.357.795V9.172a1.076,1.076,0,0,0,.494.9,7.12,7.12,0,0,0,1.292,2.683v1.31a1.306,1.306,0,0,1-.678,1.146l-3.186,1.744A2.878,2.878,0,0,0,14,19.483v1.161H29.714V19.553A2.877,2.877,0,0,0,28.13,16.981Z" transform="translate(-14 -1.644)"/>
    </g>
  </g>
</svg>
