<svg xmlns="http://www.w3.org/2000/svg" viewBox="0 0 17.329 13.5">
  <defs>
    <style>
      .cls-1 {
        fill: #3caad5;
        stroke: #3caad5;
        stroke-width: 0.5px;
      }
    </style>
  </defs>
  <g id="pasta-historico-icon" transform="translate(-0.25 -11.45)">
    <path id="Path_4266" data-name="Path 4266" class="cls-1" d="M16.614,14.9H15.457V13.453a.682.682,0,0,0-.221-.527.747.747,0,0,0-.527-.221H6.132c-.017,0-.034,0-.034-.017l-.97-.817a.813.813,0,0,0-.476-.17H1.232a.693.693,0,0,0-.51.2.9.9,0,0,0-.221.562v11.5a.726.726,0,0,0,.732.732H14.793a.728.728,0,0,0,.715-.579l1.8-8.321a.471.471,0,0,0,.017-.153A.716.716,0,0,0,16.614,14.9ZM1.181,21.331V12.466c0-.017,0-.034.017-.034a.059.059,0,0,1,.034-.017H4.669c.017,0,.034,0,.034.017l.97.817a.813.813,0,0,0,.476.17h8.576c.017,0,.034,0,.034.017.017.017.017.017.017.034v1.446H3.154a.746.746,0,0,0-.715.579Zm13.664,2.654a.054.054,0,0,1-.051.051H1.3l1.787-8.389a.054.054,0,0,1,.051-.051H16.6c.034,0,.051.017.051.068Z" transform="translate(0 0)"/>
  </g>
</svg>
