<svg xmlns="http://www.w3.org/2000/svg" width="15.005" height="15.005" viewBox="0 0 15.005 15.005">
  <g id="período" transform="translate(1513.521 -1963)">
    <g id="visualizar-historico-1" transform="translate(-1514.521 1962)" fill="none">
      <path d="M8.5,1A7.5,7.5,0,1,0,16,8.5,7.5,7.5,0,0,0,8.5,1Z" stroke="none"/>
      <path d="M 8.501252174377441 1.999998092651367 L 8.501481056213379 1.999999046325684 C 4.916391372680664 2.000354766845703 2.000001907348633 4.917147636413574 2.000001907348633 8.502318382263184 C 2.000001907348633 12.08770847320557 4.916932106018066 15.004638671875 8.502322196960449 15.004638671875 C 12.08771228790283 15.004638671875 15.00464248657227 12.08770847320557 15.00464248657227 8.503388404846191 C 15.00081253051758 4.921237945556641 12.08340263366699 2.003828048706055 8.501252174377441 1.999998092651367 M 8.502322196960449 0.9999980926513672 C 12.64390182495117 1.004428863525391 16.00021171569824 4.360738754272461 16.00464248657227 8.502318382263184 C 16.00464248657227 12.64573860168457 12.64574241638184 16.004638671875 8.502322196960449 16.004638671875 C 4.358901977539063 16.004638671875 1.000001907348633 12.64573860168457 1.000001907348633 8.502318382263184 C 1.000001907348633 4.358898162841797 4.358901977539063 0.9999980926513672 8.502322196960449 0.9999980926513672 Z" stroke="none" fill="#004564"/>
    </g>
    <path id="Caminho_5560" data-name="Caminho 5560" d="M-1473.488,2007.924h4.815V2003.1" transform="translate(-37.358 -37.422)" fill="none" stroke="#004564" stroke-linecap="round" stroke-linejoin="round" stroke-width="1"/>
  </g>
</svg>
