<svg xmlns="http://www.w3.org/2000/svg" viewBox="0 0 10.996 12.122">
  <defs>
    <style>
      .cls-1 {
        fill: #3caad5;
      }
    </style>
  </defs>
  <path id="Path_4779" data-name="Path 4779" class="cls-1" d="M6.451,5.207a1.355,1.355,0,0,0-1.067-.592V1.539a.739.739,0,0,0,.541-.228A.739.739,0,0,0,6.154.769.739.739,0,0,0,5.925.228.739.739,0,0,0,5.385,0H1.538A.739.739,0,0,0,1,.228.739.739,0,0,0,.769.769.739.739,0,0,0,1,1.31a.739.739,0,0,0,.541.228V4.615a1.355,1.355,0,0,0-1.067.592A2.081,2.081,0,0,0,0,6.539a.37.37,0,0,0,.114.27.37.37,0,0,0,.27.114H2.813l.457,2.915A.177.177,0,0,0,3.462,10h.006a.168.168,0,0,0,.123-.051.222.222,0,0,0,.063-.123l.306-2.9H6.538a.39.39,0,0,0,.385-.385A2.081,2.081,0,0,0,6.451,5.207Z" transform="translate(5) rotate(30)"/>
</svg>
