<svg xmlns="http://www.w3.org/2000/svg" viewBox="0 0 15 15">
  <defs>
    <style>
      .cls-1 {
        fill: #bce9f7;
        opacity: 0.8;
      }

      .cls-2 {
        fill: #fff;
      }
    </style>
  </defs>
  <g id="Group_2" data-name="Group 2" transform="translate(-20 -181)">
    <circle id="Ellipse_125" data-name="Ellipse 125" class="cls-1" cx="7.5" cy="7.5" r="7.5" transform="translate(20 181)"/>
    <path id="Path_3795" data-name="Path 3795" class="cls-2" d="M5.876,4.847a1.27,1.27,0,0,0-1-.555V1.408a.693.693,0,0,0,.507-.214A.693.693,0,0,0,5.6.687.693.693,0,0,0,5.383.179a.693.693,0,0,0-.507-.214H1.27A.693.693,0,0,0,.763.179.693.693,0,0,0,.549.687a.693.693,0,0,0,.214.507.693.693,0,0,0,.507.214V4.292a1.27,1.27,0,0,0-1,.555A1.951,1.951,0,0,0-.172,6.1a.346.346,0,0,0,.107.254.347.347,0,0,0,.254.107H2.465l.428,2.733a.166.166,0,0,0,.18.152h.006a.158.158,0,0,0,.115-.048.208.208,0,0,0,.059-.116l.287-2.721H5.958a.366.366,0,0,0,.361-.36A1.951,1.951,0,0,0,5.876,4.847Z" transform="translate(27.163 182.991) rotate(30)"/>
  </g>
</svg>
