<svg xmlns="http://www.w3.org/2000/svg" viewBox="0 0 16 16">
  <defs>
    <style>
      .cls-1 {
        fill: none;
        stroke: #3b3b3b;
      }
    </style>
  </defs>
  <path id="produtos-corp-icon" class="cls-1" d="M15.5,5.158h-3V3.579A1.536,1.536,0,0,0,11,2H8A1.536,1.536,0,0,0,6.5,3.579V5.158h-3A1.53,1.53,0,0,0,2.007,6.737L2,15.421A1.536,1.536,0,0,0,3.5,17h12A1.536,1.536,0,0,0,17,15.421V6.737A1.536,1.536,0,0,0,15.5,5.158Zm-4.5,0H8V3.579h3Z" transform="translate(-1.5 -1.5)"/>
</svg>
