<svg xmlns="http://www.w3.org/2000/svg" viewBox="0 0 16.594 15.871">
  <defs>
    <style>
      .cls-1 {
        fill: #00909f;
      }

      .cls-2 {
        fill: #3b3b3b;
      }
    </style>
  </defs>
  <g id="prontuario-do-paciente" transform="translate(-1.16 -3.295)">
    <path id="Path_3826" data-name="Path 3826" class="cls-1" d="M29.975,70.5l.894-.471L29.4,69.27l-.058.031a1.72,1.72,0,0,0,.129,3.1.68.68,0,0,0,.265.054h.031a.68.68,0,0,0,.236-1.3.36.36,0,0,1-.027-.649Z" transform="translate(-22.632 -54.765)"/>
    <path id="Path_3827" data-name="Path 3827" class="cls-1" d="M35.747,44.557A1.7,1.7,0,0,0,34.7,43.047.68.68,0,0,0,34.437,43h-.031a.68.68,0,0,0-.234,1.3.36.36,0,0,1,.027.649l-2.117,1.1-2.115-1.111a.36.36,0,0,1,.027-.649.68.68,0,0,0-.236-1.3h-.031a.68.68,0,0,0-.265.054,1.72,1.72,0,0,0-.129,3.1L31.5,47.286,34.2,48.7a.36.36,0,0,1-.027.649.68.68,0,0,0,.238,1.293h.031a.68.68,0,0,0,.265-.054,1.72,1.72,0,0,0,.129-3.1l-1.279-.68,1.234-.646h0l.048-.025A1.7,1.7,0,0,0,35.747,44.557Z" transform="translate(-22.624 -32.958)"/>
    <path id="Path_3828" data-name="Path 3828" class="cls-2" d="M61.261,3.681A2.62,2.62,0,0,1,60.7,6.695V8.984a1.777,1.777,0,0,1,.454-.083h.082a1.808,1.808,0,0,1,.71.144,2.871,2.871,0,0,1,.94.644,1.456,1.456,0,0,0,1.359-1.453V7.619h.008a1.458,1.458,0,0,0,1.458-1.458V5.546h.008a1.458,1.458,0,0,0,1.458-1.458V3.3H63.011a4.214,4.214,0,0,0-1.75.381Z" transform="translate(-49.423 -0.004)"/>
    <path id="Path_3829" data-name="Path 3829" class="cls-2" d="M2.618,5.546h.01v.615A1.458,1.458,0,0,0,4.086,7.619h.008v.615A1.456,1.456,0,0,0,5.454,9.687a2.872,2.872,0,0,1,.875-.615,1.9,1.9,0,0,1,.51-.155,1.827,1.827,0,0,1,.34-.017,1.777,1.777,0,0,1,.454.082V6.695A2.62,2.62,0,0,1,7.08,3.681,4.214,4.214,0,0,0,5.33,3.3H1.16v.788A1.458,1.458,0,0,0,2.618,5.546Z" transform="translate(0 -0.004)"/>
    <path id="Path_3830" data-name="Path 3830" class="cls-2" d="M42.912,11.91a.318.318,0,0,0,.464-.277V6.116a1.492,1.492,0,0,0,.814-1.33A1.509,1.509,0,0,0,42.744,3.3a1.492,1.492,0,0,0-.727,2.821v5.335Z" transform="translate(-33.238 0)"/>
    <path id="Path_3831" data-name="Path 3831" class="cls-2" d="M47.359,78.431V76.222L46,75.51v2.921a.68.68,0,1,0,1.359,0Z" transform="translate(-37.221 -59.945)"/>
  </g>
</svg>
