<svg xmlns="http://www.w3.org/2000/svg" width="15.005" height="14.032" viewBox="0 0 15.005 14.032">
  <g id="raio-x" transform="translate(765.988 5344.615)">
    <g id="bone" transform="translate(-763.824 -5342.857)">
      <path id="Caminho_5578" data-name="Caminho 5578" d="M202.533,194.37a1.658,1.658,0,0,0-.248-2.093,1.774,1.774,0,0,0-2.45,0,1.659,1.659,0,0,0-.412.632,1.723,1.723,0,0,0-.649.4l-.051.051a1.662,1.662,0,0,0,.05,2.347,1.766,1.766,0,0,0,2.15.232l1.565,1.517a.236.236,0,0,0,.328,0l1.274-1.235a.236.236,0,0,0,0-.339Zm.119,2.585-1.541-1.494a.236.236,0,0,0-.311-.015,1.293,1.293,0,0,1-1.7-.083,1.19,1.19,0,0,1-.037-1.681l.038-.038a1.256,1.256,0,0,1,.566-.317.236.236,0,0,0,.17-.166,1.189,1.189,0,0,1,.325-.545,1.3,1.3,0,0,1,1.8,0,1.186,1.186,0,0,1,.083,1.626.236.236,0,0,0,.015.322l1.53,1.484Zm0,0" transform="translate(-193.586 -187.268)" fill="#1976d2" stroke="#1976d2" stroke-width="0.3"/>
      <path id="Caminho_5579" data-name="Caminho 5579" d="M5.6,4.646l.051-.051A1.661,1.661,0,0,0,5.6,2.247a1.766,1.766,0,0,0-2.15-.232L1.674.292a.236.236,0,0,0-.328,0L.072,1.527a.236.236,0,0,0,0,.339L1.841,3.581a1.658,1.658,0,0,0,.248,2.093,1.774,1.774,0,0,0,2.45,0,1.659,1.659,0,0,0,.412-.632,1.725,1.725,0,0,0,.649-.4ZM4.537,4.79a1.188,1.188,0,0,1-.325.545,1.3,1.3,0,0,1-1.8,0,1.186,1.186,0,0,1-.083-1.626.236.236,0,0,0-.015-.322L.575,1.7,1.51.79l1.753,1.7a.236.236,0,0,0,.311.015,1.293,1.293,0,0,1,1.7.083,1.189,1.189,0,0,1,.037,1.681l-.038.038a1.254,1.254,0,0,1-.566.317.236.236,0,0,0-.17.166Zm0,0" transform="translate(0 -0.225)" fill="#1976d2" stroke="#1976d2" stroke-width="0.3"/>
    </g>
    <g id="ultrasound" transform="translate(-765.988 -5344.615)">
      <g id="Agrupar_7857" data-name="Agrupar 7857" transform="translate(10.931 1.756)">
        <g id="Agrupar_7856" data-name="Agrupar 7856">
          <path id="Caminho_5607" data-name="Caminho 5607" d="M445.825,163.142a.482.482,0,1,0,.142.342A.486.486,0,0,0,445.825,163.142Z" transform="translate(-445 -163)" fill="#1976d2"/>
        </g>
      </g>
      <g id="Agrupar_7861" data-name="Agrupar 7861" transform="translate(0 0)">
        <g id="Agrupar_7860" data-name="Agrupar 7860">
          <path id="Caminho_5609" data-name="Caminho 5609" d="M101.117,40H87.888A.964.964,0,0,0,87,41.024V53.007a.964.964,0,0,0,.888,1.024h13.229A.964.964,0,0,0,102,53.007V41.024A.964.964,0,0,0,101.117,40Zm0,13.007H87.888V41.024h13.229V53.007Z" transform="translate(-87 -40)" fill="#1976d2"/>
        </g>
      </g>
      <g id="Agrupar_7865" data-name="Agrupar 7865" transform="translate(1.932 10.64)">
        <g id="Agrupar_7864" data-name="Agrupar 7864">
          <path id="Caminho_5611" data-name="Caminho 5611" d="M129.19,80h-1.707a.483.483,0,0,0,0,.966h1.707a.483.483,0,0,0,0-.966Z" transform="translate(-127 -80)" fill="#1976d2"/>
        </g>
      </g>
    </g>
  </g>
</svg>
