<svg xmlns="http://www.w3.org/2000/svg" width="15.231" height="15.199" viewBox="0 0 15.231 15.199">
  <g id="Reconstituição" transform="translate(-2.381 -2.412)">
    <path id="Caminho_5324" data-name="Caminho 5324" d="M3.054,8.761l3.8,3.8-2.258,2.26L3.236,13.462a.41.41,0,0,0-.6,0,.425.425,0,0,0,0,.6l3.315,3.319a.424.424,0,0,0,.6-.6L5.194,15.422l2.273-2.244,3.8,3.8a.424.424,0,1,0,.6-.6l-1.433-1.434,5.762-5.768a.432.432,0,0,0,.111-.411L15,5.624l2.384-2.386a.411.411,0,0,0,0-.6.424.424,0,0,0-.6,0L14.4,5.007,11.26,3.7a.487.487,0,0,0-.41.111L5.087,9.594,3.653,8.16a.424.424,0,1,0-.6.6ZM11.291,4.6l2.886,1.244,1.244,2.888-.837.838L13.463,8.448a.424.424,0,1,0-.6.6l1.121,1.122-.979.98-1.121-1.122a.41.41,0,0,0-.6,0,.425.425,0,0,0,0,.6l1.121,1.122-.979.98-1.121-1.122a.424.424,0,0,0-.6.6l1.121,1.122-.979.98L5.7,10.195Z" fill="#1c3952" stroke="#1c3952" stroke-width="0.2"/>
  </g>
</svg>
