<svg xmlns="http://www.w3.org/2000/svg" viewBox="0 0 15.805 20.25">
  <defs>
    <style>
      .cls-1 {
        fill: #fff;
        stroke: #fff;
        stroke-width: 0.25px;
      }
    </style>
  </defs>
  <g id="Group_5486" data-name="Group 5486" transform="translate(0.125 0.124)">
    <path id="Path_4373" data-name="Path 4373" class="cls-1" d="M16.333,957.362A1.34,1.34,0,0,0,15,958.7v17.333a1.34,1.34,0,0,0,1.333,1.333H29.222a1.34,1.34,0,0,0,1.333-1.333V958.7a1.34,1.34,0,0,0-1.333-1.333Zm0,.889H29.222a.434.434,0,0,1,.444.444v17.333a.434.434,0,0,1-.444.444H16.333a.434.434,0,0,1-.444-.444V958.7A.434.434,0,0,1,16.333,958.251Zm1.778,2.222a.444.444,0,1,0,0,.889h9.333a.444.444,0,1,0,0-.889Zm0,4a.444.444,0,1,0,0,.889h9.333a.444.444,0,1,0,0-.889Zm0,4a.444.444,0,0,0,0,.889h9.333a.444.444,0,0,0,0-.889Zm10.194,1.771a.449.449,0,0,0-.3.146l-2.618,2.819-1.458-1.1a.444.444,0,1,0-.528.715l1.778,1.333a.46.46,0,0,0,.59-.056l2.889-3.111a.444.444,0,0,0-.354-.75Zm-10.194,2.229a.444.444,0,0,0,0,.889h3.778a.444.444,0,0,0,0-.889Z" transform="translate(-15 -957.362)"/>
  </g>
</svg>
