<svg xmlns="http://www.w3.org/2000/svg" viewBox="0 0 15.994 18.13">
  <defs>
    <style>
      .cls-1 {
        fill: #3b3b3b;
      }
    </style>
  </defs>
  <g id="religiao-judaica" transform="translate(-4.259 -5)">
    <path id="Path_3809" data-name="Path 3809" class="cls-1" d="M23.7,14.065l2.6-4.351H21.117L18.3,5l-2.82,4.714H10.3l2.6,4.351-2.6,4.351h5.177L18.3,23.13l2.82-4.714h5.177Zm.4-3.1-1.108,1.894-1.128-1.894Zm-1.833,3.1-1.853,3.1h-4.23l-1.853-3.1,1.853-3.1h4.23ZM18.3,7.417l1.37,2.3h-2.74Zm-5.8,3.545h2.256l-1.128,1.894Zm0,6.2,1.128-1.894,1.128,1.894Zm5.8,3.545-1.37-2.3h2.74Zm4.694-5.439,1.128,1.894H21.863Z" transform="translate(-6.041 0)"/>
  </g>
</svg>
