<svg xmlns="http://www.w3.org/2000/svg" viewBox="0 0 16.806 16.425">
  <defs>
    <style>
      .cls-1 {
        fill: #d50000;
      }

      .cls-2 {
        fill: #3b3b3b;
      }
    </style>
  </defs>
  <g id="testemunha-de-jeova" transform="translate(-272.288 -4265.356)">
    <g id="noun_transfusion_1067186" transform="translate(272.288 4265.356)">
      <path id="Path_3824" data-name="Path 3824" class="cls-1" d="M74.556,23.049H73.272V21.767a.417.417,0,0,0-.417-.417h-.737a.417.417,0,0,0-.417.417v1.284H70.417a.417.417,0,0,0-.417.417v.737a.417.417,0,0,0,.417.417H71.7v1.284a.417.417,0,0,0,.417.417h.736a.417.417,0,0,0,.417-.417V24.62h1.284a.417.417,0,0,0,.418-.415v-.737a.417.417,0,0,0-.417-.418Z" transform="translate(-58.167 -18.046)"/>
      <path id="Path_3825" data-name="Path 3825" class="cls-2" d="M11.649,2.813a17.852,17.852,0,0,0-10.106,0,.761.761,0,0,0-.526.909,19.266,19.266,0,0,1,0,8.931.761.761,0,0,0,.526.905,16.994,16.994,0,0,0,1.729.415v1.245a.763.763,0,0,0,1.525,0V14.189q.514.053,1.029.075v2.83a1.413,1.413,0,0,0,1.413,1.413H10.7a.763.763,0,1,0,0-1.525H7.359V11.5a14.075,14.075,0,0,0,1.777-.209,20.222,20.222,0,0,1-.146-4.85A9.8,9.8,0,0,1,4.2,6.382a20.235,20.235,0,0,1-.139,4.91,14.078,14.078,0,0,0,1.775.209v1.25a16.35,16.35,0,0,1-3.174-.463,20.822,20.822,0,0,0,0-8.2,16.322,16.322,0,0,1,7.875,0,20.817,20.817,0,0,0,0,8.2,16.366,16.366,0,0,1-2.137.379v2.557a.763.763,0,0,0,1.525,0V13.978q.871-.171,1.729-.415a.761.761,0,0,0,.526-.909,19.261,19.261,0,0,1,0-8.931.761.761,0,0,0-.528-.911Z" transform="translate(-0.996 -2.083)"/>
    </g>
    <g id="noun_transfusion_1067186-2" data-name="noun_transfusion_1067186" transform="translate(275.352 4269.654)">
      <path id="Path_3825-2" data-name="Path 3825" class="cls-1" d="M5.573,13.91v2.83a1.413,1.413,0,0,0,1.413,1.413h3.462a.763.763,0,1,0,0-1.525H7.106V11.146a14.076,14.076,0,0,0,1.777-.209,20.222,20.222,0,0,1-.146-4.85,9.8,9.8,0,0,1-4.791-.06,20.235,20.235,0,0,1-.139,4.91,14.078,14.078,0,0,0,1.775.209V12.4Z" transform="translate(-3.807 -6.027)"/>
    </g>
  </g>
</svg>
