<svg xmlns="http://www.w3.org/2000/svg" viewBox="0 0 19.975 14.283">
  <defs>
    <style>
      .cls-1 {
        fill: none;
        stroke: #1c3952;
      }
    </style>
  </defs>
  <path id="ic_supervisor_account_24px" class="cls-1" d="M15.757,11.641a2.372,2.372,0,1,0-2.372-2.372A2.365,2.365,0,0,0,15.757,11.641Zm-7.116-.949A2.846,2.846,0,1,0,5.8,7.846,2.834,2.834,0,0,0,8.641,10.693Zm7.116,2.846c-1.736,0-5.218.873-5.218,2.609v2.135H20.975V16.148C20.975,14.412,17.493,13.539,15.757,13.539ZM8.641,12.59C6.431,12.59,2,13.7,2,15.911v2.372H8.641V16.148a3.739,3.739,0,0,1,2.249-3.292A11.654,11.654,0,0,0,8.641,12.59Z" transform="translate(-1.5 -4.5)"/>
</svg>
