<svg xmlns="http://www.w3.org/2000/svg" width="11.636" height="15" viewBox="0 0 11.636 15">
  <g id="resumo" transform="translate(2063 -2526)">
    <path id="Caminho_5142" data-name="Caminho 5142" d="M117.59,72.464V71.3l-1.99,2h1.154A.83.83,0,0,0,117.59,72.464Z" transform="translate(-2178 2455)" fill="#3b3b3b"/>
    <path id="Caminho_5143" data-name="Caminho 5143" d="M114.393,60h-6.987v1.806a1.594,1.594,0,0,1-1.6,1.6H104V73.779A1.236,1.236,0,0,0,105.24,75H114.4a1.238,1.238,0,0,0,1.24-1.221V61.221A1.241,1.241,0,0,0,114.393,60Zm-7.837,12.283h-1.129a.306.306,0,0,1,0-.612h1.129a.306.306,0,1,1,0,.612Zm0-3.061h-1.129a.306.306,0,0,1,0-.612h1.129a.306.306,0,1,1,0,.612Zm0-3.061h-1.129a.306.306,0,0,1,0-.612h1.129a.306.306,0,1,1,0,.612Zm7.653,6.122H108.1a.306.306,0,0,1,0-.612h6.1a.307.307,0,0,1,.306.306A.3.3,0,0,1,114.209,72.283Zm0-3.061H108.1a.306.306,0,0,1,0-.612h6.1a.307.307,0,0,1,.306.306A.3.3,0,0,1,114.209,69.222Zm0-3.061H108.1a.306.306,0,0,1,0-.612h6.1a.307.307,0,0,1,.306.306A.3.3,0,0,1,114.209,66.161Z" transform="translate(-2167 2466)" fill="#3b3b3b"/>
  </g>
</svg>
