<svg xmlns="http://www.w3.org/2000/svg" xmlns:xlink="http://www.w3.org/1999/xlink" viewBox="0 0 174.036 154.227">
  <defs>
    <style>
      .cls-1, .cls-12, .cls-5, .cls-7 {
        fill: none;
      }

      .cls-1 {
        stroke: #707070;
      }

      .cls-2 {
        fill: #f8f8f8;
      }

      .cls-3 {
        fill: #def3fc;
      }

      .cls-4, .cls-9 {
        fill: #fff;
      }

      .cls-5, .cls-7 {
        stroke: #e8e8e8;
      }

      .cls-5 {
        stroke-linejoin: round;
      }

      .cls-5, .cls-7, .cls-9 {
        stroke-width: 3px;
      }

      .cls-6 {
        clip-path: url(#clip-path);
      }

      .cls-8 {
        clip-path: url(#clip-path-2);
      }

      .cls-10, .cls-9 {
        stroke: #fff;
      }

      .cls-10 {
        fill: #e8e8e8;
        stroke-width: 4.5px;
      }

      .cls-11 {
        stroke: none;
      }
    </style>
    <clipPath id="clip-path">
      <path id="Path_4773" data-name="Path 4773" class="cls-1" d="M-3522.5-815.221v-18.826h66.974V-790.1h59.875v109.209h-71.311Z" transform="translate(3522.498 834.047)"/>
    </clipPath>
    <clipPath id="clip-path-2">
      <path id="Path_4774" data-name="Path 4774" class="cls-1" d="M-3485.685-671.048H-3588V-784.961s47.7-13.79,73.283,14.689S-3485.685-671.048-3485.685-671.048Z" transform="translate(3588 788.299)"/>
    </clipPath>
  </defs>
  <g id="Group_6579" data-name="Group 6579" transform="translate(-228.73 -276.081)">
    <ellipse id="Ellipse_821" data-name="Ellipse 821" class="cls-2" cx="53.082" cy="53.082" rx="53.082" ry="53.082" transform="translate(273.198 299.312)"/>
    <g id="Group_5682" data-name="Group 5682" transform="translate(322.568 282.73) rotate(9)">
      <g id="Group_5681" data-name="Group 5681" transform="translate(8.829 0.112) rotate(7)">
        <path id="Path_4715" data-name="Path 4715" class="cls-3" d="M31.705,25.991,28.3,1.758A2.038,2.038,0,0,0,27.508.409a2.166,2.166,0,0,0-1.513-.4L1.762,3.421a2.038,2.038,0,0,0-1.349.791,2.065,2.065,0,0,0-.4,1.513L3.424,29.957a2.052,2.052,0,0,0,2.3,1.745l24.233-3.407A2.044,2.044,0,0,0,31.705,25.991Zm-6.569-1.322a2.044,2.044,0,0,1-2.3-1.745,31.7,31.7,0,0,0-.709-3.435L10.852,21.071c.055,2.017.259,3.475.259,3.5a2.043,2.043,0,0,1-4.048.559A39.025,39.025,0,0,1,6.927,16.6c.859-8.055,4.566-10.249,7.537-10.672s7.155.668,10.195,8.178a39.013,39.013,0,0,1,2.222,8.232A2.063,2.063,0,0,1,25.136,24.669Z" transform="translate(0 40.711)"/>
        <path id="Path_4716" data-name="Path 4716" class="cls-3" d="M4.034.033C1.826.347.477,2.677,0,6.957L9.813,5.58C8.518,2.4,6.6-.335,4.034.033Z" transform="translate(11.002 50.682)"/>
        <path id="Path_4717" data-name="Path 4717" class="cls-3" d="M10.358,1.377.545,0,0,3.843,9.813,5.22a1.941,1.941,0,0,0,.545-3.843Z" transform="translate(30.629 9.159)"/>
        <path id="Path_4718" data-name="Path 4718" class="cls-3" d="M10.358,1.377.545,0,0,3.843,9.813,5.22a1.939,1.939,0,0,0,2.194-1.649A1.909,1.909,0,0,0,11.64,2.14,2.005,2.005,0,0,0,10.358,1.377Z" transform="translate(29.525 17.05)"/>
        <path id="Path_4719" data-name="Path 4719" class="cls-3" d="M27.512,31.307a1.986,1.986,0,0,0,.79-1.349L31.71,5.724a2.043,2.043,0,0,0-1.745-2.3L5.733.014A2.014,2.014,0,0,0,5.446,0,2.028,2.028,0,0,0,3.429,1.758L.022,25.991a2.043,2.043,0,0,0,1.745,2.3L26,31.7A2.065,2.065,0,0,0,27.512,31.307ZM25.236,21.194a6.066,6.066,0,0,1-6.815,5.138L6.591,24.656a2.052,2.052,0,0,1-1.745-2.3L7.068,6.569a2.043,2.043,0,0,1,2.3-1.745L21.216,6.488A6.032,6.032,0,0,1,24.3,17.037,6.029,6.029,0,0,1,25.236,21.194Z" transform="translate(20.344 0)"/>
        <path id="Path_4720" data-name="Path 4720" class="cls-3" d="M.412,4.211a2.065,2.065,0,0,0-.4,1.513L3.424,29.957a2.052,2.052,0,0,0,2.3,1.745l24.233-3.407a2.059,2.059,0,0,0,1.745-2.3L28.3,1.758A2.038,2.038,0,0,0,27.508.409a2.167,2.167,0,0,0-1.513-.4L1.762,3.421A1.986,1.986,0,0,0,.412,4.211Zm14.57,1.649a10.009,10.009,0,0,1,9.363,3.857A2.042,2.042,0,0,1,21.1,12.2a5.918,5.918,0,1,0,.818,5.738,2.041,2.041,0,1,1,3.8,1.486,10.06,10.06,0,0,1-7.932,6.283,9.853,9.853,0,0,1-1.4.1,10.02,10.02,0,0,1-1.4-19.94Z" transform="translate(40.711 40.725)"/>
        <path id="Path_4722" data-name="Path 4722" class="cls-4" d="M2.328,21.009A2,2,0,0,0,2.614,21a2.052,2.052,0,0,0,1.745-2.3c0-.027-.2-1.486-.259-3.5l11.272-1.581a33.087,33.087,0,0,1,.709,3.435,2.043,2.043,0,0,0,4.048-.559,39.762,39.762,0,0,0-2.222-8.232C14.867.742,10.683-.334,7.712.075S1.019,2.678.174,10.746a39.077,39.077,0,0,0,.136,8.532A2.049,2.049,0,0,0,2.328,21.009ZM8.3,4.109c2.576-.354,4.484,2.385,5.779,5.547L4.263,11.033C4.74,6.739,6.09,4.409,8.3,4.109Z" transform="translate(6.739 46.606)"/>
        <path id="Path_4724" data-name="Path 4724" class="cls-4" d="M1.753,19.866l11.83,1.663a5.866,5.866,0,0,0,.845.055,6.039,6.039,0,0,0,5.97-5.193,5.958,5.958,0,0,0-.94-4.157,6.032,6.032,0,0,0-3.08-10.549L4.547.022a2.043,2.043,0,0,0-2.3,1.745L.022,17.549A2.03,2.03,0,0,0,1.753,19.866ZM5.991,4.37,15.8,5.746a1.941,1.941,0,1,1-.545,3.843L5.446,8.213Zm-1.1,7.891L14.7,13.638a1.923,1.923,0,0,1,1.281.75,1.866,1.866,0,0,1,.368,1.431,1.939,1.939,0,0,1-2.194,1.649L4.342,16.091Z" transform="translate(25.183 4.789)"/>
        <path id="Path_4726" data-name="Path 4726" class="cls-4" d="M10.022,20.033a9.853,9.853,0,0,0,1.4-.1,10.02,10.02,0,0,0,7.932-6.283,2.041,2.041,0,1,0-3.8-1.486,5.932,5.932,0,1,1-.818-5.738A2.042,2.042,0,0,0,17.982,3.95a10.014,10.014,0,1,0-7.96,16.083Z" transform="translate(47.048 46.479)"/>
      </g>
      <g id="Rectangle_2671" data-name="Rectangle 2671" class="cls-5" transform="translate(0.812 41.574)">
        <rect class="cls-11" width="33.12" height="33.12"/>
        <rect class="cls-12" x="1.5" y="1.5" width="30.12" height="30.12"/>
      </g>
      <g id="Rectangle_2673" data-name="Rectangle 2673" class="cls-5" transform="matrix(0.966, 0.259, -0.259, 0.966, 31.212, 0)">
        <rect class="cls-11" width="33.12" height="33.12"/>
        <rect class="cls-12" x="1.5" y="1.5" width="30.12" height="30.12"/>
      </g>
      <g id="Rectangle_2672" data-name="Rectangle 2672" class="cls-5" transform="matrix(1, -0.017, 0.017, 1, 41.216, 46.597)">
        <rect class="cls-11" width="33.12" height="33.12"/>
        <rect class="cls-12" x="1.5" y="1.5" width="30.12" height="30.12"/>
      </g>
    </g>
    <g id="Mask_Group_277" data-name="Mask Group 277" class="cls-6" transform="translate(275.917 276.081)">
      <g id="Ellipse_823" data-name="Ellipse 823" class="cls-7" transform="matrix(-0.966, -0.259, 0.259, -0.966, 104.038, 170.037)">
        <ellipse class="cls-11" cx="76.218" cy="76.218" rx="76.218" ry="76.218"/>
        <ellipse class="cls-12" cx="76.218" cy="76.218" rx="74.718" ry="74.718"/>
      </g>
    </g>
    <g id="Mask_Group_278" data-name="Mask Group 278" class="cls-8" transform="translate(228.73 313.057)">
      <g id="Group_5680" data-name="Group 5680" transform="translate(-13.417 25.277) rotate(-30)">
        <path id="Path_4711" data-name="Path 4711" class="cls-9" d="M32.109,122.141h7.016A32.145,32.145,0,0,0,71.234,90.033V35.245A35.619,35.619,0,0,0,0,35.245V90.033A32.145,32.145,0,0,0,32.109,122.141Z" transform="translate(0 0)"/>
      </g>
      <g id="Group_5677" data-name="Group 5677" transform="translate(-14.193 24.501) rotate(-30)">
        <path id="Path_4711-2" data-name="Path 4711" class="cls-10" d="M32.109,122.141h7.016A32.145,32.145,0,0,0,71.234,90.033V35.245A35.619,35.619,0,0,0,0,35.245V90.033A32.145,32.145,0,0,0,32.109,122.141ZM6.191,35.245a30.454,30.454,0,0,1,.165-3.1A29.248,29.248,0,0,1,25.836,7.841a9.477,9.477,0,0,0-.248,2.187A10.029,10.029,0,0,0,42.922,16.9,3.1,3.1,0,1,0,38.4,12.67a3.833,3.833,0,1,1-2.786-6.459A29.334,29.334,0,0,1,64.878,32.171a29.1,29.1,0,0,1,0,6.191,29.471,29.471,0,0,1-58.522,0c-.1-1.052-.165-2.084-.165-3.116ZM35.617,92.282c-17.251-8.77-28.56-23.07-29.364-37.144a35.825,35.825,0,0,0,58.77,0c-.619,10.565-7.2,21.44-18.283,30.107A71.687,71.687,0,0,1,35.617,92.282ZM6.191,90.033V74.164a53.845,53.845,0,0,0,3.921,5.592A67.612,67.612,0,0,0,28.456,95.418,61.4,61.4,0,0,1,7.945,99.463,26.49,26.49,0,0,1,6.191,90.033Zm23.937,11.391a70.589,70.589,0,0,0,6.727-2.848c.083-.041.165-.083.268-.124a74.174,74.174,0,0,0,13.413-8.337A60.09,60.09,0,0,0,65.064,74.123v15.91a25.949,25.949,0,0,1-25.918,25.918H32.129a25.88,25.88,0,0,1-20.78-10.442A67.632,67.632,0,0,0,30.128,101.423Z" transform="translate(0 0)"/>
        <path id="Path_4712" data-name="Path 4712" class="cls-10" d="M1.176,10.9a4.621,4.621,0,0,0,3.879,2.27A4.621,4.621,0,0,0,8.935,10.9a7.28,7.28,0,0,0,1.094-3.1,7.87,7.87,0,0,0,.083-1.217A9.2,9.2,0,0,0,9.926,4.7C9.327,1.919,7.449,0,5.056,0,2.683,0,.784,1.919.186,4.7A9.2,9.2,0,0,0,0,6.583,7.874,7.874,0,0,0,.083,7.8,7.381,7.381,0,0,0,1.176,10.9Z" transform="translate(41.89 27.445)"/>
        <path id="Path_4713" data-name="Path 4713" class="cls-10" d="M1.176,10.9a4.621,4.621,0,0,0,3.879,2.27A4.621,4.621,0,0,0,8.935,10.9a7.28,7.28,0,0,0,1.094-3.1,7.87,7.87,0,0,0,.083-1.217A9.2,9.2,0,0,0,9.926,4.7C9.327,1.919,7.449,0,5.056,0S.784,1.919.186,4.7A9.2,9.2,0,0,0,0,6.583,7.869,7.869,0,0,0,.083,7.8,7.381,7.381,0,0,0,1.176,10.9Z" transform="translate(19.253 27.445)"/>
        <path id="Path_4714" data-name="Path 4714" class="cls-10" d="M.913.913a3.076,3.076,0,0,0,0,4.375,14.953,14.953,0,0,0,10.607,4.4,14.918,14.918,0,0,0,10.607-4.4A3.093,3.093,0,0,0,17.752.913a8.83,8.83,0,0,1-12.484,0A3.089,3.089,0,0,0,.913.913Z" transform="translate(24.097 45.971)"/>
      </g>
    </g>
  </g>
</svg>
