<svg xmlns="http://www.w3.org/2000/svg" xmlns:xlink="http://www.w3.org/1999/xlink" viewBox="0 0 318.586 257.644">
  <defs>
    <style>
      .cls-1, .cls-6, .cls-9 {
        fill: none;
      }

      .cls-1 {
        stroke: #efefef;
        stroke-width: 2px;
      }

      .cls-2 {
        fill: #f8f8f8;
      }

      .cls-3 {
        fill: #fff;
      }

      .cls-3, .cls-6 {
        stroke: #e8e8e8;
        stroke-width: 3px;
      }

      .cls-4 {
        fill: #e8e8e8;
      }

      .cls-5 {
        fill: #def3fc;
      }

      .cls-7 {
        clip-path: url(#clip-path);
      }

      .cls-8 {
        stroke: none;
      }
    </style>
    <clipPath id="clip-path">
      <path id="Path_3832" data-name="Path 3832" class="cls-1" d="M125.118,13.155,125,38.787,58.915,154.471,73.2,206.041l-4.907,33.69L20.739,190.963l-7.11-74.254,19.645-49.38L75.444,28.89Z" transform="translate(0 0)"/>
    </clipPath>
  </defs>
  <g id="Symbol_8_10" data-name="Symbol 8 – 10" transform="translate(-568.335 -268.934)">
    <ellipse id="Ellipse_137" data-name="Ellipse 137" class="cls-2" cx="78.591" cy="78.591" rx="78.591" ry="78.591" transform="translate(827.462 450.375) rotate(151)"/>
    <g id="Group_3012" data-name="Group 3012" transform="translate(-18 26)">
      <path id="Path_3825" data-name="Path 3825" class="cls-3" d="M4878.616,899.01l-9.568-11.648s-7.488-9.568,0-14.561,31.617-17.889,31.617-17.889,4.992-2.08,8.736,0,32.865,17.889,32.865,17.889,8.736,4.576,0,14.561-11.232,11.648-11.232,11.648" transform="translate(-4223 -596)"/>
      <path id="Path_3829" data-name="Path 3829" class="cls-4" d="M58.183,21.825V16.683h5.142V11.542H58.183V6.4H53.042v5.142H47.9v5.142h5.142v5.142Z" transform="translate(627.405 265.957)"/>
      <path id="Path_3827" data-name="Path 3827" class="cls-5" d="M176.678,89.155A27.715,27.715,0,0,0,159.95,63.691a24.473,24.473,0,0,0,.743-6.319,27.842,27.842,0,0,0-27.88-27.88,29.914,29.914,0,0,0-8.921,1.487A55.84,55.84,0,0,0,93.039,21.5a53.958,53.958,0,0,0-30.853,9.479,28.964,28.964,0,0,0-8.921-1.487,27.842,27.842,0,0,0-27.88,27.88,23.554,23.554,0,0,0,.743,6.319A27.912,27.912,0,0,0,9.4,89.155a27.532,27.532,0,0,0,8.736,20.259A36.18,36.18,0,0,0,9.4,132.833c0,12.639,5.461,23.762,16.241,30.267,5.39-3.717,9.049-3.534,19.823-6.981a144.384,144.384,0,0,1,23.6-4.913V138.223c-14.312-8.178-19.905-20.43-23.976-41.262V77.073s18.638,3.124,32.038,0,19.446-5.762,25.022-15.427l2.788-4.461,2.05.186c4.832,12.081,13.837,20.365,31.406,19.7h2.416V96.961c-3.671,24.328-9.149,33.569-23.46,41.747v12.5l15.428,2.586c6.691,1.115,22.276,6.022,27.667,9.739,10.78-6.505,16.052-18.059,16.052-30.7a35.812,35.812,0,0,0-8.736-23.419A27.319,27.319,0,0,0,176.678,89.155Z" transform="translate(590.071 274.646)"/>
      <path id="Path_3826" data-name="Path 3826" class="cls-6" d="M4845.965,990.242s-8.978,14.061,0,24.337" transform="translate(-4223 -596)"/>
      <path id="Path_3815" data-name="Path 3815" class="cls-3" d="M4905.941,1047.4v47.362h-94.879s7.68-54.4,33.281-63.682,38.082-9.28,38.082-9.28" transform="translate(-4223 -596)"/>
      <path id="Path_3816" data-name="Path 3816" class="cls-3" d="M4811.063,1047.406v47.373h94.9s-7.681-54.415-33.289-63.7-37.31-9.488-37.31-9.488" transform="translate(-4128.121 -596)"/>
      <path id="Path_3818" data-name="Path 3818" class="cls-6" d="M4857.407,1094.889s14.11-10.266,10.5-28.328-13.5-26.616-13.5-26.616" transform="translate(-4134.028 -596.11)"/>
      <path id="Path_3824" data-name="Path 3824" class="cls-6" d="M4865.407,1094.889s-14.11-10.267-10.5-28.328,13.5-26.617,13.5-26.617" transform="translate(-4224.028 -596.11)"/>
      <path id="Path_3819" data-name="Path 3819" class="cls-6" d="M4854.407,1064.9l-8.441,29.786" transform="translate(-4223 -596)"/>
      <path id="Path_3820" data-name="Path 3820" class="cls-6" d="M4956.636,1065.158l9.211,29.283" transform="translate(-4223 -596)"/>
      <path id="Path_3821" data-name="Path 3821" class="cls-6" d="M4817.657,1065.886l34.217,7.385" transform="translate(-4223 -596)"/>
      <path id="Path_3822" data-name="Path 3822" class="cls-6" d="M4959.288,1073.71l34.622-7.332" transform="translate(-4223 -596)"/>
      <path id="Path_3823" data-name="Path 3823" class="cls-6" d="M4870.828,1058.289h14.723" transform="translate(-4226.766 -595.289)"/>
      <path id="Path_3833" data-name="Path 3833" class="cls-6" d="M4870.828,1058.289h7" transform="translate(-4206.731 -595.289)"/>
      <g id="Ellipse_134" data-name="Ellipse 134" class="cls-3" transform="translate(695 463)">
        <circle class="cls-8" cx="4" cy="4" r="4"/>
        <circle class="cls-9" cx="4" cy="4" r="2.5"/>
      </g>
      <g id="Ellipse_135" data-name="Ellipse 135" class="cls-3" transform="translate(695 478)">
        <circle class="cls-8" cx="4" cy="4" r="4"/>
        <circle class="cls-9" cx="4" cy="4" r="2.5"/>
      </g>
      <path id="Path_3814" data-name="Path 3814" class="cls-3" d="M4881.785,1008.678v12.8s16.641,25.921,24,25.921c6.735,0,21.774-21.7,24.457-25.648.059-.086.184-.273.184-.273v-12.144" transform="translate(-4223 -596)"/>
      <path id="Path_3813" data-name="Path 3813" class="cls-3" d="M4858.191,948.058s-6.808,67.02,48.554,67.02,46.722-67.02,46.722-67.02-27.673,2.163-33.082-20.551S4932.522,957.841,4858.191,948.058Z" transform="translate(-4223 -596)"/>
      <path id="Path_3830" data-name="Path 3830" class="cls-6" d="M4603,804s.149,7.29,7.116,7.29,7.739-7.29,7.739-7.29" transform="translate(-3949.62 -432.943)"/>
      <path id="Path_3831" data-name="Path 3831" class="cls-6" d="M4603,804s.149,7.29,7.116,7.29,7.739-7.29,7.739-7.29" transform="translate(-3905.62 -432.943)"/>
    </g>
    <g id="Mask_Group_24" data-name="Mask Group 24" class="cls-7" transform="translate(905.22 471.999) rotate(151)">
      <g id="Ellipse_138" data-name="Ellipse 138" class="cls-6" transform="translate(18.97 18.57)">
        <ellipse class="cls-8" cx="117.519" cy="117.519" rx="117.519" ry="117.519"/>
        <ellipse class="cls-9" cx="117.519" cy="117.519" rx="116.019" ry="116.019"/>
      </g>
    </g>
  </g>
</svg>
