<svg xmlns="http://www.w3.org/2000/svg" viewBox="0 0 17.959 16">
  <defs>
    <style>
      .cls-1 {
        fill: #cecece;
      }

      .cls-2 {
        fill: #3b3b3b;
      }

      .cls-3 {
        fill: #d50000;
      }
    </style>
  </defs>
  <g id="sumario-de-alta" transform="translate(-194 -3837)">
    <path id="ic_assignment_24px" class="cls-1" d="M14.2,2.4H11.274a2.092,2.092,0,0,0-3.948,0H4.4A1.4,1.4,0,0,0,3,3.8v9.8A1.4,1.4,0,0,0,4.4,15h9.8a1.4,1.4,0,0,0,1.4-1.4V3.8A1.4,1.4,0,0,0,14.2,2.4Zm-4.9,0a.7.7,0,1,1-.7.7A.7.7,0,0,1,9.3,2.4Zm1.4,9.8H5.8V10.8h4.9Zm2.1-2.8h-7V8h7Zm0-2.8h-7V5.2h7Z" transform="translate(194 3836)"/>
    <path id="ic_work_24px" class="cls-2" d="M10.9,3.979H8.926V2.989A.986.986,0,0,0,7.937,2H5.958a.986.986,0,0,0-.989.989v.989H2.989A.982.982,0,0,0,2,4.968L2,10.41a.986.986,0,0,0,.989.989H10.9a.986.986,0,0,0,.989-.989V4.968A.986.986,0,0,0,10.9,3.979Zm-2.968,0H5.958V2.989H7.937Z" transform="translate(192 3841.6)"/>
    <g id="down-arrow" transform="translate(203.098 3850.12) rotate(-90)">
      <g id="Group_3" data-name="Group 3">
        <path id="Path_12" data-name="Path 12" class="cls-3" d="M40.033,4.912a.185.185,0,0,0-.171-.114H37.84V2.185A.185.185,0,0,0,37.656,2H34.7a.185.185,0,0,0-.185.185V4.8h-2.03a.184.184,0,0,0-.131.315L36.04,8.807a.185.185,0,0,0,.261,0l3.692-3.694A.184.184,0,0,0,40.033,4.912Z" transform="translate(-32.304)"/>
      </g>
    </g>
  </g>
</svg>
