<svg xmlns="http://www.w3.org/2000/svg" viewBox="0 0 14.764 17.277">
  <defs>
    <style>
      .cls-1 {
        fill: #3b3b3b;
      }

      .cls-2 {
        fill: #fff;
      }

      .cls-3 {
        fill: #fbc02d;
      }
    </style>
  </defs>
  <g id="testando-nome-fantasia" transform="translate(-167.388 -4542)">
    <g id="noun_agent_1781609" transform="translate(167.378 4541.997)">
      <path id="Path_20" data-name="Path 20" class="cls-1" d="M11.272,52.357a1.911,1.911,0,0,0,.6-.9c.209-.675-1.928-1.083-1.928-1.083a3.112,3.112,0,0,1-2.09,2.193,1.35,1.35,0,0,1-.95,0A3.224,3.224,0,0,1,4.779,50.37s-2.1.4-1.889,1.076a1.911,1.911,0,0,0,.6.9A3.351,3.351,0,0,0,0,55.527v1.537H14.764V55.527A3.347,3.347,0,0,0,11.272,52.357Z" transform="translate(0.01 -42.044)"/>
      <path id="Path_21" data-name="Path 21" class="cls-1" d="M12.339,8.282c3.473,0,6.289-1.248,6.289-2.783,0-1.1-1.447-2.051-3.543-2.5-.169-.575-.312-1.147-.415-1.5-.26-.865-1.409-.319-2.105.037-.619.319-1.216-.233-1.954-.337-.548-.084-.766.506-.766.506l-.6,1.375c-1.906.481-3.2,1.382-3.2,2.421C6.05,7.033,8.866,8.282,12.339,8.282ZM9.061,4.655c0,.326,1.122.96,3.178.96s3.178-.634,3.178-.96l.337.741a5.716,5.716,0,0,1-3.509.913,5.882,5.882,0,0,1-3.46-.867Z" transform="translate(-5.019 -1.03)"/>
    </g>
    <rect id="Rectangle_13" data-name="Rectangle 13" class="cls-2" width="2" height="3" transform="translate(174 4554)"/>
    <path id="ic_warning_24px" class="cls-3" d="M1,10.077h9.352L5.676,2ZM6.1,8.8h-.85v-.85H6.1Zm0-1.7h-.85V5.4H6.1Z" transform="translate(168.8 4549.2)"/>
  </g>
</svg>
