<?xml version="1.0" encoding="utf-8"?>
<!-- Generator: Adobe Illustrator 23.0.1, SVG Export Plug-In . SVG Version: 6.00 Build 0)  -->
<svg version="1.1" id="Layer_1" xmlns="http://www.w3.org/2000/svg" xmlns:xlink="http://www.w3.org/1999/xlink" x="0px" y="0px"
	 viewBox="0 0 15 15" style="enable-background:new 0 0 15 15;" xml:space="preserve">
<style type="text/css">
	.st0{fill:none;stroke:#1C3952;stroke-miterlimit:10;}
	.st1{fill:#1C3952;}
</style>
<path id="visualizar-historico-1" class="st0" d="M7.5,0.7c-3.8,0-6.8,3-6.8,6.8s3,6.8,6.8,6.8s6.8-3,6.8-6.8S11.3,0.7,7.5,0.7z"/>
<path class="st1" d="M8,7.5C8,7.8,7.8,8,7.5,8l0,0H3.6C3.3,8,3.1,7.7,3.1,7.5C3.2,7.2,3.4,7,3.6,7H7V3.6c0-0.3,0.2-0.5,0.5-0.5
	C7.7,3.1,8,3.3,8,3.6c0,0,0,0,0,0L8,7.5z"/>
</svg>
