<?xml version="1.0" encoding="utf-8"?>
<!-- Generator: Adobe Illustrator 23.0.1, SVG Export Plug-In . SVG Version: 6.00 Build 0)  -->
<svg version="1.1" id="Layer_1" xmlns="http://www.w3.org/2000/svg" xmlns:xlink="http://www.w3.org/1999/xlink" x="0px" y="0px"
	 viewBox="0 0 100 100" style="enable-background:new 0 0 100 100;" xml:space="preserve">
<style type="text/css">
	.st0{fill:#1C3952;}
</style>
<path class="st0" d="M99.3,34.8L87.6,7c-0.5-1.1-1.5-1.8-2.7-1.8H15.1c-1.2,0-2.2,0.7-2.7,1.8L0.7,34.8c-0.4,0.9-0.3,1.9,0.3,2.7
	c0.5,0.8,1.5,1.3,2.4,1.3h8v53c0,1.6,1.3,2.9,2.9,2.9h71.4c1.6,0,2.9-1.3,2.9-2.9v-53h8c1,0,1.9-0.5,2.4-1.3
	C99.6,36.7,99.7,35.7,99.3,34.8z M39.4,88.2v-33h21.1v33H39.4z M82.8,88.9H66.4V52.3c0-1.6-1.3-2.9-2.9-2.9h-27
	c-1.6,0-2.9,1.3-2.9,2.9v36.7H17.2V38.9h65.6V88.9z M85.7,33H14.3H7.7l9.3-22h66l9.3,22H85.7z"/>
</svg>
