<svg xmlns="http://www.w3.org/2000/svg" width="15" height="9.514" viewBox="0 0 15 9.514">
  <path id="associar-recurso-ao-local" d="M23.343,27.609a4.663,4.663,0,0,1-6.435,4.4.562.562,0,0,1-.275-.77v-.018a.518.518,0,0,1,.66-.238,3.4,3.4,0,0,0,1.834.238,3.569,3.569,0,1,0-4-3.993,3.4,3.4,0,0,0,.073,1.3.521.521,0,0,1-.165.531h0a.546.546,0,0,1-.9-.275,4.591,4.591,0,0,1-.055-1.942,4.667,4.667,0,0,1,9.258.77ZM13.554,32.5a4.678,4.678,0,0,0,3.978-5.753.54.54,0,0,0-.9-.275h0a.561.561,0,0,0-.165.531,3.518,3.518,0,0,1,.073,1.319,3.62,3.62,0,0,1-3.206,3.1,3.569,3.569,0,1,1,1.008-6.852.512.512,0,0,0,.66-.238v-.018a.548.548,0,0,0-.275-.77,4.609,4.609,0,0,0-2.255-.312,4.666,4.666,0,1,0,1.081,9.27Z" transform="translate(-8.344 -23.018)" fill="#afb9c2"/>
</svg>
