<svg xmlns="http://www.w3.org/2000/svg" width="12.7" height="15.699" viewBox="0 0 12.7 15.699">
  <g id="associar-servico" transform="translate(-20.95 -11.35)">
    <g id="Group_7964" data-name="Group 7964" transform="translate(21.3 11.7)">
      <g id="Group_7959" data-name="Group 7959" transform="translate(5.898 8.728)">
        <path id="Path_5280" data-name="Path 5280" d="M52.873,64.172A2.645,2.645,0,0,1,50.2,61.584V57.9h.2v3.7a2.47,2.47,0,0,0,4.939,0h.2A2.629,2.629,0,0,1,52.873,64.172Z" transform="translate(-50.2 -57.9)" fill="#afb9c2" stroke="#afb9c2" stroke-width="0.7"/>
      </g>
      <g id="Group_7960" data-name="Group 7960" transform="translate(0)">
        <path id="Path_5281" data-name="Path 5281" d="M22.2,13.362a.834.834,0,1,1,.9-.831A.874.874,0,0,1,22.2,13.362Zm0-1.474a.644.644,0,1,0,.694.642A.664.664,0,0,0,22.2,11.889Z" transform="translate(-21.3 -11.7)" fill="#afb9c2" stroke="#afb9c2" stroke-width="0.7"/>
      </g>
      <g id="Group_7961" data-name="Group 7961" transform="translate(10.204 10.919)">
        <path id="Path_5282" data-name="Path 5282" d="M72.2,71.162a.834.834,0,1,1,.9-.831A.874.874,0,0,1,72.2,71.162Zm0-1.474a.644.644,0,1,0,.694.642A.677.677,0,0,0,72.2,69.689Z" transform="translate(-71.3 -69.5)" fill="#afb9c2" stroke="#afb9c2" stroke-width="0.7"/>
      </g>
      <g id="Group_7962" data-name="Group 7962" transform="translate(10.122)">
        <path id="Path_5283" data-name="Path 5283" d="M71.8,13.362a.834.834,0,1,1,.9-.831A.874.874,0,0,1,71.8,13.362Zm0-1.474a.644.644,0,1,0,.694.642A.664.664,0,0,0,71.8,11.889Z" transform="translate(-70.9 -11.7)" fill="#afb9c2" stroke="#afb9c2" stroke-width="0.7"/>
      </g>
      <g id="Group_7963" data-name="Group 7963" transform="translate(0.755 1.568)">
        <path id="Path_5284" data-name="Path 5284" d="M30.184,27.273A5.121,5.121,0,0,1,25,22.248V20h.2v2.229a4.981,4.981,0,0,0,9.959.019V20h.2l.02,2.229A5.156,5.156,0,0,1,30.184,27.273Z" transform="translate(-25 -20)" fill="#afb9c2" stroke="#afb9c2" stroke-width="0.7"/>
      </g>
    </g>
  </g>
</svg>
