<svg xmlns="http://www.w3.org/2000/svg" viewBox="0 0 15 9.5">
  <defs>
    <style>
      .cls-1 {
        fill: #1c3952;
      }
    </style>
  </defs>
  <path id="Path_5529" data-name="Path 5529" class="cls-1" d="M23.313,27.6a4.654,4.654,0,0,1-6.422,4.388.561.561,0,0,1-.274-.768v-.018a.517.517,0,0,1,.659-.238,3.394,3.394,0,0,0,1.83.238,3.562,3.562,0,0,0-.823-7.075,3.556,3.556,0,0,0-3.165,3.09,3.393,3.393,0,0,0,.073,1.3.52.52,0,0,1-.165.53h0a.545.545,0,0,1-.9-.274,4.582,4.582,0,0,1-.055-1.938,4.658,4.658,0,0,1,9.239.768Zm-9.77,4.881a4.669,4.669,0,0,0,3.97-5.741.539.539,0,0,0-.9-.274h0a.56.56,0,0,0-.165.53,3.511,3.511,0,0,1,.073,1.316,3.613,3.613,0,0,1-3.2,3.09,3.562,3.562,0,1,1,1.006-6.838.511.511,0,0,0,.659-.238v-.018a.547.547,0,0,0-.274-.768,4.6,4.6,0,0,0-2.25-.311,4.657,4.657,0,1,0,1.079,9.251Z" transform="translate(-8.314 -23.018)"/>
</svg>
