<svg id="Camada_1" data-name="Camada 1" xmlns="http://www.w3.org/2000/svg" viewBox="0 0 214.19 193.85"><defs><style>.cls-1{fill:#f8f8f8;}.cls-2{fill:#fff;}.cls-3{fill:#def3fc;}.cls-4,.cls-5,.cls-6,.cls-7{fill:none;}.cls-4,.cls-7{stroke:#e8e8e8;}.cls-4,.cls-5{stroke-miterlimit:10;}.cls-4,.cls-5,.cls-7{stroke-width:3px;}.cls-5{stroke:#fff;}</style></defs><title>cadastrar-item-configuracoes</title><circle id="Ellipse_807" data-name="Ellipse 807" class="cls-1" cx="96.36" cy="96.97" r="68.46"/><rect id="Rectangle_2720" data-name="Rectangle 2720" class="cls-2" x="64.2" y="21.37" width="144.55" height="131.5"/><rect id="Rectangle_2721" data-name="Rectangle 2721" class="cls-3" x="64.2" y="1.29" width="144.55" height="22.08"/><g id="Group_5454" data-name="Group 5454"><path id="Path_4597" data-name="Path 4597" class="cls-4" d="M164.23,142.71V132.4c-8.59-6.53-11-15.12-13.75-20.62L143.61,98c0-3.44,7.22-6.87,10.65-3.44l6.88,6.88h3.43V63.66a6.9,6.9,0,0,1,6.88-6.87h0a6.89,6.89,0,0,1,6.87,6.87V87.72l24.06,4.81a12,12,0,0,1,10.31,12.38v17.18c0,3.78-3.44,6.87-3.44,10.31v10.31Z"/><path id="Path_4598" data-name="Path 4598" class="cls-4" d="M147,153H64.56V1.79H208.91V80.85"/><line id="Line_735" data-name="Line 735" class="cls-5" x1="74.87" y1="12.1" x2="81.74" y2="12.1"/><line id="Line_736" data-name="Line 736" class="cls-5" x1="88.61" y1="12.1" x2="95.49" y2="12.1"/><path id="Path_4599" data-name="Path 4599" class="cls-4" d="M123,63.66V77.41H85.18V43h27.5"/><rect id="Rectangle_2719" data-name="Rectangle 2719" class="cls-4" x="85.18" y="98.03" width="37.81" height="34.37"/><path id="Path_4600" data-name="Path 4600" class="cls-4" d="M95.49,56.79,105.8,67.1,126.42,43"/><line id="Line_737" data-name="Line 737" class="cls-4" x1="140.17" y1="46.48" x2="195.16" y2="46.48"/><line id="Line_738" data-name="Line 738" class="cls-4" x1="140.17" y1="60.22" x2="153.92" y2="60.22"/><line id="Line_739" data-name="Line 739" class="cls-4" x1="140.17" y1="73.97" x2="153.92" y2="73.97"/></g><g id="Group_5456" data-name="Group 5456"><g id="Ellipse_808" data-name="Ellipse 808"><path class="cls-6" d="M150.26,177.92A97.06,97.06,0,0,1,44.73,15"/><path class="cls-6" d="M44.73,15A97.06,97.06,0,0,1,150.26,177.92"/><path class="cls-7" d="M149.44,176.66A95.56,95.56,0,0,1,45.55,16.24"/></g></g><rect id="Rectangle_2722" data-name="Rectangle 2722" class="cls-3" x="158.56" y="143.84" width="55.21" height="18.07"/></svg>