<svg xmlns="http://www.w3.org/2000/svg" viewBox="0 0 15 15">
  <defs>
    <style>
      .cls-1 {
        fill: #004564;
      }
    </style>
  </defs>
  <g id="caracteristica" transform="translate(-32.85 -32.195)">
    <g id="Group_7512" data-name="Group 7512" transform="translate(32.85 32.195)">
      <path id="Path_5468" data-name="Path 5468" class="cls-1" d="M37.953,46.655a1.853,1.853,0,0,0,2.615,0l6.741-6.726a1.852,1.852,0,0,0,.541-1.32l-.04-4.517a1.845,1.845,0,0,0-1.821-1.826l-4.483-.07a1.866,1.866,0,0,0-1.338.54L33.389,39.5a1.845,1.845,0,0,0,0,2.607ZM34.1,40.211l6.785-6.766a.843.843,0,0,1,.595-.245H41.5l4.483.07a.833.833,0,0,1,.827.831l.04,4.517a.834.834,0,0,1-.245.6l-6.748,6.726a.845.845,0,0,1-1.19,0L34.1,41.394A.838.838,0,0,1,34.1,40.211Z" transform="translate(-32.85 -32.195)"/>
      <path id="Path_5469" data-name="Path 5469" class="cls-1" d="M315.488,104.567a1.635,1.635,0,0,0,1.159-.479h0a1.642,1.642,0,1,0-1.159.479Zm-.447-2.078a.628.628,0,0,1,.447-.184.62.62,0,0,1,.447.184.628.628,0,0,1,0,.888h0a.63.63,0,0,1-.894-.888Z" transform="translate(-304.407 -98.984)"/>
    </g>
  </g>
</svg>
