<svg xmlns="http://www.w3.org/2000/svg" viewBox="0 0 15.199 15.197">
  <defs>
    <style>
      .cls-1 {
        fill: #004564;
        stroke: #fff;
        stroke-width: 0.2px;
      }
    </style>
  </defs>
  <path id="categoria" class="cls-1" d="M7826.091,17808h-1.841a1.254,1.254,0,0,1-1.251-1.25l.009-5.623H7823V17798h1.251v8.752h10v-1.789h1.251v1.789a1.254,1.254,0,0,1-1.251,1.25Zm.657-4a1.251,1.251,0,0,1-1.247-1.25l0-8.5a1.243,1.243,0,0,1,1.243-1.246h3.75l1.251,1.246h5a1.252,1.252,0,0,1,1.247,1.252v7.25a1.251,1.251,0,0,1-1.247,1.25Zm0-1.25h10v-7.25h-5.52l-.371-.371-.88-.881h-3.231Z" transform="translate(-7822.899 -17792.902)"/>
</svg>
