<svg xmlns="http://www.w3.org/2000/svg" viewBox="0 0 15.398 15.398">
  <defs>
    <style>
      .cls-1 {
        fill: #1c3952;
        stroke: #1c3952;
        stroke-width: 0.4px;
      }
    </style>
  </defs>
  <path id="Path_5535" data-name="Path 5535" class="cls-1" d="M15.2,20.969l-.065-.042c-.224-.153-1.231-.81-1.9-1.246-.283-.187-.521-.337-.609-.4a1.443,1.443,0,0,0-1.948.38l-.079.1c-.249.312-.507.637-.92.66-.589.037-1.416-.493-2.486-1.564S5.6,16.95,5.629,16.372a1.363,1.363,0,0,1,.66-.923l.091-.091a1.439,1.439,0,0,0,.365-1.946l-.374-.567c-.444-.677-1.113-1.7-1.265-1.932l-.042-.062a1.4,1.4,0,0,0-1.416-.79A3.706,3.706,0,0,0,1,13.582c0,2.054,1.5,4.73,4.116,7.348s5.286,4.116,7.338,4.116a3.729,3.729,0,0,0,3.53-2.66A1.4,1.4,0,0,0,15.2,20.969Zm.226,1.337a3.158,3.158,0,0,1-2.97,2.173c-1.9,0-4.433-1.439-6.942-3.966s-3.946-5.028-3.946-6.931A3.167,3.167,0,0,1,3.738,10.6h.122c.343,0,.527.232.745.567l.045.065c.15.221.815,1.246,1.257,1.923l.377.567a.884.884,0,0,1-.249,1.2l-.1.076a1.822,1.822,0,0,0-.872,1.331c-.045.77.5,1.7,1.727,2.92s2.154,1.776,2.919,1.731a1.864,1.864,0,0,0,1.333-.875l.076-.1a.883.883,0,0,1,1.2-.249l.609.4c.665.433,1.67,1.088,1.888,1.238l.068.045c.348.241.6.442.549.867Z" transform="translate(-0.8 -9.847)"/>
</svg>
