<svg xmlns="http://www.w3.org/2000/svg" width="15.3" height="14.506" viewBox="0 0 15.3 14.506">
  <g id="correlacao-de-unidade" transform="translate(0.15 -9.81)">
    <g id="Grupo_8385" data-name="Grupo 8385" transform="translate(0 9.96)">
      <path id="Caminho_5808" data-name="Caminho 5808" d="M14.974,17.187l-.013.006L12.81,11.838h.982a.319.319,0,0,0,0-.638h-6v-.921a.319.319,0,0,0-.638,0V11.2h-6a.319.319,0,1,0,0,.638H2.181L.026,17.187A.319.319,0,0,0,0,17.305a2.651,2.651,0,0,0,5.3,0,.319.319,0,0,0-.026-.118L3.124,11.831h4.03v9.858c-1.521.115-2.71,1.039-2.71,2.158a.319.319,0,0,0,.319.319h5.42a.319.319,0,0,0,.319-.319c0-1.119-1.189-2.044-2.71-2.158V11.831h4.071L9.724,17.187a.319.319,0,0,0-.026.118,2.651,2.651,0,0,0,5.3,0A.319.319,0,0,0,14.974,17.187ZM2.649,19.323A2.015,2.015,0,0,1,.663,17.631h3.96A2.015,2.015,0,0,1,2.649,19.323Zm1.859-2.33H.8l1.859-4.626Zm5.3,6.536H5.136A2.421,2.421,0,0,1,7.47,22.314,2.427,2.427,0,0,1,9.807,23.529ZM12.335,12.37l1.852,4.623H10.476Zm0,6.953v0a2.015,2.015,0,0,1-1.973-1.7h3.96A2.015,2.015,0,0,1,12.335,19.323Z" transform="translate(0 -9.96)" fill="#004564" stroke="#004564" stroke-width="0.3"/>
    </g>
  </g>
</svg>
