<svg xmlns="http://www.w3.org/2000/svg" viewBox="0 0 16.6 16.6">
  <defs>
    <style>
      .cls-1 {
        fill: none;
        stroke: #005a9c;
      }
    </style>
  </defs>
  <path id="ic_account_box_24px" class="cls-1" d="M3,4.733V16.866A1.733,1.733,0,0,0,4.733,18.6H16.866A1.738,1.738,0,0,0,18.6,16.866V4.733A1.738,1.738,0,0,0,16.866,3H4.733A1.733,1.733,0,0,0,3,4.733ZM13.4,8.2a2.6,2.6,0,1,1-2.6-2.6A2.6,2.6,0,0,1,13.4,8.2ZM5.6,15.133c0-1.733,3.467-2.687,5.2-2.687S16,13.4,16,15.133V16H5.6Z" transform="translate(-2.5 -2.5)"/>
</svg>
