<?xml version="1.0" encoding="utf-8"?>
<!-- Generator: Adobe Illustrator 23.0.0, SVG Export Plug-In . SVG Version: 6.00 Build 0)  -->
<svg version="1.1" id="Layer_1" xmlns="http://www.w3.org/2000/svg" xmlns:xlink="http://www.w3.org/1999/xlink" x="0px" y="0px"
	 viewBox="0 0 19.9 15.5" style="enable-background:new 0 0 19.9 15.5;" xml:space="preserve">
<style type="text/css">
	.st0{fill:#1976D2;stroke:#1976D2;stroke-width:0.5;}
</style>
<path id="Path_4266" class="st0" d="M18.8,3.9h-1.3V2.3c0-0.2-0.1-0.5-0.3-0.6c-0.2-0.2-0.4-0.3-0.6-0.3H6.8c0,0,0,0,0,0L5.6,0.5
	C5.4,0.3,5.2,0.3,5,0.3H1.1c-0.2,0-0.4,0.1-0.6,0.2C0.3,0.7,0.3,0.9,0.3,1.1v13.3c0,0.5,0.4,0.8,0.8,0.8c0,0,0,0,0,0h15.6
	c0.4,0,0.7-0.3,0.8-0.7L19.6,5c0-0.1,0-0.1,0-0.2C19.7,4.4,19.3,4,18.8,3.9C18.9,3.9,18.9,3.9,18.8,3.9z M1,11.4V1.1c0,0,0,0,0,0
	c0,0,0,0,0,0h4c0,0,0,0,0,0L6.2,2c0.2,0.1,0.4,0.2,0.6,0.2h9.9c0,0,0,0,0,0c0,0,0,0,0,0V4H3.3C2.9,4,2.6,4.2,2.5,4.6L1,11.4z
	 M16.8,14.4C16.8,14.5,16.8,14.5,16.8,14.4L1.2,14.5l2.1-9.7c0,0,0-0.1,0.1-0.1h15.5c0,0,0.1,0,0.1,0.1L16.8,14.4z"/>
</svg>
