<svg xmlns="http://www.w3.org/2000/svg" xmlns:xlink="http://www.w3.org/1999/xlink" viewBox="0 0 255 266.622">
  <defs>
    <style>
      .cls-1, .cls-10, .cls-12, .cls-14, .cls-5, .cls-9 {
        fill: none;
      }

      .cls-1 {
        stroke: #707070;
      }

      .cls-2 {
        fill: #e9eaeb;
      }

      .cls-3, .cls-7 {
        fill: #fff;
      }

      .cls-10, .cls-3, .cls-5, .cls-8, .cls-9 {
        stroke: #3b3b3b;
        stroke-miterlimit: 10;
      }

      .cls-4, .cls-8 {
        fill: #aeceef;
      }

      .cls-6 {
        fill: #ecf7ff;
      }

      .cls-9 {
        stroke-width: 0.5px;
      }

      .cls-10 {
        stroke-linecap: round;
      }

      .cls-11 {
        clip-path: url(#clip-path);
      }

      .cls-12 {
        stroke: #bcc0c4;
      }

      .cls-13 {
        stroke: none;
      }
    </style>
    <clipPath id="clip-path">
      <path id="Path_4403" data-name="Path 4403" class="cls-1" d="M-1681.361,2961.3V2738.184h158.342v25.2l35.858,21.261h60.8l-.1,220.163h-169.324v-43.5Z" transform="translate(1681.361 -2738.184)"/>
    </clipPath>
  </defs>
  <g id="Group_6944" data-name="Group 6944" transform="translate(-1258 -2301.434)">
    <g id="Group_4834" data-name="Group 4834" transform="translate(1268.603 2305.872)">
      <g id="Group_4830" data-name="Group 4830" transform="translate(0 15.923)">
        <path id="Ellipse_720" data-name="Ellipse 720" class="cls-2" d="M91.318-.042c50.36-.1,91.108,40.453,91.013,90.568s-41,90.819-91.359,90.914S-.137,140.988-.041,90.873,40.957.054,91.318-.042Z" transform="matrix(0.325, -0.946, 0.946, 0.325, 0, 172.505)"/>
        <path id="Path_4251" data-name="Path 4251" class="cls-3" d="M82.5,131.738V117.651s14-8.456,14-24.651V29.61L44.9,17.665l-5.8,4.9L16.7,40.879A25.06,25.06,0,0,0,9,59.192v72.545Z" transform="translate(47.232 54.833)"/>
        <rect id="Rectangle_2159" data-name="Rectangle 2159" class="cls-4" width="83.999" height="24.651" transform="translate(49.227 186.605)"/>
        <path id="Path_4252" data-name="Path 4252" class="cls-5" d="M7,74.651V50H91V74.651" transform="translate(42.227 136.605)"/>
        <line id="Line_713" data-name="Line 713" class="cls-5" x2="10.499" transform="translate(59.722 200.691)"/>
        <path id="Path_4253" data-name="Path 4253" class="cls-6" d="M98.5,1H25c-3.861.014-6.988,3.765-7,8.4V135.331l10.5,12.594h70c3.861-.014,6.988-3.765,7-8.4V9.4c-.012-4.63-3.137-8.38-7-8.4Z" transform="translate(74.245 3.965)"/>
        <path id="Path_4254" data-name="Path 4254" class="cls-5" d="M28.5,147.931h70c3.861-.014,6.988-3.765,7-8.4V9.4c-.012-4.63-3.137-8.38-7-8.4H25c-3.861.014-6.988,3.765-7,8.4l.282,122.522" transform="translate(73.424 3.965)"/>
        <rect id="Rectangle_2164" data-name="Rectangle 2164" class="cls-5" width="71.871" height="110.908" rx="0.2" transform="translate(99.052 18.845)"/>
        <path id="Path_4255" data-name="Path 4255" class="cls-7" d="M53.8,22.543c-8.051,8.452-39.9,39.442-39.9,39.442l28,36.625s11.9-14.436,3.85-32.046c0,0,14-15.848,17.5-20.778C71.3,34.516,61.849,14.443,53.8,22.543Z" transform="translate(59.483 62.597)"/>
        <path id="Path_4256" data-name="Path 4256" class="cls-5" d="M13.9,61.985S45.749,30.643,53.8,22.543s17.5,11.973,9.8,23.243c-3.5,4.93-17.5,20.778-17.5,20.778,7.7,17.611-3.85,32.046-3.85,32.046" transform="translate(59.483 62.597)"/>
        <rect id="Rectangle_2164-2" data-name="Rectangle 2164" class="cls-5" width="9.178" height="9.178" rx="2" transform="translate(130.786 136.379)"/>
        <rect id="Rectangle_2164-3" data-name="Rectangle 2164" class="cls-8" width="11.014" height="41.155" rx="4" transform="translate(128.417 44.566)"/>
        <rect id="Rectangle_2164-4" data-name="Rectangle 2164" class="cls-8" width="11.014" height="11.014" rx="4" transform="translate(128.417 92.308)"/>
      </g>
      <g id="Group_4831" data-name="Group 4831" transform="translate(176.145 0)">
        <g id="Group_2930" data-name="Group 2930">
          <line id="Line_508" data-name="Line 508" class="cls-9" y2="6.995" transform="translate(11.586)"/>
          <line id="Line_509" data-name="Line 509" class="cls-9" y2="6.995" transform="translate(11.586 16.321)"/>
          <line id="Line_510" data-name="Line 510" class="cls-9" x1="6.952" transform="translate(0 11.658)"/>
          <line id="Line_511" data-name="Line 511" class="cls-9" x1="6.952" transform="translate(16.221 11.658)"/>
        </g>
      </g>
      <line id="Line_906" data-name="Line 906" class="cls-10" y2="55.068" transform="translate(80.736 31.161)"/>
    </g>
    <g id="Mask_Group_268" data-name="Mask Group 268" class="cls-11" transform="translate(1258 2301.434)">
      <g id="Group_6012" data-name="Group 6012" transform="translate(0.001 6.196)">
        <g id="Ellipse_719" data-name="Ellipse 719" class="cls-12" transform="translate(0 0)">
          <ellipse class="cls-13" cx="127.449" cy="129.351" rx="127.449" ry="129.351"/>
          <ellipse class="cls-14" cx="127.449" cy="129.351" rx="126.949" ry="128.851"/>
        </g>
      </g>
    </g>
  </g>
</svg>
