<svg xmlns="http://www.w3.org/2000/svg" viewBox="0 0 20.785 20.801">
  <defs>
    <style>
      .cls-1 {
        fill: #1c3952;
        stroke: #fff;
        stroke-width: 0.2px;
      }
    </style>
  </defs>
  <g id="historico-alteracoes" transform="translate(2.904 2.881)">
    <g id="Group_6998" data-name="Group 6998">
      <path id="Path_5325" data-name="Path 5325" class="cls-1" d="M7.5,15A7.508,7.508,0,0,1,0,7.5a.625.625,0,0,1,1.25,0A6.25,6.25,0,1,0,7.5,1.25.625.625,0,0,1,7.5,0a7.5,7.5,0,0,1,0,15ZM.625,8.125a.657.657,0,0,1-.444-.181.634.634,0,0,1,0-.887.654.654,0,0,1,.887,0,.634.634,0,0,1,0,.887A.657.657,0,0,1,.625,8.125ZM.906,5.444a.621.621,0,0,1-.337-.812.625.625,0,1,1,1.156.475.622.622,0,0,1-.581.387.675.675,0,0,1-.237-.05ZM2.2,3.081a.623.623,0,1,1,.881,0,.64.64,0,0,1-.444.181A.626.626,0,0,1,2.2,3.081ZM4.287,1.388a.626.626,0,1,1,.819.337.648.648,0,0,1-.238.05A.638.638,0,0,1,4.287,1.388ZM7.5,1.25a.657.657,0,0,1-.444-.181A.657.657,0,0,1,6.875.625.657.657,0,0,1,7.056.181a.654.654,0,0,1,.887,0,.657.657,0,0,1,.181.444.657.657,0,0,1-.181.444A.657.657,0,0,1,7.5,1.25ZM5,9.375A.625.625,0,0,1,4.72,8.191L6.875,7.114V3.125a.625.625,0,0,1,1.25,0V7.5a.626.626,0,0,1-.346.559l-2.5,1.25A.627.627,0,0,1,5,9.375Z"/>
      <path id="Path_5680" data-name="Path 5680" class="cls-1" d="M7.5,15A7.508,7.508,0,0,1,0,7.5a.625.625,0,0,1,1.25,0A6.25,6.25,0,1,0,7.5,1.25.625.625,0,0,1,7.5,0a7.5,7.5,0,0,1,0,15ZM.625,8.125a.657.657,0,0,1-.444-.181.634.634,0,0,1,0-.887.654.654,0,0,1,.887,0,.634.634,0,0,1,0,.887A.657.657,0,0,1,.625,8.125ZM7.5,1.25a.657.657,0,0,1-.444-.181A.657.657,0,0,1,6.875.625.657.657,0,0,1,7.056.181a.654.654,0,0,1,.887,0,.657.657,0,0,1,.181.444.657.657,0,0,1-.181.444A.657.657,0,0,1,7.5,1.25Z" transform="translate(10.245 17.745) rotate(-150)"/>
    </g>
  </g>
</svg>
