<svg xmlns="http://www.w3.org/2000/svg" viewBox="0 0 22.844 22.844">
  <defs>
    <style>
      .cls-1 {
        fill: none;
        stroke: #fff;
      }
    </style>
  </defs>
  <path id="ic_local_offer_24px" class="cls-1" d="M23.2,12.463l-9.83-9.83A2.171,2.171,0,0,0,11.83,2H4.184A2.191,2.191,0,0,0,2,4.184V11.83a2.18,2.18,0,0,0,.644,1.551l9.83,9.83a2.171,2.171,0,0,0,1.54.633,2.136,2.136,0,0,0,1.54-.644L23.2,15.554a2.136,2.136,0,0,0,.644-1.54A2.206,2.206,0,0,0,23.2,12.463Zm-17.377-5A1.638,1.638,0,1,1,7.461,5.823,1.636,1.636,0,0,1,5.823,7.461Z" transform="translate(-1.5 -1.5)"/>
</svg>
