<svg xmlns="http://www.w3.org/2000/svg" width="13" height="16" viewBox="0 0 13 16">
  <g id="ic_play_arrow_24px" transform="translate(-7 -4)" fill="none" stroke-linejoin="round">
    <path d="M8,5V19l11-7Z" stroke="none"/>
    <path d="M 8 5 L 8 19 L 19 12 L 8 5 M 7.99995231628418 3.999998092651367 C 8.186918258666992 3.999998092651367 8.37346076965332 4.052349090576172 8.536880493164063 4.156339645385742 L 19.53688049316406 11.15633964538574 C 19.82531929016113 11.33990001678467 20 11.65810012817383 20 12 C 20 12.34189987182617 19.82531929016113 12.66009998321533 19.53688049316406 12.84366035461426 L 8.536880493164063 19.84366035461426 C 8.373479843139648 19.94763946533203 8.186897277832031 20.00000190734863 7.99995231628418 20.00000190734863 C 7.834596633911133 20.00000190734863 7.668962478637695 19.95904350280762 7.518789291381836 19.87660980224609 C 7.198850631713867 19.70096969604492 7 19.36498069763184 7 19 L 7 5 C 7 4.635019302368164 7.198850631713867 4.299030303955078 7.518789291381836 4.123390197753906 C 7.668941497802734 4.040966033935547 7.834617614746094 3.999998092651367 7.99995231628418 3.999998092651367 Z" stroke="none" fill="#1c3952"/>
  </g>
</svg>
