<svg xmlns="http://www.w3.org/2000/svg" xmlns:xlink="http://www.w3.org/1999/xlink" viewBox="0 0 161.893 153.098">
  <defs>
    <style>
      .cls-1, .cls-7 {
        fill: none;
        stroke-linecap: round;
      }

      .cls-1 {
        stroke: #707070;
        stroke-width: 3px;
      }

      .cls-2 {
        fill: #f8f8f8;
      }

      .cls-3 {
        fill: #ffd8d8;
      }

      .cls-4 {
        fill: #fff;
      }

      .cls-5, .cls-9 {
        fill: #e8e8e8;
      }

      .cls-5 {
        stroke: #fdfdfd;
      }

      .cls-6 {
        clip-path: url(#clip-path);
      }

      .cls-8, .cls-9 {
        stroke: none;
      }
    </style>
    <clipPath id="clip-path">
      <path id="Path_5161" data-name="Path 5161" class="cls-1" d="M0,0-.539,132.659l77.656,10.892L94.527-.4Z" transform="translate(0 0)"/>
    </clipPath>
  </defs>
  <g id="icone-farmacia" transform="translate(0.577 0)">
    <circle id="Ellipse_845" data-name="Ellipse 845" class="cls-2" cx="44.752" cy="44.752" r="44.752" transform="translate(28.127 26.535)"/>
    <g id="Group_6794" data-name="Group 6794" transform="translate(79.362 22)">
      <path id="Path_5158" data-name="Path 5158" class="cls-3" d="M44.3,17.993H4.835A1.828,1.828,0,0,1,2.9,16.059V1.935A1.828,1.828,0,0,1,4.835,0H44.3a1.828,1.828,0,0,1,1.935,1.935V16.059A1.939,1.939,0,0,1,44.3,17.993Z" transform="translate(-2.9)"/>
    </g>
    <g id="Group_6793" data-name="Group 6793" transform="translate(75.644 41.528)">
      <path id="Path_5157" data-name="Path 5157" class="cls-4" d="M15.865,89.914H9.674A9.7,9.7,0,0,1,0,80.241V34a13.749,13.749,0,0,1,4.063-9.867A13.426,13.426,0,0,1,12,20.263V9.235A1.828,1.828,0,0,1,13.93,7.3H41.017a1.828,1.828,0,0,1,1.935,1.935V20.263A13.952,13.952,0,0,1,54.947,34V48.51C54.947,49.671,17.026,89.914,15.865,89.914Z" transform="translate(0 -7.3)"/>
    </g>
    <g id="Group_6789" data-name="Group 6789" transform="translate(73.752 22)">
      <g id="Group_6784" data-name="Group 6784" transform="translate(18.38 62.88)">
        <g id="Group_6781" data-name="Group 6781">
          <path id="Path_5154" data-name="Path 5154" class="cls-5" d="M61.352,66.358H26.526A16.929,16.929,0,1,1,26.332,32.5H61.158a17.491,17.491,0,0,1,12,4.837,16.965,16.965,0,0,1-11.8,29.021Zm-34.826-29.8A12.964,12.964,0,0,0,13.563,49.526a12.276,12.276,0,0,0,3.87,9.093,12.924,12.924,0,0,0,9.093,3.87H61.352a13,13,0,0,0,9.093-22.25,12.592,12.592,0,0,0-9.093-3.87l-34.826.193Z" transform="translate(-9.5 -32.5)"/>
        </g>
        <g id="Group_6782" data-name="Group 6782" transform="translate(32.504 4.615)">
          <path id="Path_5155" data-name="Path 5155" class="cls-5" d="M28.235,57.422c-1.161,0-1.935-.571-1.935-1.427V34.027c0-.856.774-1.427,1.935-1.427s1.935.571,1.935,1.427V56C30.17,56.851,29.2,57.422,28.235,57.422Z" transform="translate(-26.3 -32.6)"/>
        </g>
        <g id="Group_6783" data-name="Group 6783" transform="translate(47.595 8.706)">
          <path id="Path_5156" data-name="Path 5156" class="cls-5" d="M44.354,49.189a1.828,1.828,0,0,1-1.935-1.935,6.441,6.441,0,0,0-6.385-6.385,1.935,1.935,0,1,1,0-3.87A10.322,10.322,0,0,1,46.289,47.254,1.939,1.939,0,0,1,44.354,49.189Z" transform="translate(-34.1 -37)"/>
        </g>
      </g>
      <g id="Group_6788" data-name="Group 6788">
        <g id="Group_6785" data-name="Group 6785" transform="translate(0 14.124)">
          <path id="Path_5157-2" data-name="Path 5157" class="cls-5" d="M15.865,89.914H9.674A9.7,9.7,0,0,1,0,80.241V34a13.749,13.749,0,0,1,4.063-9.867A13.426,13.426,0,0,1,12,20.263V9.235A1.828,1.828,0,0,1,13.93,7.3H41.017a1.828,1.828,0,0,1,1.935,1.935V20.263A13.952,13.952,0,0,1,54.947,34V48.51a1.935,1.935,0,0,1-3.87,0V34A10.115,10.115,0,0,0,41.017,23.939,1.828,1.828,0,0,1,39.082,22V11.17H15.865V22a1.828,1.828,0,0,1-1.935,1.935,9.936,9.936,0,0,0-7.159,2.9,9.819,9.819,0,0,0-2.9,6.965V80.241a5.821,5.821,0,0,0,5.8,5.8h6.191a1.935,1.935,0,1,1,0,3.87Z" transform="translate(0 -7.3)"/>
        </g>
        <g id="Group_6786" data-name="Group 6786" transform="translate(5.611)">
          <path id="Path_5158-2" data-name="Path 5158" class="cls-5" d="M44.3,17.993H4.835A1.828,1.828,0,0,1,2.9,16.059V1.935A1.828,1.828,0,0,1,4.835,0H44.3a1.828,1.828,0,0,1,1.935,1.935V16.059A1.939,1.939,0,0,1,44.3,17.993ZM6.77,14.124h35.6V3.87H6.77Z" transform="translate(-2.9)"/>
        </g>
        <g id="Group_6787" data-name="Group 6787" transform="translate(10.061 44.5)">
          <path id="Path_5159" data-name="Path 5159" class="cls-5" d="M37.9,26.87H7.135a1.935,1.935,0,0,1,0-3.87H37.9a1.828,1.828,0,0,1,1.935,1.935A1.939,1.939,0,0,1,37.9,26.87Z" transform="translate(-5.2 -23)"/>
        </g>
      </g>
    </g>
    <path id="Subtraction_4" data-name="Subtraction 4" class="cls-3" d="M2.841,34.3H0V0H31.536V7.672l-9.527.109c-12.021,0-19.488,8.558-19.488,22.335a27.743,27.743,0,0,0,.32,4.187Z" transform="translate(85.719 77.868)"/>
    <g id="Mask_Group_265" data-name="Mask Group 265" class="cls-6" transform="matrix(0.995, -0.105, 0.105, 0.995, 0, 10.278)">
      <g id="Path_5694" data-name="Path 5694" class="cls-7" transform="translate(0 0)">
        <path class="cls-8" d="M66.166-.279C102.708-.434,132.2,30.7,132.048,69.262s-29.907,69.945-66.449,70.1S-.44,108.381-.283,69.82,29.623-.125,66.166-.279Z"/>
        <path class="cls-9" d="M 66.43588256835938 2.7200927734375 C 66.35096740722656 2.7200927734375 66.26332855224609 2.720291137695313 66.17820739746094 2.720657348632813 C 57.66856384277344 2.756576538085938 49.40568542480469 4.550399780273438 41.61914825439453 8.052276611328125 C 37.87190246582031 9.737533569335938 34.25480651855469 11.81985473632813 30.86830139160156 14.24139404296875 C 27.51000213623047 16.64277648925781 24.34918212890625 19.39847564697266 21.47366333007813 22.43197631835938 C 18.59552764892578 25.46825408935547 15.97972106933594 28.80757904052734 13.69894409179688 32.35715484619141 C 11.39502716064453 35.94277954101563 9.412986755371094 39.77433776855469 7.807861328125 43.74541473388672 C 4.466201782226563 52.01279449462891 2.753204345703125 60.78977966308594 2.716506958007813 69.83255767822266 C 2.69744873046875 74.52457427978516 3.140289306640625 79.20706176757813 4.032722473144531 83.74991607666016 C 4.9012451171875 88.17108154296875 6.204841613769531 92.50917816162109 7.90728759765625 96.6436767578125 C 9.577781677246094 100.7006378173828 11.64678192138672 104.5974960327148 14.05678558349609 108.2260131835938 C 16.44366455078125 111.8197326660156 19.18230438232422 115.176513671875 22.19664764404297 118.2030944824219 C 33.85916137695313 129.9130706787109 49.17692565917969 136.3620300292969 65.32822418212891 136.3620300292969 C 65.41312408447266 136.3620300292969 65.50080108642578 136.3618316650391 65.58592224121094 136.3614807128906 C 74.0955810546875 136.3255615234375 82.35844421386719 134.5317535400391 90.14498901367188 131.0298767089844 C 93.89222717285156 129.3446197509766 97.50934600830078 127.2622985839844 100.8958282470703 124.8407592773438 C 104.2541275024414 122.4393768310547 107.4149475097656 119.6836776733398 110.2904663085938 116.6501770019531 C 113.1686019897461 113.613899230957 115.7844085693359 110.2745971679688 118.065185546875 106.7249984741211 C 120.3691024780273 103.1393737792969 122.3511428833008 99.30781555175781 123.9562683105469 95.33673095703125 C 127.2979278564453 87.06938171386719 129.0109252929688 78.29239654541016 129.0476226806641 69.24959564208984 C 129.0666809082031 64.55757904052734 128.6238403320313 59.87509918212891 127.7314071655273 55.33223724365234 C 126.8628845214844 50.91107940673828 125.5592880249023 46.57297515869141 123.8568420410156 42.4384765625 C 122.1863250732422 38.38151550292969 120.1173477172852 34.48465728759766 117.7073440551758 30.85614013671875 C 115.320442199707 27.26241302490234 112.5818023681641 23.9056396484375 109.5674819946289 20.87905883789063 C 97.90494537353516 9.169082641601563 82.58718872070313 2.7200927734375 66.43588256835938 2.7200927734375 M 66.43587493896484 -0.2798919677734375 C 102.8544311523438 -0.2798919677734375 132.2037811279297 30.79518127441406 132.047607421875 69.26177978515625 C 131.8910522460938 107.8225173950195 102.1408081054688 139.2071990966797 65.59858703613281 139.3614501953125 C 65.50936889648438 139.3618316650391 65.41735076904297 139.3620300292969 65.32821655273438 139.3620300292969 C 28.90966796875 139.3620300292969 -0.4396514892578125 108.2869720458984 -0.283477783203125 69.82037353515625 C -0.126922607421875 31.25965881347656 29.62332153320313 -0.1250457763671875 66.16554260253906 -0.279327392578125 C 66.2547607421875 -0.279693603515625 66.34674835205078 -0.2798919677734375 66.43587493896484 -0.2798919677734375 Z"/>
      </g>
    </g>
  </g>
</svg>
