<svg xmlns="http://www.w3.org/2000/svg" width="123.601" height="120.973" viewBox="0 0 123.601 120.973">
  <g id="icone-de-busca" transform="translate(-681.536 -430.699)">
    <g id="busca_paciente" data-name="busca paciente" transform="translate(683 432.121)">
      <g id="Group_4990" data-name="Group 4990" transform="translate(0 0)">
        <ellipse id="Ellipse_44" data-name="Ellipse 44" cx="41.584" cy="41.584" rx="41.584" ry="41.584" transform="translate(17.822 15.956)" fill="#f8f8f8"/>
        <path id="Path_3627" data-name="Path 3627" d="M89.109,76.722A61.516,61.516,0,0,1,60.95,83.653,60.841,60.841,0,0,1,1.6,36" transform="translate(-1.6 34.397)" fill="none" stroke="#e8e8e8" stroke-miterlimit="10" stroke-width="3"/>
        <path id="Path_3628" data-name="Path 3628" d="M38,3.5A60.686,60.686,0,0,1,79.155,60.9a60.993,60.993,0,0,1-5.848,25.993" transform="translate(40.845 -3.5)" fill="none" stroke="#e8e8e8" stroke-miterlimit="10" stroke-width="3"/>
        <path id="Path_3629" data-name="Path 3629" d="M38.931,31.4,86.653,79.123l-7.129,6.931L32,38.529" transform="translate(33.347 28.913)" fill="#fff" stroke="#e8e8e8" stroke-miterlimit="10" stroke-width="3"/>
        <rect id="Rectangle_1172" data-name="Rectangle 1172" width="13.861" height="51.485" transform="translate(69.549 74.333) rotate(-45)" fill="#def3fc" stroke="#e8e8e8" stroke-miterlimit="10" stroke-width="3"/>
        <line id="Line_426" data-name="Line 426" y1="9.703" x2="9.703" transform="translate(75.247 70.213)" fill="none" stroke="#e8e8e8" stroke-miterlimit="10" stroke-width="3"/>
        <line id="Line_427" data-name="Line 427" y1="9.703" x2="9.703" transform="translate(99.01 93.976)" fill="none" stroke="#e8e8e8" stroke-miterlimit="10" stroke-width="3"/>
        <path id="Subtraction_3" data-name="Subtraction 3" d="M37.624,75.247a37.457,37.457,0,0,1-21.041-6.422A37.7,37.7,0,0,1,2.955,52.274,37.6,37.6,0,0,1,6.422,16.582,37.7,37.7,0,0,1,22.973,2.955,37.6,37.6,0,0,1,58.665,6.422,37.7,37.7,0,0,1,72.293,22.973a37.6,37.6,0,0,1-3.467,35.692A37.7,37.7,0,0,1,52.274,72.293,37.424,37.424,0,0,1,37.624,75.247Zm.033-67.33c-.791,0-1.591.032-2.38.094a29.7,29.7,0,0,0,2.313,59.317c.788,0,1.589-.032,2.381-.094A29.7,29.7,0,0,0,67.235,35.276,29.837,29.837,0,0,0,37.66,7.918Z" transform="translate(3.96 0.115)" fill="#fff" stroke="#e8e8e8" stroke-linejoin="round" stroke-miterlimit="10" stroke-width="3"/>
        <ellipse id="Ellipse_153" data-name="Ellipse 153" cx="29.703" cy="29.703" rx="29.703" ry="29.703" transform="translate(9.56 10.829) rotate(-4.532)" fill="#fff" stroke="#e8e8e8" stroke-miterlimit="10" stroke-width="3"/>
        <path id="ic_account_circle_24px" d="M30.232,2A28.232,28.232,0,1,0,58.463,30.232,28.242,28.242,0,0,0,30.232,2Z" transform="translate(11.237 7.811)" fill="#def3fc"/>
        <path id="Path_3631" data-name="Path 3631" d="M9.2,28.442A23.685,23.685,0,0,1,32.53,9" transform="translate(9.054 5.075)" fill="none" stroke="#fff" stroke-miterlimit="10" stroke-width="3"/>
        <path id="Path_3632" data-name="Path 3632" d="M37.961,22A23.436,23.436,0,0,1,25,39.066" transform="translate(27.385 20.158)" fill="none" stroke="#fff" stroke-miterlimit="10" stroke-width="3"/>
        <path id="Path_3633" data-name="Path 3633" d="M9.864,26.481A22.3,22.3,0,0,1,9,20" transform="translate(8.822 17.837)" fill="none" stroke="#fff" stroke-miterlimit="10" stroke-width="3"/>
      </g>
    </g>
    <path id="Path_5693" data-name="Path 5693" d="M26.012,2a24.036,24.036,0,1,0,24.06,24.036A24.024,24.024,0,0,0,26.012,2ZM42.669,16.422H35.579a37.615,37.615,0,0,0-3.317-8.557A19.3,19.3,0,0,1,42.669,16.422ZM26.036,6.9a33.859,33.859,0,0,1,4.591,9.518H21.445A33.859,33.859,0,0,1,26.036,6.9Zm-18.6,23.94a19.81,19.81,0,0,1-.625-4.807,19.81,19.81,0,0,1,.625-4.807h8.124a39.7,39.7,0,0,0-.337,4.807,39.7,39.7,0,0,0,.337,4.807ZM9.4,35.651h7.091a37.615,37.615,0,0,0,3.317,8.557A19.2,19.2,0,0,1,9.4,35.651Zm7.091-19.229H9.4A19.2,19.2,0,0,1,19.811,7.865,37.615,37.615,0,0,0,16.494,16.422Zm9.542,28.747a33.859,33.859,0,0,1-4.591-9.518h9.182A33.859,33.859,0,0,1,26.036,45.169Zm5.624-14.326H20.412a35.364,35.364,0,0,1-.385-4.807,35.057,35.057,0,0,1,.385-4.807H31.661a35.056,35.056,0,0,1,.385,4.807A35.363,35.363,0,0,1,31.661,30.843Zm.6,13.364a37.615,37.615,0,0,0,3.317-8.557h7.091A19.3,19.3,0,0,1,32.262,44.208Zm4.254-13.364a39.7,39.7,0,0,0,.337-4.807,39.7,39.7,0,0,0-.337-4.807H44.64a19.81,19.81,0,0,1,.625,4.807,19.81,19.81,0,0,1-.625,4.807Z" transform="translate(698.976 443.603)" fill="#fff" stroke="#def3fc" stroke-width="3"/>
  </g>
</svg>
