<svg xmlns="http://www.w3.org/2000/svg" xmlns:xlink="http://www.w3.org/1999/xlink" width="15" height="15" viewBox="0 0 15 15">
  <defs>
    <clipPath id="clip-path">
      <rect id="Rectangle_3862" data-name="Rectangle 3862" width="15" height="15" transform="translate(60 456)" fill="#fff" stroke="#707070" stroke-width="1"/>
    </clipPath>
  </defs>
  <g id="icon-vias-manipulaveis" transform="translate(-60 -456)" clip-path="url(#clip-path)">
    <g id="Group_8060" data-name="Group 8060" transform="translate(-3.987 0.102)">
      <path id="Path_5758" data-name="Path 5758" d="M14.044,4.36a5.279,5.279,0,0,0,1.9,1.1.6.6,0,0,1-.374,1.149,6.491,6.491,0,0,1-2.333-1.349,3.5,3.5,0,0,0-2.348-.9,6.816,6.816,0,0,1-6.115.028A5.12,5.12,0,0,0,.8,4.136.6.6,0,0,1,.4,3h0a6.331,6.331,0,0,1,4.9.306c.135.066.271.128.41.184a4.272,4.272,0,0,0,2.6-1.835A3.71,3.71,0,0,1,10.8.009.6.6,0,1,1,11,1.2,2.5,2.5,0,0,0,9.331,2.306a5.484,5.484,0,0,1-1.557,1.58,5.605,5.605,0,0,0,3.166-.962,5.645,5.645,0,0,1,5.643-.392.6.6,0,0,1-.532,1.086,4.434,4.434,0,0,0-3.508-.17,4.691,4.691,0,0,1,1.5.913Z" transform="matrix(0.588, -0.809, 0.809, 0.588, 61.133, 467.699)" fill="#1c3952" stroke="#fff" stroke-width="0.4"/>
      <g id="noun_Syringe_1757926" transform="matrix(0.985, -0.174, 0.174, 0.985, 69.26, 461.764)">
        <path id="Path_5324" data-name="Path 5324" d="M.344,3.975,2.761,6.393,1.324,7.831.461,6.966a.261.261,0,0,0-.382,0,.27.27,0,0,0,0,.382L2.188,9.459a.27.27,0,1,0,.382-.382l-.864-.865L3.152,6.785,5.569,9.2a.27.27,0,1,0,.382-.382l-.912-.912L8.7,4.239a.275.275,0,0,0,.07-.261l-.831-2L9.459.461a.262.262,0,0,0,0-.382.269.269,0,0,0-.382,0L7.561,1.587l-2-.832A.31.31,0,0,0,5.3.826L1.638,4.505.726,3.593a.261.261,0,0,0-.382,0A.262.262,0,0,0,.344,3.975Zm5.24-2.647,1.836.792.791,1.837L7.68,4.49l-.713-.714a.27.27,0,0,0-.382.382l.713.714L6.675,5.5l-.713-.714a.261.261,0,0,0-.382,0,.27.27,0,0,0,0,.382l.713.714L5.671,6.5l-.713-.714a.27.27,0,0,0-.382.382l.713.714-.623.623L2.03,4.888Z" transform="translate(0 0)" fill="#1c3952" stroke="#1c3952" stroke-width="0.3"/>
      </g>
    </g>
  </g>
</svg>
