<svg xmlns="http://www.w3.org/2000/svg" width="16" height="16" viewBox="0 0 16 16">
  <g id="icon-local-de-estoque" transform="translate(-59.5 -578)">
    <path id="ic_account_box_24px" d="M3,4.667V16.333A1.666,1.666,0,0,0,4.667,18H16.333A1.672,1.672,0,0,0,18,16.333V4.667A1.672,1.672,0,0,0,16.333,3H4.667A1.666,1.666,0,0,0,3,4.667Z" transform="translate(57 575.5)" fill="none" stroke="#1c3952" stroke-width="1"/>
    <path id="ic_account_box_24px-2" data-name="ic_account_box_24px" d="M3,3.767V4.4a.767.767,0,0,0,.767.767H9.14A.77.77,0,0,0,9.907,4.4V3.767A.77.77,0,0,0,9.14,3H3.767A.767.767,0,0,0,3,3.767Z" transform="translate(61.046 578.418)" fill="none" stroke="#1c3952" stroke-width="1"/>
  </g>
</svg>
