<?xml version="1.0" encoding="utf-8"?>
<!-- Generator: Adobe Illustrator 23.0.2, SVG Export Plug-In . SVG Version: 6.00 Build 0)  -->
<svg version="1.1" id="Layer_1" xmlns="http://www.w3.org/2000/svg" xmlns:xlink="http://www.w3.org/1999/xlink" x="0px" y="0px"
	 viewBox="0 0 15.5 15.5" style="enable-background:new 0 0 15.5 15.5;" xml:space="preserve">
<style type="text/css">
	.st0{fill:#1C3952;}
</style>
<g>
	<path id="icon-horario-de-funcionamento" class="st0" d="M8.2,3.4H6.9v5.2l4.1,2.5l0.6-1.1L8.2,8V3.4z M7.8,0C3.5,0,0,3.5,0,7.7
		s3.5,7.7,7.7,7.7s7.7-3.5,7.7-7.7S12,0,7.8,0z M7.8,14.3c-3.6,0-6.6-3-6.6-6.6s3-6.6,6.6-6.6s6.6,3,6.6,6.6l0,0
		C14.3,11.4,11.4,14.3,7.8,14.3C7.8,14.3,7.8,14.3,7.8,14.3z"/>
</g>
</svg>
