<svg xmlns="http://www.w3.org/2000/svg" width="17.103" height="16.243" viewBox="0 0 17.103 16.243">
  <g id="manipula-em-previsao-de-alta" transform="translate(-59.5 -378.458)">
    <g id="possivel-duplicidade" transform="translate(-109.25 -10272.447)">
      <g id="Group_327" data-name="Group 327" transform="translate(169.25 10651.405)">
        <path id="ic_account_box_24px_1_" d="M11.529,4.191A3.649,3.649,0,0,1,7.881,7.882,3.691,3.691,0,0,1,7.881.5h0A3.7,3.7,0,0,1,11.53,4.191ZM6.881,15.431H.5V14.173c0-2.517,3.893-3.859,6.381-3.859m0,0h0" transform="translate(-0.5 -0.5)" fill="none" stroke="#004564" stroke-linecap="round" stroke-linejoin="round" stroke-width="1"/>
      </g>
    </g>
    <path id="ic_work_24px" d="M9.293,3.637H7.672V2.819A.812.812,0,0,0,6.862,2H5.241a.812.812,0,0,0-.81.819v.819H2.81A.808.808,0,0,0,2,4.456v4.5a.812.812,0,0,0,.81.819H9.293a.812.812,0,0,0,.81-.819v-4.5a.812.812,0,0,0-.81-.819Zm-3.166,0h-.15V3.554h.15Z" transform="translate(66 384.426)" fill="none" stroke="#004564" stroke-width="1"/>
  </g>
</svg>
