<svg xmlns="http://www.w3.org/2000/svg" viewBox="0 0 16.754 17.854">
  <defs>
    <style>
      .cls-1 {
        fill: none;
        stroke-linecap: round;
        stroke-linejoin: round;
        stroke-width: 1.5px;
      }

      .cls-1, .cls-2 {
        stroke: #fb9b2d;
      }

      .cls-2 {
        fill: #fb9b2d;
        stroke-width: 0.5px;
      }
    </style>
  </defs>
  <g id="paciente-sem-prontuario" transform="translate(0.25 0.25)">
    <path id="ic_account_box_24px_1_" class="cls-1" d="M10.844,3.922A3.4,3.4,0,0,1,7.422,7.344,3.453,3.453,0,0,1,4,3.922,3.453,3.453,0,0,1,7.422.5h0a3.453,3.453,0,0,1,3.422,3.422ZM6.567,14.344H.5V13.178C.5,10.844,5.089,9.6,7.422,9.6m0,0,0,0h.323"/>
    <path id="Path_4217_1_" class="cls-2" d="M18.033,10.567a.376.376,0,0,0-.544,0h0l-1.867,1.867a3.413,3.413,0,0,0-4.667.544,3.271,3.271,0,0,0,0,4.044L9.167,18.811a.44.44,0,1,0,.622.622h0l1.789-1.789a3.413,3.413,0,0,0,4.667-.544,3.271,3.271,0,0,0,0-4.044l1.789-1.789a.583.583,0,0,0,0-.7ZM11.111,15A2.457,2.457,0,0,1,13.6,12.511a2.561,2.561,0,0,1,1.478.467L11.656,16.4A1.874,1.874,0,0,1,11.111,15Zm4.978,0A2.457,2.457,0,0,1,13.6,17.489a2.172,2.172,0,0,1-1.4-.467L15.622,13.6a2.33,2.33,0,0,1,.467,1.4Z" transform="translate(-1.9 -2.211)"/>
  </g>
</svg>
