<svg xmlns="http://www.w3.org/2000/svg" viewBox="0 0 14.835 15.407">
  <defs>
    <style>
      .cls-1 {
        fill: none;
        stroke: #d50000;
        stroke-linecap: round;
        stroke-linejoin: round;
        stroke-width: 1.5px;
      }

      .cls-2 {
        fill: #d50000;
      }
    </style>
  </defs>
  <g id="possivel-duplicidade" transform="translate(-168.5 -10650.655)">
    <g id="Group_327" data-name="Group 327" transform="translate(168.75 10650.905)">
      <path id="ic_account_box_24px_1_" class="cls-1" d="M10.844,3.922A3.4,3.4,0,0,1,7.422,7.344,3.453,3.453,0,0,1,4,3.922,3.453,3.453,0,0,1,7.422.5h0a3.453,3.453,0,0,1,3.422,3.422ZM6.567,14.344H.5V13.178C.5,10.844,5.089,9.6,7.422,9.6m0,0,0,0h.323"/>
    </g>
    <path id="Path_3884" data-name="Path 3884" class="cls-2" d="M-.165-3.937h-1.28v-3.5l.012-.576.021-.63q-.319.319-.443.418l-.7.559-.617-.771,1.951-1.554H-.165Z" transform="translate(183.5 10670)"/>
    <path id="Path_3885" data-name="Path 3885" class="cls-2" d="M-1.864-5.939h-1.53V-6.8h1.53V-8.347H-1V-6.8H.532v.866H-1v1.522h-.866Z" transform="translate(179.931 10670.433)"/>
  </g>
</svg>
