<svg xmlns="http://www.w3.org/2000/svg" xmlns:xlink="http://www.w3.org/1999/xlink" viewBox="0 0 69.375 70">
  <defs>
    <style>
      .cls-1, .cls-10, .cls-12, .cls-4, .cls-8 {
        fill: none;
      }

      .cls-1 {
        stroke: #707070;
      }

      .cls-2 {
        fill: #e9eaeb;
      }

      .cls-3, .cls-6, .cls-7 {
        fill: #fff;
      }

      .cls-3, .cls-4, .cls-6, .cls-8 {
        stroke: #3b3b3b;
        stroke-miterlimit: 10;
      }

      .cls-5 {
        fill: #e3f3ff;
      }

      .cls-6, .cls-8 {
        stroke-width: 0.5px;
      }

      .cls-9 {
        clip-path: url(#clip-path);
      }

      .cls-10 {
        stroke: #bcc0c4;
      }

      .cls-11 {
        stroke: none;
      }
    </style>
    <clipPath id="clip-path">
      <path id="Path_4403" data-name="Path 4403" class="cls-1" d="M-1681.361,2794.307v-56.124h43.1v-2.934h10.388v20.918h15.891v49.082h-46.085v-10.943Z" transform="translate(1681.361 -2735.25)"/>
    </clipPath>
  </defs>
  <g id="produtos-corporativos" transform="translate(-751 -503)">
    <g id="Group_4834" data-name="Group 4834" transform="translate(753.882 505.986)">
      <g id="Group_4830" data-name="Group 4830" transform="translate(0 0)">
        <path id="Ellipse_720" data-name="Ellipse 720" class="cls-2" d="M24.87-.006a24.708,24.708,0,1,1-.094,49.416A24.708,24.708,0,1,1,24.87-.006Z" transform="matrix(0.325, -0.946, 0.946, 0.325, 0, 46.967)"/>
        <path id="Path_4251" data-name="Path 4251" class="cls-3" d="M29.02,48.737V44.9a8.39,8.39,0,0,0,3.814-6.715V20.918L17.2,19l-6.1,4.988A6.826,6.826,0,0,0,9,28.976V48.737Z" transform="translate(6.315 2.061)"/>
        <rect id="Rectangle_2159" data-name="Rectangle 2159" class="cls-2" width="22.881" height="6.715" transform="translate(13.408 50.798)"/>
        <path id="Path_4252" data-name="Path 4252" class="cls-4" d="M7,56.715V50H29.881v6.715" transform="translate(6.408 0.798)"/>
        <line id="Line_713" data-name="Line 713" class="cls-4" x2="2.86" transform="translate(16.268 54.635)"/>
        <path id="Path_4253" data-name="Path 4253" class="cls-5" d="M39.927,1H19.907A1.918,1.918,0,0,0,18,2.918V31.695l2.86,2.878H39.926a1.918,1.918,0,0,0,1.907-1.918V2.918A1.918,1.918,0,0,0,39.927,1Z" transform="translate(5.895 2.795)"/>
        <path id="Path_4254" data-name="Path 4254" class="cls-4" d="M20.86,34.574H39.926a1.918,1.918,0,0,0,1.907-1.918V2.918A1.918,1.918,0,0,0,39.927,1H19.907A1.918,1.918,0,0,0,18,2.918V31.695" transform="translate(5.895 2.795)"/>
        <rect id="Rectangle_2160" data-name="Rectangle 2160" class="cls-6" width="2.577" height="2.464" transform="translate(37.242 18.372)"/>
        <rect id="Rectangle_2163" data-name="Rectangle 2163" class="cls-6" width="2.577" height="2.464" transform="translate(40.973 18.372)"/>
        <rect id="Rectangle_2164" data-name="Rectangle 2164" class="cls-6" width="2.577" height="11.21" transform="translate(40.973 22.127)"/>
        <rect id="Rectangle_2165" data-name="Rectangle 2165" class="cls-6" width="2.577" height="11.21" transform="translate(37.206 22.127)"/>
        <path id="Path_4255" data-name="Path 4255" class="cls-7" d="M24.768,21.178C22.575,23.48,13.9,31.922,13.9,31.922L21.527,41.9a8.671,8.671,0,0,0,1.049-8.729s3.814-4.317,4.767-5.66C29.535,24.44,26.961,18.972,24.768,21.178Z" transform="translate(6.086 1.993)"/>
        <path id="Path_4256" data-name="Path 4256" class="cls-4" d="M13.9,31.922s8.675-8.537,10.868-10.743,4.767,3.261,2.669,6.331c-.953,1.343-4.767,5.66-4.767,5.66A8.927,8.927,0,0,1,21.622,41.9" transform="translate(6.086 1.993)"/>
      </g>
      <g id="Group_4831" data-name="Group 4831" transform="translate(51.964 1.656)">
        <g id="Group_2930" data-name="Group 2930">
          <line id="Line_508" data-name="Line 508" class="cls-8" y2="3.295" transform="translate(5.458)"/>
          <line id="Line_509" data-name="Line 509" class="cls-8" y2="3.295" transform="translate(5.458 7.689)"/>
          <line id="Line_510" data-name="Line 510" class="cls-8" x1="3.275" transform="translate(0 5.492)"/>
          <line id="Line_511" data-name="Line 511" class="cls-8" x1="3.275" transform="translate(7.641 5.492)"/>
        </g>
      </g>
      <g id="Group_4833" data-name="Group 4833" transform="translate(46.386 40.943)">
        <g id="Group_2930-2" data-name="Group 2930">
          <line id="Line_508-2" data-name="Line 508" class="cls-8" y2="3.295" transform="translate(5.458)"/>
          <line id="Line_509-2" data-name="Line 509" class="cls-8" y2="3.295" transform="translate(5.458 7.689)"/>
          <line id="Line_510-2" data-name="Line 510" class="cls-8" x1="3.275" transform="translate(0 5.492)"/>
          <line id="Line_511-2" data-name="Line 511" class="cls-8" x1="3.275" transform="translate(7.641 5.492)"/>
        </g>
      </g>
      <g id="Group_4832" data-name="Group 4832" transform="translate(6.032 17.784)">
        <line id="Line_504" data-name="Line 504" class="cls-8" x1="2.183" y2="2.197" transform="translate(0 5.492)"/>
        <line id="Line_505" data-name="Line 505" class="cls-8" x1="2.183" y2="2.197" transform="translate(5.458)"/>
        <line id="Line_506" data-name="Line 506" class="cls-8" x2="2.183" y2="2.197" transform="translate(5.458 5.492)"/>
        <line id="Line_507" data-name="Line 507" class="cls-8" x2="2.183" y2="2.197"/>
      </g>
    </g>
    <g id="Mask_Group_268" data-name="Mask Group 268" class="cls-9" transform="translate(751 503)">
      <g id="Group_6012" data-name="Group 6012" transform="translate(0 -0.88)">
        <g id="Ellipse_719" data-name="Ellipse 719" class="cls-10" transform="translate(0 0)">
          <ellipse class="cls-11" cx="34.688" cy="35.205" rx="34.688" ry="35.205"/>
          <ellipse class="cls-12" cx="34.688" cy="35.205" rx="34.188" ry="34.705"/>
        </g>
      </g>
    </g>
  </g>
</svg>
