<svg xmlns="http://www.w3.org/2000/svg" width="15.004" height="15" viewBox="0 0 15.004 15">
  <g id="RDE-icon" transform="translate(-98.5 47.5)">
    <g id="Grupo_8100" data-name="Grupo 8100" transform="translate(98.5 -47.5)">
      <path id="Caminho_5746" data-name="Caminho 5746" d="M406.752,124.8a.751.751,0,0,0-.752.752v10.5a.752.752,0,0,0,1.5,0v-10.5A.753.753,0,0,0,406.752,124.8Z" transform="translate(-392.5 -122.548)" fill="#3b3b3b"/>
      <path id="Caminho_5747" data-name="Caminho 5747" d="M77.212,68.5H71.788L71.036,70H68.5V83.5h12V70H77.964ZM77.5,80.219H76.385v1.033h-.809V80.219H74.5v-.91h1.08V78.248h.809v1.061H77.5Zm0-2.719H71.508V76H77.5Zm0-3H71.508V73H77.5Z" transform="translate(-68.5 -68.5)" fill="#3b3b3b"/>
    </g>
  </g>
</svg>
