<?xml version="1.0" encoding="utf-8"?>
<!-- Generator: Adobe Illustrator 23.0.3, SVG Export Plug-In . SVG Version: 6.00 Build 0)  -->
<svg version="1.1" id="Layer_1" xmlns="http://www.w3.org/2000/svg" xmlns:xlink="http://www.w3.org/1999/xlink" x="0px" y="0px"
	 viewBox="0 0 17.8 16.8" style="enable-background:new 0 0 17.8 16.8;" xml:space="preserve">
<style type="text/css">
	.st0{fill:#3B3B3B;}
	.st1{fill:#FFFFFF;stroke:#FFFFFF;stroke-width:1.5;}
</style>
<g id="RDS-icon" transform="translate(-825 -423)">
	<g id="noun_Prescription__498608" transform="translate(726.5 470.5)">
		<g id="Grupo_8100" transform="translate(98.5 -47.5)">
			<path id="Caminho_5747" class="st0" d="M9.7,0H3.7L2.8,1.7H0v15.1h13.4V1.7h-2.8L9.7,0z M10,13.1H8.8v1.2H7.9v-1.2H6.7v-1h1.2
				v-1.2h0.9v1.2H10V13.1z M10,10H3.4V8.4H10V10z M10,6.7H3.4V5H10V6.7z"/>
		</g>
	</g>
	<circle id="Elipse_877" class="st1" cx="837.3" cy="434.2" r="6.7"/>
	<path id="ic_watch_later_24px" class="st0" d="M837.3,428.6c-3.1,0-5.6,2.5-5.6,5.6c0,3.1,2.5,5.6,5.6,5.6s5.6-2.5,5.6-5.6
		C842.8,431.1,840.4,428.6,837.3,428.6z M839.6,436.5l-2.9-1.8v-3.3h0.8v2.9l2.5,1.5C840.1,435.8,839.6,436.5,839.6,436.5z"/>
</g>
</svg>
