<?xml version="1.0" encoding="utf-8"?>
<!-- Generator: Adobe Illustrator 22.1.0, SVG Export Plug-In . SVG Version: 6.00 Build 0)  -->
<svg version="1.1" id="Layer_1" xmlns="http://www.w3.org/2000/svg" xmlns:xlink="http://www.w3.org/1999/xlink" x="0px" y="0px"
	 viewBox="0 0 10.3 10.3" style="enable-background:new 0 0 10.3 10.3;" xml:space="preserve">
<style type="text/css">
	.st0{fill:#FFFFFF;stroke:#FFFFFF;stroke-width:0.25;}
</style>
<path id="salvar" class="st0" d="M0.8,0.1h7.3c0.2,0,0.4,0.1,0.5,0.2l1.2,1.2l0,0c0.1,0.1,0.2,0.3,0.2,0.5v7.3
	c0,0.4-0.3,0.7-0.7,0.7l0,0H0.8c-0.4,0-0.7-0.3-0.7-0.7V0.8l0,0C0.1,0.4,0.4,0.1,0.8,0.1L0.8,0.1z M2.3,0.8H1.1
	c-0.1,0-0.2,0.1-0.2,0.2v0v8.1c0,0.1,0.1,0.2,0.2,0.2h8.1c0.1,0,0.2-0.1,0.2-0.2v-7l0,0c0-0.1,0-0.1-0.1-0.2L8.2,0.9l0,0
	c0,0-0.1-0.1-0.2-0.1H8C7.8,0.8,7.7,0.9,7.7,1v1.7c0,0.4-0.3,0.7-0.7,0.7H3.2c-0.4,0-0.7-0.3-0.7-0.7v0V1.1C2.5,0.9,2.4,0.8,2.3,0.8
	L2.3,0.8L2.3,0.8z M3.5,2.7h3.3C6.9,2.7,7,2.6,7,2.5V1.1c0-0.1-0.1-0.2-0.2-0.2H3.5c-0.1,0-0.2,0.1-0.2,0.2v1.4
	C3.2,2.6,3.3,2.7,3.5,2.7L3.5,2.7z"/>
</svg>
