<?xml version="1.0" encoding="utf-8"?>
<!-- Generator: Adobe Illustrator 23.0.0, SVG Export Plug-In . SVG Version: 6.00 Build 0)  -->
<svg version="1.1" id="Layer_1" xmlns="http://www.w3.org/2000/svg" xmlns:xlink="http://www.w3.org/1999/xlink" x="0px" y="0px"
	 viewBox="0 0 271 246" style="enable-background:new 0 0 271 246;" xml:space="preserve">
<style type="text/css">
	.st0{fill:#F8F8F8;}
	.st1{fill:#FFFFFF;stroke:#E8E8E8;stroke-width:3;}
	.st2{fill:#E8E8E8;}
	.st3{fill:#DEF3FC;}
	.st4{fill:none;stroke:#E8E8E8;stroke-width:3;}
	.st5{fill:#FFFFFF;}
</style>
<g id="Symbol_8_10" transform="translate(-568.335 -268.934)">
	<ellipse id="Ellipse_137" class="st0" cx="720.6" cy="408.1" rx="78.6" ry="78.6"/>
	<g id="Group_3012" transform="translate(-18 26)">
		<path id="Path_3825" class="st1" d="M655.6,291.4l-9.6-11.6c0,0-7.5-9.6,0-14.6s31.6-17.9,31.6-17.9s5-2.1,8.7,0
			s32.9,17.9,32.9,17.9s8.7,4.6,0,14.6S708,291.4,708,291.4"/>
		<path id="Path_3829" class="st2" d="M685.6,276.1V271h5.1v-5.1h-5.1v-5.1h-5.1v5.1h-5.1v5.1h5.1v5.1L685.6,276.1z"/>
		<path id="Path_3827" class="st3" d="M766.7,352.2c0-11.1-6.6-21.1-16.7-25.5c0.5-2.1,0.8-4.2,0.7-6.3c0-15.4-12.4-27.9-27.8-27.9
			c0,0-0.1,0-0.1,0c-3,0-6,0.5-8.9,1.5c-9.1-6.1-19.9-9.4-30.9-9.5c-11-0.1-21.8,3.2-30.9,9.5c-2.9-1-5.9-1.5-8.9-1.5
			c-15.4,0-27.9,12.4-27.9,27.8c0,0,0,0.1,0,0.1c0,2.1,0.2,4.3,0.7,6.3c-10.1,4.4-16.7,14.4-16.7,25.5c0,7.7,3.1,15,8.7,20.3
			c-5.6,6.5-8.7,14.8-8.7,23.4c0,12.6,5.5,23.8,16.2,30.3c5.4-3.7,9-3.5,19.8-7c7.7-2.3,15.6-3.9,23.6-4.9v-13
			c-14.3-8.2-19.9-20.4-24-41.3v-19.9c0,0,18.6,3.1,32,0c13.4-3.1,19.4-5.8,25-15.4l2.8-4.5l2.1,0.2c4.8,12.1,13.8,20.4,31.4,19.7
			h2.4V360c-3.7,24.3-9.1,33.6-23.5,41.7v12.5l15.4,2.6c6.7,1.1,22.3,6,27.7,9.7c10.8-6.5,16.1-18.1,16.1-30.7
			c0-8.6-3.1-16.9-8.7-23.4C763.5,367.2,766.8,359.9,766.7,352.2z"/>
		<path id="Path_3826" class="st4" d="M623,382.6c0,0-9,14.1,0,24.3"/>
		<path id="Path_3815" class="st1" d="M682.9,439.8v47.4h-94.9c0,0,7.7-54.4,33.3-63.7s38.1-9.3,38.1-9.3"/>
		<path id="Path_3816" class="st1" d="M682.9,439.8v47.4h94.9c0,0-7.7-54.4-33.3-63.7s-37.3-9.5-37.3-9.5"/>
		<path id="Path_3818" class="st4" d="M723.4,487.1c0,0,14.1-10.3,10.5-28.3s-13.5-26.6-13.5-26.6"/>
		<path id="Path_3824" class="st4" d="M641.4,487.1c0,0-14.1-10.3-10.5-28.3s13.5-26.6,13.5-26.6"/>
		<path id="Path_3819" class="st4" d="M631.4,457.3L623,487"/>
		<path id="Path_3820" class="st4" d="M733.6,457.5l9.2,29.3"/>
		<path id="Path_3821" class="st4" d="M594.7,458.2l34.2,7.4"/>
		<path id="Path_3822" class="st4" d="M736.3,466.1l34.6-7.3"/>
		<path id="Path_3823" class="st4" d="M644.1,451.4h14.7"/>
		<path id="Path_3833" class="st4" d="M664.1,451.4h7"/>
		<g id="Ellipse_134" transform="translate(695 463)">
			<circle class="st5" cx="4" cy="-7.6" r="4"/>
			<circle class="st4" cx="4" cy="-7.6" r="2.5"/>
		</g>
		<g id="Ellipse_135" transform="translate(695 478)">
			<circle class="st5" cx="4" cy="-7.6" r="4"/>
			<circle class="st4" cx="4" cy="-7.6" r="2.5"/>
		</g>
		<path id="Path_3814" class="st1" d="M658.8,401v12.8c0,0,16.6,25.9,24,25.9c6.7,0,21.8-21.7,24.5-25.6c0.1-0.1,0.2-0.3,0.2-0.3
			v-12.1"/>
		<path id="Path_3813" class="st1" d="M635.2,340.4c0,0-6.8,67,48.6,67s46.7-67,46.7-67s-27.7,2.2-33.1-20.6
			S709.5,350.2,635.2,340.4z"/>
		<path id="Path_3830" class="st4" d="M653.4,359.4c0,0,0.1,7.3,7.1,7.3s7.7-7.3,7.7-7.3"/>
		<path id="Path_3831" class="st4" d="M697.4,359.4c0,0,0.1,7.3,7.1,7.3s7.7-7.3,7.7-7.3"/>
	</g>
</g>
<path class="st2" d="M183.1,28.5c29.4,8.4,53.8,27.8,68.6,54.6c28.7,51.9,12.8,116.6-34.9,149.7l1.4,2.6
	c49.2-33.9,65.7-100.4,36.1-153.7c-19.3-34.9-53.9-56-90.8-59.9l1.2,3.1C170.9,25.5,177,26.7,183.1,28.5z"/>
</svg>
