<svg xmlns="http://www.w3.org/2000/svg" xmlns:xlink="http://www.w3.org/1999/xlink" viewBox="0 0 250.9 237.614">
  <defs>
    <style>
      .cls-1, .cls-10, .cls-4, .cls-7, .cls-8 {
        fill: none;
      }

      .cls-1 {
        stroke: #707070;
      }

      .cls-2 {
        fill: #e9eaeb;
      }

      .cls-3 {
        clip-path: url(#clip-path);
      }

      .cls-4 {
        stroke: #bcc0c4;
      }

      .cls-5 {
        fill: #eee8ff;
      }

      .cls-5, .cls-6, .cls-7, .cls-8 {
        stroke: #3b3b3b;
      }

      .cls-6 {
        fill: #dfd6f7;
      }

      .cls-7 {
        stroke-miterlimit: 10;
        stroke-width: 0.5px;
      }

      .cls-8 {
        stroke-linecap: round;
      }

      .cls-9 {
        stroke: none;
      }
    </style>
    <clipPath id="clip-path">
      <path id="Path_4399" data-name="Path 4399" class="cls-1" d="M0,176.274V0H200.276L250.9,78.4,139.222,237.614H58.167Z" transform="translate(-3.957 -4.794)"/>
    </clipPath>
  </defs>
  <g id="Tela-provisoria" transform="translate(-1053.275 -469.641)">
    <g id="relatorios" transform="translate(1300.218 702.461) rotate(180)">
      <g id="Group_3119" data-name="Group 3119" transform="translate(17.992 17.367)">
        <g id="Group_2956" data-name="Group 2956" transform="translate(0 0)">
          <path id="Path_3790" data-name="Path 3790" class="cls-2" d="M74.864,0c41.462.116,75.167,34.025,75.283,75.738s-33.4,75.435-74.864,75.319S.116,117.033,0,75.319,33.4-.115,74.864,0Z" transform="matrix(0.363, -0.932, 0.932, 0.363, 0, 139.877)"/>
        </g>
      </g>
      <g id="Mask_Group_264" data-name="Mask Group 264" class="cls-3">
        <g id="Group_6006" data-name="Group 6006" transform="translate(59.003 -38.442) rotate(25)">
          <g id="Ellipse_715" data-name="Ellipse 715" class="cls-4">
            <circle class="cls-9" cx="115" cy="115" r="115"/>
            <circle class="cls-10" cx="115" cy="115" r="114.5"/>
          </g>
        </g>
      </g>
    </g>
    <path id="ic_build_24px" class="cls-5" d="M144.988,119.356,84.311,58.678a42.8,42.8,0,0,0-10-46.008A44.079,44.079,0,0,0,24.967,4L53.639,32.674l-20,20L4.3,24.005c-8,16-4.668,36.007,8.668,49.342a42.794,42.794,0,0,0,46.008,10l60.677,60.678a6.446,6.446,0,0,0,9.335,0l15.336-15.336C147.655,126.024,147.655,121.356,144.988,119.356Z" transform="translate(1073.937 504.949) rotate(-8)"/>
    <path id="ic_build_24px-2" data-name="ic_build_24px" class="cls-6" d="M.231,15.574,15.567.238C18.9-2.429-2.436,18.241.231,15.574Z" transform="translate(1230.443 621.652) rotate(-8)"/>
    <path id="ic_build_24px-3" data-name="ic_build_24px" class="cls-6" d="M.231,15.574,15.567.238C18.9-2.429-2.436,18.241.231,15.574Z" transform="translate(1241.572 629.071) rotate(-8)"/>
    <g id="Group_4831" data-name="Group 4831" transform="matrix(0.643, -0.766, 0.766, 0.643, 1044.588, 504.348)">
      <g id="Group_2930" data-name="Group 2930" transform="translate(0 0)">
        <line id="Line_508" data-name="Line 508" class="cls-7" y2="12.223" transform="translate(20.246 0)"/>
        <line id="Line_509" data-name="Line 509" class="cls-7" y2="12.223" transform="translate(20.246 28.521)"/>
        <line id="Line_510" data-name="Line 510" class="cls-7" x1="12.148" transform="translate(0 20.372)"/>
        <line id="Line_511" data-name="Line 511" class="cls-7" x1="12.148" transform="translate(28.345 20.372)"/>
      </g>
    </g>
    <line id="Line_910" data-name="Line 910" class="cls-8" x2="11.129" y2="7.419" transform="translate(1162.966 562.642)"/>
  </g>
</svg>
