<svg xmlns="http://www.w3.org/2000/svg" viewBox="0 0 15.107 14.1">
  <defs>
    <style>
      .cls-1 {
        fill: #1c3952;
        stroke: #1c3952;
        stroke-width: 0.1px;
      }
    </style>
  </defs>
  <path id="Path_5528" data-name="Path 5528" class="cls-1" d="M42.01,32.287l-1.775-4.346a.441.441,0,0,0-.406-.278H29.26a.441.441,0,0,0-.406.278l-1.775,4.346a.468.468,0,0,0,.039.429.437.437,0,0,0,.367.2H28.7v8.288a.448.448,0,0,0,.441.455H39.948a.448.448,0,0,0,.441-.455V32.919H41.6a.437.437,0,0,0,.367-.2A.468.468,0,0,0,42.01,32.287Zm-9.065,8.349v-5.16h3.2v5.16Zm6.563.116H37.026V35.02a.448.448,0,0,0-.441-.455H32.5a.448.448,0,0,0-.441.455v5.732H29.582V32.919h9.926v7.832Zm.441-8.743H28.15l1.4-3.435h9.984l1.4,3.435Z" transform="translate(-26.991 -27.612)"/>
</svg>
