<svg xmlns="http://www.w3.org/2000/svg" width="16.01" height="15.045" viewBox="0 0 16.01 15.045">
  <g id="unidade-_de-medida" data-name="unidade- de-medida" transform="translate(-23.495 -57.21)">
    <path id="Caminho_5807" data-name="Caminho 5807" d="M14.962,70.579l-2.353-8.391a.8.8,0,0,0-.741-.622H9.385A2.821,2.821,0,0,0,9.7,60.254,2.4,2.4,0,0,0,7.5,57.71a2.4,2.4,0,0,0-2.2,2.544,2.821,2.821,0,0,0,.319,1.312H3.132a.8.8,0,0,0-.741.622L.038,70.579A.886.886,0,0,0,.78,71.755H14.22A.886.886,0,0,0,14.962,70.579Z" transform="translate(24 0)" fill="none" stroke="#004564" stroke-width="1"/>
    <line id="Linha_920" data-name="Linha 920" x2="6" transform="translate(28.5 68.613)" fill="none" stroke="#004564" stroke-linecap="round" stroke-width="1.15"/>
  </g>
</svg>
