<svg id="workflow-icon" xmlns="http://www.w3.org/2000/svg" viewBox="0 0 21.065 13.718">
  <defs>
    <style>
      .cls-1 {
        fill: #3caad5;
      }
    </style>
  </defs>
  <g id="Group_5229" data-name="Group 5229" transform="translate(0 0)">
    <path id="Path_4546" data-name="Path 4546" class="cls-1" d="M13.322,22a.245.245,0,0,0-.2.245v3.429a.245.245,0,0,0,.245.245h3.919v2.449H9.694a.144.144,0,0,0-.046,0,.253.253,0,0,0-.2.245v3.184h-2.2A.223.223,0,0,0,7,32.039v3.429a.245.245,0,0,0,.245.245h5.389a.245.245,0,0,0,.245-.245V32.039a.245.245,0,0,0-.245-.245H9.939V28.855h7.348v2.939H14.838a.245.245,0,0,0-.245.245v3.429a.245.245,0,0,0,.245.245h5.389a.245.245,0,0,0,.245-.245V32.039a.223.223,0,0,0-.245-.245H17.777V28.855h7.348v2.939H22.431a.245.245,0,0,0-.245.245v3.429a.245.245,0,0,0,.245.245H27.82a.245.245,0,0,0,.245-.245V32.039a.223.223,0,0,0-.245-.245h-2.2V28.61a.255.255,0,0,0-.245-.245H17.777V25.916H21.7a.245.245,0,0,0,.245-.245V22.242A.245.245,0,0,0,21.7,22H13.368a.244.244,0,0,0-.046,0Zm.291.49h7.838v2.939H13.613Zm-6.124,9.8h4.9v2.939H7.49Zm7.593,0h4.9v2.939h-4.9Zm7.593,0h4.9v2.939h-4.9Z" transform="translate(-7 -21.996)"/>
  </g>
</svg>
