<?xml version="1.0" encoding="utf-8"?>
<!-- Generator: Adobe Illustrator 21.1.0, SVG Export Plug-In . SVG Version: 6.00 Build 0)  -->
<svg version="1.1" id="Layer_1" xmlns="http://www.w3.org/2000/svg" xmlns:xlink="http://www.w3.org/1999/xlink" x="0px" y="0px"
	 viewBox="0 0 595.3 102.9" style="enable-background:new 0 0 595.3 102.9;" xml:space="preserve">
<style type="text/css">
	.st0{fill-rule:evenodd;clip-rule:evenodd;fill:#FFFFFF;}
</style>
<g>
	<path class="st0" d="M198.7,53.1l8.8-22.6h4.7l8.8,22.6h-4.8l-2.4-6h-9.4l-2.4,6H198.7z M205.6,44.1h7l-3.5-9L205.6,44.1z"/>
	<polygon class="st0" points="225,53.1 225,30.5 229.7,30.5 229.7,49.9 239.9,49.9 239.9,53.1 	"/>
	<path class="st0" d="M243.9,53.1V30.5h7.7c2.3,0,4,0.4,5.2,1.3c1.2,0.9,1.8,2.1,1.8,3.8c0,2.7-1.8,4.7-5.4,5.8
		c4.2,1,6.4,3.1,6.4,6.2c0,1.8-0.6,3.2-1.9,4.1c-1.2,1-3,1.4-5.3,1.4H243.9z M248.4,39.9h1.1c1.3,0,2.3-0.3,3.1-1
		c0.8-0.7,1.2-1.5,1.2-2.7c0-1-0.3-1.8-0.9-2.1c-0.6-0.4-1.8-0.6-3.5-0.6h-0.9V39.9z M248.4,49.9h1c2,0,3.3-0.2,4.1-0.6
		c0.7-0.4,1.1-1.2,1.1-2.3c0-1.1-0.5-2.1-1.5-2.9c-1-0.8-2.3-1.1-3.8-1.1h-0.9V49.9z"/>
	<polygon class="st0" points="264.4,53.1 264.4,30.5 278.6,30.5 278.6,33.6 269.1,33.6 269.1,39.9 276.9,39.9 276.9,43 269.1,43 
		269.1,49.9 279.3,49.9 279.3,53.1 	"/>
	<path class="st0" d="M284,53.1V30.5h8.5c4.6,0,6.9,1.9,6.9,5.6c0,1.4-0.4,2.7-1.2,3.8c-0.8,1.1-1.8,2-3.2,2.6l7.4,10.6h-5.7
		l-5.6-9.3h-2.6v9.3H284z M288.5,40.8h1.1c3.4,0,5.1-1.4,5.1-4.2c0-2-1.5-3-4.6-3h-1.6V40.8z"/>
	<polygon class="st0" points="312,53.1 312,33.6 303.9,33.6 303.9,30.5 324.8,30.5 324.8,33.6 316.7,33.6 316.7,53.1 	"/>
	<polygon class="st0" points="339.9,53.1 339.9,30.5 354,30.5 354,33.6 344.6,33.6 344.6,39.9 352.3,39.9 352.3,43 344.6,43 
		344.6,49.9 354.7,49.9 354.7,53.1 	"/>
	<rect x="359.4" y="30.5" class="st0" width="4.7" height="22.6"/>
	<polygon class="st0" points="370.6,53.1 370.6,30.5 374.8,30.5 385.2,45.9 385.2,30.5 389,30.5 389,53.1 384.8,53.1 374.4,37.7 
		374.4,53.1 	"/>
	<path class="st0" d="M394.1,52.9V49c2.4,1,4.5,1.5,6.3,1.5c1.2,0,2.2-0.3,2.9-0.8c0.7-0.5,1-1.3,1-2.2c0-0.7-0.2-1.4-0.7-1.9
		c-0.4-0.5-1.3-1.1-2.5-1.8l-1.5-0.8c-2-1.1-3.5-2.2-4.3-3.3c-0.8-1-1.3-2.3-1.3-3.6c0-1.9,0.7-3.4,2.1-4.5c1.4-1.1,3.2-1.7,5.4-1.7
		c1.8,0,3.8,0.2,6.1,0.7v3.6c-2.3-0.9-4.1-1.3-5.5-1.3c-1,0-1.9,0.2-2.5,0.7c-0.6,0.5-0.9,1.1-0.9,1.8c0,0.6,0.2,1.2,0.6,1.6
		c0.4,0.5,1.2,1,2.5,1.7l1.6,0.9c2.2,1.2,3.7,2.3,4.5,3.4c0.8,1,1.2,2.3,1.2,3.7c0,2.1-0.8,3.7-2.3,4.9s-3.7,1.8-6.5,1.8
		C398.7,53.6,396.6,53.4,394.1,52.9"/>
	<polygon class="st0" points="419.7,53.1 419.7,33.6 411.6,33.6 411.6,30.5 432.5,30.5 432.5,33.6 424.4,33.6 424.4,53.1 	"/>
	<polygon class="st0" points="436.5,53.1 436.5,30.5 450.6,30.5 450.6,33.6 441.2,33.6 441.2,39.9 448.9,39.9 448.9,43 441.2,43 
		441.2,49.9 451.3,49.9 451.3,53.1 	"/>
	<rect x="456" y="30.5" class="st0" width="4.7" height="22.6"/>
	<polygon class="st0" points="467.2,53.1 467.2,30.5 471.4,30.5 481.8,45.9 481.8,30.5 485.6,30.5 485.6,53.1 481.4,53.1 471,37.7 
		471,53.1 	"/>
	<path class="st0" d="M79,39.8c-1.5-2.4-4.8-3.2-7.2-3.5l-0.6-0.1c2.7,4,5.1,8,7.1,12.1c0.2-0.5,0.4-0.9,0.5-1.2
		C80.1,44,80.1,41.5,79,39.8"/>
	<path class="st0" d="M49.9,71.7c1.3,3.4,2.7,5.2,4.3,5.5c2.1,0.4,4.8-1.3,8.8-5.5c0.8-0.9,1.7-1.9,2.6-3.1
		c-4.6,0.1-10.2,0.6-16.5,1.4C49.4,70.3,49.9,71.7,49.9,71.7"/>
	<path class="st0" d="M40.7,52.8c2.4,3.8,4.7,8,6.8,13c0.6-0.1,1.2-0.2,1.8-0.3c6.1-0.9,12.8-1.3,19.5-1.1c3.7-5.3,6.9-11,8.6-14.3
		c-2.4-4.7-5.5-9.4-9.4-14.2c-5.7-0.5-12.1-0.4-18.6,0.3c-0.9,2.2-2.4,5.4-4.4,8.9C43.4,48,42,50.5,40.7,52.8"/>
	<path class="st0" d="M79.5,25.6c-7.4-7.4-17.2-11.4-27.6-11.4c-8.7,0-17,2.8-23.8,8.1c-6.6,5.1-11.4,12.2-13.7,20.2
		c8.4-4.1,19.4-7.3,31.2-9c0.8-2.6,1.4-5,1.9-7.1c1.1-4.4,1.8-7.6,3.9-8.2c2.2-0.6,5.7,1.8,12.2,8.4c0,0,0,0,0,0l0,0l4.9,5.8
		c2.7,0.2,5.2,0.5,7.4,0.9l0.3,0.1c2,0.4,6.3,1.3,8.1,4.4c1,1.8,1,4.1,0,6.8c-1.1,3.1-2.3,5.9-3.6,8.6c1.1,2.7,2,5.5,2.8,8.1
		c0,0.1,0.1,0.3,0.1,0.6c0.1,0.7-0.4,1.3-0.4,1.3l-0.2,0.3l-0.1-0.3c-0.8-2.8-1.8-5.6-2.9-8.3c-1.7,3.4-3.6,6.6-5.9,9.7
		c5.7,0.4,10.6,1.3,14.4,2.4c1.7-4.4,2.6-9.1,2.6-13.9C90.9,42.8,86.8,33,79.5,25.6"/>
	<path class="st0" d="M36.9,64.8c0.9,1.4,3.5,1.8,8.3,1.3c-1.7-4.3-3.5-8-5.4-11.5C37.2,59.4,35.8,63,36.9,64.8"/>
	<path class="st0" d="M65.2,32.2c-4.7-5.5-7.3-7.6-9.2-7.3c-1.9,0.3-3.2,3.3-5,7.8l-0.1,0.2C56,32.3,60.8,32.1,65.2,32.2"/>
	<path class="st0" d="M71,68.6c-2.3,2.8-4.9,5.7-8.2,9.2c-4.9,5-7.5,7.2-9.7,6.7c-1.5-0.4-2.6-2.1-3.6-5.7c-0.8-3-1.7-5.9-2.7-8.5
		l-3.6,0.5c-8,1.2-12.4,0.5-14-1.9c-2.2-3.5,1.9-10.4,7.6-19c-1.3-1.9-2.6-3.7-4.1-5.4c-0.1-0.2-0.3-0.3-0.4-0.4l-0.2-0.2l0.3,0
		c0.5,0,1,0.1,1.4,0.5c1.3,1.4,2.5,2.8,3.7,4.4l0.6-0.9l2.6-3.9c1.4-2.2,2.6-4.5,3.6-7.1c-14.5,2.2-25,6.7-29.4,12.4
		c-1.7,2.1-2.4,4.2-1.9,8c1,8.9,4.6,16.9,11.3,23.7c7.3,7.4,17.1,11.3,27.5,11.3c11.4,0,22.2-5,29.6-13.6c1.8-2.4,2.3-4.4,1.6-5.9
		C81.9,70.2,77.9,68.9,71,68.6"/>
	<path class="st0" d="M109.3,81.7c-1.3,0-3.1-0.3-5.2-0.9V78c2.3,1,4.1,1.6,5.6,1.6c1.1,0,2-0.3,2.7-0.9c0.7-0.6,1-1.4,1-2.3
		c0-0.8-0.2-1.5-0.7-2c-0.4-0.6-1.3-1.2-2.5-1.8l-1.4-0.8c-1.7-1-2.9-1.9-3.6-2.8c-0.7-0.9-1-1.9-1-3c0-1.5,0.6-2.8,1.7-3.8
		c1.1-1,2.5-1.5,4.3-1.5c1.5,0,3.2,0.3,4.9,0.8v2.6c-2.1-0.8-3.7-1.2-4.7-1.2c-1,0-1.8,0.3-2.4,0.8c-0.6,0.5-1,1.2-1,2
		c0,0.7,0.2,1.3,0.7,1.8c0.5,0.5,1.3,1.1,2.6,1.8l1.4,0.8c1.7,1,2.9,1.9,3.6,2.8c0.7,0.9,1,1.9,1,3.1c0,1.7-0.6,3.1-1.9,4.2
		C113.1,81.2,111.4,81.7,109.3,81.7"/>
	<path class="st0" d="M126.1,81.6c-1.9,0-3.4-0.7-4.6-2c-1.2-1.3-1.7-3-1.7-5.2c0-2.2,0.6-3.9,1.7-5.2c1.2-1.3,2.7-1.9,4.6-1.9
		c1.9,0,3.5,0.6,4.6,1.9c1.2,1.3,1.7,3,1.7,5.2c0,2.2-0.6,3.9-1.7,5.2C129.6,80.9,128,81.6,126.1,81.6 M126.1,80.1
		c1.4,0,2.5-0.5,3.2-1.5c0.8-1,1.1-2.4,1.1-4.2c0-1.8-0.4-3.2-1.1-4.1c-0.8-1-1.8-1.5-3.2-1.5c-1.4,0-2.4,0.5-3.2,1.5
		c-0.8,1-1.1,2.4-1.1,4.2c0,1.8,0.4,3.2,1.1,4.2C123.7,79.6,124.8,80.1,126.1,80.1"/>
	<path class="st0" d="M141.8,81.6c-2.1,0-3.7-0.6-4.9-1.9c-1.2-1.2-1.7-3-1.7-5.3c0-2.3,0.6-4,1.8-5.3c1.2-1.2,2.8-1.9,5-1.9
		c1.2,0,2.6,0.2,4.3,0.6v1.8c-1.9-0.6-3.3-1-4.3-1c-1.5,0-2.6,0.5-3.4,1.5c-0.8,1-1.2,2.4-1.2,4.2c0,1.7,0.4,3.1,1.3,4.1
		c0.9,1,2,1.5,3.5,1.5c1.3,0,2.7-0.4,4.1-1.2v1.6C144.8,81.2,143.4,81.6,141.8,81.6"/>
	<rect x="149.7" y="67.6" class="st0" width="1.9" height="13.6"/>
	<polygon class="st0" points="155.9,81.2 155.9,67.6 163.5,67.6 163.5,69.1 157.9,69.1 157.9,73.4 162.6,73.4 162.6,74.9 
		157.9,74.9 157.9,79.8 163.9,79.8 163.9,81.2 	"/>
	<path class="st0" d="M166.9,81.2V67.6h4.5c1.3,0,2.4,0.2,3.3,0.5c0.8,0.3,1.5,0.8,2.2,1.5c1,1.1,1.4,2.6,1.4,4.5
		c0,2.3-0.6,4-1.8,5.3c-1.2,1.2-2.9,1.9-5,1.9H166.9z M168.8,79.8h2.5c1.8,0,3-0.5,3.7-1.4c0.8-1,1.2-2.4,1.2-4.1
		c0-1.6-0.4-2.9-1.2-3.8c-0.5-0.6-1-0.9-1.7-1.1c-0.7-0.2-1.6-0.3-2.9-0.3h-1.6V79.8z"/>
	<path class="st0" d="M190.7,81.2l-1.5-3.8h-5.8l-1.5,3.8h-1.8l5.4-13.6h1.9l5.3,13.6H190.7z M188.6,76l-2.3-5.9L184,76H188.6z"/>
	<path class="st0" d="M195.5,81.2V67.6h4.5c1.3,0,2.4,0.2,3.3,0.5c0.8,0.3,1.5,0.8,2.2,1.5c1,1.1,1.4,2.6,1.4,4.5
		c0,2.3-0.6,4-1.8,5.3c-1.2,1.2-2.9,1.9-5,1.9H195.5z M197.4,79.8h2.5c1.8,0,3-0.5,3.7-1.4c0.8-1,1.2-2.4,1.2-4.1
		c0-1.6-0.4-2.9-1.2-3.8c-0.5-0.6-1-0.9-1.7-1.1c-0.7-0.2-1.6-0.3-2.9-0.3h-1.6V79.8z"/>
	<polygon class="st0" points="210.4,81.2 210.4,67.6 217.9,67.6 217.9,69.1 212.3,69.1 212.3,73.4 217,73.4 217,74.9 212.3,74.9 
		212.3,79.8 218.3,79.8 218.3,81.2 	"/>
	<path class="st0" d="M228,81.2V67.6h3.5c1.4,0,2.4,0.3,3.1,0.8c0.7,0.5,1.1,1.3,1.1,2.2c0,1.6-0.9,2.8-2.8,3.5
		c2.2,0.7,3.3,1.9,3.3,3.7c0,1.1-0.4,2-1.1,2.5c-0.7,0.6-1.8,0.9-3.2,0.9H228z M230,73.6h0.6c1,0,1.8-0.2,2.4-0.7
		c0.6-0.4,0.8-1.1,0.8-1.9c0-1.3-1-2-3.1-2H230V73.6z M230,79.8h0.4c1.4,0,2.3-0.1,2.7-0.3c0.8-0.3,1.2-1,1.2-1.9
		c0-0.8-0.4-1.5-1.1-2c-0.7-0.5-1.6-0.8-2.7-0.8H230V79.8z"/>
	<polygon class="st0" points="239.6,81.2 239.6,67.6 247.2,67.6 247.2,69.1 241.5,69.1 241.5,73.4 246.3,73.4 246.3,74.9 
		241.5,74.9 241.5,79.8 247.6,79.8 247.6,81.2 	"/>
	<polygon class="st0" points="250.6,81.2 250.6,67.6 252.4,67.6 259.3,78.1 259.3,67.6 260.9,67.6 260.9,81.2 259.1,81.2 
		252.2,70.7 252.2,81.2 	"/>
	<polygon class="st0" points="265.2,81.2 265.2,67.6 272.8,67.6 272.8,69.1 267.2,69.1 267.2,73.4 271.9,73.4 271.9,74.9 
		267.2,74.9 267.2,79.8 273.2,79.8 273.2,81.2 	"/>
	<polygon class="st0" points="276.2,81.2 276.2,67.6 283.8,67.6 283.8,69.1 278.1,69.1 278.1,73.6 282.9,73.6 282.9,75.1 
		278.1,75.1 278.1,81.2 	"/>
	<rect x="287" y="67.6" class="st0" width="1.9" height="13.6"/>
	<path class="st0" d="M299,81.6c-2.1,0-3.7-0.6-4.9-1.9c-1.2-1.2-1.7-3-1.7-5.3c0-2.3,0.6-4,1.8-5.3c1.2-1.2,2.8-1.9,5-1.9
		c1.2,0,2.6,0.2,4.3,0.6v1.8c-1.9-0.6-3.3-1-4.3-1c-1.5,0-2.6,0.5-3.4,1.5c-0.8,1-1.2,2.4-1.2,4.2c0,1.7,0.4,3.1,1.3,4.1
		c0.9,1,2,1.5,3.5,1.5c1.3,0,2.7-0.4,4.1-1.2v1.6C302.1,81.2,300.6,81.6,299,81.6"/>
	<polygon class="st0" points="307,81.2 307,67.6 314.6,67.6 314.6,69.1 308.9,69.1 308.9,73.4 313.7,73.4 313.7,74.9 308.9,74.9 
		308.9,79.8 315,79.8 315,81.2 	"/>
	<polygon class="st0" points="318,81.2 318,67.6 319.8,67.6 326.7,78.1 326.7,67.6 328.3,67.6 328.3,81.2 326.4,81.2 319.6,70.7 
		319.6,81.2 	"/>
	<polygon class="st0" points="335.8,81.2 335.8,69.1 331,69.1 331,67.6 342.6,67.6 342.6,69.1 337.8,69.1 337.8,81.2 	"/>
	<polygon class="st0" points="345.3,81.2 345.3,67.6 352.9,67.6 352.9,69.1 347.2,69.1 347.2,73.4 351.9,73.4 351.9,74.9 
		347.2,74.9 347.2,79.8 353.2,79.8 353.2,81.2 	"/>
	<rect x="362.9" y="67.6" class="st0" width="1.9" height="13.6"/>
	<path class="st0" d="M371.8,81.6c-0.9,0-2.1-0.2-3.5-0.6V79c1.5,0.7,2.8,1.1,3.8,1.1c0.8,0,1.4-0.2,1.8-0.6
		c0.5-0.4,0.7-0.9,0.7-1.6c0-0.5-0.2-1-0.5-1.4c-0.3-0.4-0.9-0.8-1.7-1.2l-0.9-0.5c-1.2-0.7-2-1.3-2.5-1.9c-0.5-0.6-0.7-1.3-0.7-2
		c0-1,0.4-1.9,1.1-2.6c0.8-0.7,1.7-1,2.9-1c1,0,2.2,0.2,3.3,0.5v1.8c-1.4-0.6-2.5-0.9-3.2-0.9c-0.7,0-1.2,0.2-1.7,0.5
		c-0.4,0.4-0.7,0.8-0.7,1.3c0,0.5,0.2,0.9,0.5,1.2c0.3,0.3,0.9,0.8,1.7,1.2l1,0.6c1.2,0.7,2,1.3,2.5,1.9c0.5,0.6,0.7,1.3,0.7,2.1
		c0,1.2-0.4,2.1-1.3,2.8C374.4,81.2,373.2,81.6,371.8,81.6"/>
	<path class="st0" d="M380,81.2V67.6h4.1c1.3,0,2.3,0.3,3,0.9c0.7,0.6,1,1.4,1,2.5c0,1.8-0.9,3.1-2.7,3.9l4.5,6.4h-2.4l-3.9-5.8
		h-1.8v5.8H380z M381.9,74h0.6c2.4,0,3.6-1,3.6-2.9c0-1.4-1-2.1-3-2.1h-1.2V74z"/>
	<path class="st0" d="M401.6,81.2l-1.5-3.8h-5.8l-1.5,3.8h-1.8l5.4-13.6h1.9l5.3,13.6H401.6z M399.6,76l-2.3-5.9l-2.3,5.9H399.6z"/>
	<polygon class="st0" points="406.4,81.2 406.4,67.6 414,67.6 414,69.1 408.4,69.1 408.4,73.4 413.1,73.4 413.1,74.9 408.4,74.9 
		408.4,79.8 414.4,79.8 414.4,81.2 	"/>
	<polygon class="st0" points="417.4,81.2 417.4,67.6 419.3,67.6 419.3,79.8 425.4,79.8 425.4,81.2 	"/>
	<rect x="428.1" y="67.6" class="st0" width="1.9" height="13.6"/>
	<polygon class="st0" points="437.6,81.2 437.6,69.1 432.7,69.1 432.7,67.6 444.3,67.6 444.3,69.1 439.5,69.1 439.5,81.2 	"/>
	<path class="st0" d="M455.9,81.2l-1.5-3.8h-5.8l-1.5,3.8h-1.8l5.4-13.6h1.9l5.3,13.6H455.9z M453.9,76l-2.3-5.9l-2.3,5.9H453.9z"/>
	<path class="st0" d="M467.5,81.2V67.6h3.5c1.4,0,2.4,0.3,3.1,0.8c0.7,0.5,1.1,1.3,1.1,2.2c0,1.6-0.9,2.8-2.8,3.5
		c2.2,0.7,3.3,1.9,3.3,3.7c0,1.1-0.4,2-1.1,2.5c-0.7,0.6-1.8,0.9-3.2,0.9H467.5z M469.4,73.6h0.6c1,0,1.8-0.2,2.4-0.7
		c0.6-0.4,0.8-1.1,0.8-1.9c0-1.3-1-2-3.1-2h-0.7V73.6z M469.4,79.8h0.4c1.4,0,2.3-0.1,2.7-0.3c0.8-0.3,1.2-1,1.2-1.9
		c0-0.8-0.4-1.5-1.1-2c-0.7-0.5-1.6-0.8-2.7-0.8h-0.5V79.8z"/>
	<path class="st0" d="M479,81.2V67.6h4.1c1.3,0,2.3,0.3,3,0.9c0.7,0.6,1,1.4,1,2.5c0,1.8-0.9,3.1-2.7,3.9l4.5,6.4h-2.4l-3.9-5.8H481
		v5.8H479z M481,74h0.6c2.4,0,3.6-1,3.6-2.9c0-1.4-1-2.1-3-2.1H481V74z"/>
	<path class="st0" d="M500.6,81.2l-1.5-3.8h-5.8l-1.5,3.8h-1.8l5.4-13.6h1.9l5.3,13.6H500.6z M498.6,76l-2.3-5.9L494,76H498.6z"/>
	<path class="st0" d="M508.1,81.6c-0.9,0-2.1-0.2-3.5-0.6V79c1.5,0.7,2.8,1.1,3.8,1.1c0.8,0,1.4-0.2,1.8-0.6
		c0.5-0.4,0.7-0.9,0.7-1.6c0-0.5-0.2-1-0.5-1.4c-0.3-0.4-0.9-0.8-1.7-1.2l-0.9-0.5c-1.2-0.7-2-1.3-2.4-1.9c-0.5-0.6-0.7-1.3-0.7-2
		c0-1,0.4-1.9,1.1-2.6c0.8-0.7,1.7-1,2.9-1c1,0,2.2,0.2,3.3,0.5v1.8c-1.4-0.6-2.5-0.9-3.2-0.9c-0.7,0-1.2,0.2-1.7,0.5
		c-0.4,0.4-0.7,0.8-0.7,1.3c0,0.5,0.2,0.9,0.5,1.2c0.3,0.3,0.9,0.8,1.7,1.2l1,0.6c1.2,0.7,2,1.3,2.5,1.9c0.5,0.6,0.7,1.3,0.7,2.1
		c0,1.2-0.4,2.1-1.3,2.8C510.7,81.2,509.5,81.6,508.1,81.6"/>
	<rect x="516.3" y="67.6" class="st0" width="1.9" height="13.6"/>
	<polygon class="st0" points="522.5,81.2 522.5,67.6 524.4,67.6 524.4,79.8 530.5,79.8 530.5,81.2 	"/>
	<polygon class="st0" points="533.3,81.2 533.3,67.6 540.9,67.6 540.9,69.1 535.2,69.1 535.2,73.4 540,73.4 540,74.9 535.2,74.9 
		535.2,79.8 541.3,79.8 541.3,81.2 	"/>
	<rect x="544.2" y="67.6" class="st0" width="1.9" height="13.6"/>
	<path class="st0" d="M550.4,81.2V67.6h4.1c1.3,0,2.3,0.3,3,0.9c0.7,0.6,1,1.4,1,2.5c0,1.8-0.9,3.1-2.7,3.9l4.5,6.4H558l-3.9-5.8
		h-1.8v5.8H550.4z M552.4,74h0.6c2.4,0,3.6-1,3.6-2.9c0-1.4-1-2.1-3-2.1h-1.2V74z"/>
	<path class="st0" d="M577.1,81.2l-2.2-5.5h-8.5l-2.2,5.5h-2.6l7.9-20h2.8l7.8,20H577.1z M574.1,73.6l-3.4-8.6l-3.4,8.6H574.1z"/>
</g>
</svg>
